  0
SECTION
  2
HEADER
  9
$ACADVER
  1
AC1015
  9
$ACADMAINTVER
 70
     6
  9
$DWGCODEPAGE
  3
ANSI_1252
  9
$INSBASE
 10
0.0
 20
0.0
 30
0.0
  9
$EXTMIN
 10
1.278354758906711
 20
-0.7064114821138498
 30
0.0
  9
$EXTMAX
 10
13.96810784542952
 20
10.05752225317291
 30
0.0
  9
$LIMMIN
 10
0.0
 20
0.0
  9
$LIMMAX
 10
12.0
 20
9.0
  9
$ORTHOMODE
 70
     0
  9
$REGENMODE
 70
     1
  9
$FILLMODE
 70
     1
  9
$QTEXTMODE
 70
     0
  9
$MIRRTEXT
 70
     1
  9
$LTSCALE
 40
1.0
  9
$ATTMODE
 70
     1
  9
$TEXTSIZE
 40
0.4
  9
$TRACEWID
 40
0.05
  9
$TEXTSTYLE
  7
ROMANT
  9
$CLAYER
  8
COTAS
  9
$CELTYPE
  6
BYLAYER
  9
$CECOLOR
 62
   256
  9
$CELTSCALE
 40
1.0
  9
$DISPSILH
 70
     0
  9
$DIMSCALE
 40
1.0
  9
$DIMASZ
 40
0.1
  9
$DIMEXO
 40
0.0625
  9
$DIMDLI
 40
0.38
  9
$DIMRND
 40
0.0
  9
$DIMDLE
 40
0.0
  9
$DIMEXE
 40
0.18
  9
$DIMTP
 40
0.0
  9
$DIMTM
 40
0.0
  9
$DIMTXT
 40
0.1
  9
$DIMCEN
 40
0.09
  9
$DIMTSZ
 40
0.0
  9
$DIMTOL
 70
     0
  9
$DIMLIM
 70
     0
  9
$DIMTIH
 70
     1
  9
$DIMTOH
 70
     1
  9
$DIMSE1
 70
     0
  9
$DIMSE2
 70
     0
  9
$DIMTAD
 70
     0
  9
$DIMZIN
 70
     0
  9
$DIMBLK
  1

  9
$DIMASO
 70
     1
  9
$DIMSHO
 70
     1
  9
$DIMPOST
  1

  9
$DIMAPOST
  1

  9
$DIMALT
 70
     0
  9
$DIMALTD
 70
     2
  9
$DIMALTF
 40
25.4
  9
$DIMLFAC
 40
1.0
  9
$DIMTOFL
 70
     0
  9
$DIMTVP
 40
0.0
  9
$DIMTIX
 70
     0
  9
$DIMSOXD
 70
     0
  9
$DIMSAH
 70
     0
  9
$DIMBLK1
  1

  9
$DIMBLK2
  1

  9
$DIMSTYLE
  2
STANDARD
  9
$DIMCLRD
 70
     0
  9
$DIMCLRE
 70
     0
  9
$DIMCLRT
 70
     0
  9
$DIMTFAC
 40
1.799999999999999
  9
$DIMGAP
 40
0.09
  9
$DIMJUST
 70
     0
  9
$DIMSD1
 70
     0
  9
$DIMSD2
 70
     0
  9
$DIMTOLJ
 70
     1
  9
$DIMTZIN
 70
     0
  9
$DIMALTZ
 70
     0
  9
$DIMALTTZ
 70
     0
  9
$DIMUPT
 70
     0
  9
$DIMDEC
 70
     4
  9
$DIMTDEC
 70
     4
  9
$DIMALTU
 70
     2
  9
$DIMALTTD
 70
     2
  9
$DIMTXSTY
  7
ROMANT
  9
$DIMAUNIT
 70
     0
  9
$DIMADEC
 70
     0
  9
$DIMALTRND
 40
0.0
  9
$DIMAZIN
 70
     0
  9
$DIMDSEP
 70
    46
  9
$DIMATFIT
 70
     3
  9
$DIMFRAC
 70
     0
  9
$DIMLDRBLK
  1

  9
$DIMLUNIT
 70
     2
  9
$DIMLWD
 70
    -2
  9
$DIMLWE
 70
    -2
  9
$DIMTMOVE
 70
     2
  9
$LUNITS
 70
     2
  9
$LUPREC
 70
     4
  9
$SKETCHINC
 40
0.1
  9
$FILLETRAD
 40
0.0
  9
$AUNITS
 70
     0
  9
$AUPREC
 70
     0
  9
$MENU
  1
acad
  9
$ELEVATION
 40
0.0
  9
$PELEVATION
 40
0.0
  9
$THICKNESS
 40
0.0
  9
$LIMCHECK
 70
     0
  9
$CHAMFERA
 40
0.0
  9
$CHAMFERB
 40
0.0
  9
$CHAMFERC
 40
0.0
  9
$CHAMFERD
 40
0.0
  9
$SKPOLY
 70
     0
  9
$TDCREATE
 40
2450945.495162152
  9
$TDUCREATE
 40
2450945.745162152
  9
$TDUPDATE
 40
2454670.621110196
  9
$TDUUPDATE
 40
2454670.871110196
  9
$TDINDWG
 40
0.0604834028
  9
$TDUSRTIMER
 40
0.0604834028
  9
$USRTIMER
 70
     1
  9
$ANGBASE
 50
0.0
  9
$ANGDIR
 70
     0
  9
$PDMODE
 70
     0
  9
$PDSIZE
 40
0.0
  9
$PLINEWID
 40
0.0
  9
$SPLFRAME
 70
     0
  9
$SPLINETYPE
 70
     6
  9
$SPLINESEGS
 70
     8
  9
$HANDSEED
  5
42F
  9
$SURFTAB1
 70
     6
  9
$SURFTAB2
 70
     6
  9
$SURFTYPE
 70
     6
  9
$SURFU
 70
     6
  9
$SURFV
 70
     6
  9
$UCSBASE
  2

  9
$UCSNAME
  2

  9
$UCSORG
 10
0.0
 20
0.0
 30
0.0
  9
$UCSXDIR
 10
1.0
 20
0.0
 30
0.0
  9
$UCSYDIR
 10
0.0
 20
1.0
 30
0.0
  9
$UCSORTHOREF
  2

  9
$UCSORTHOVIEW
 70
     0
  9
$UCSORGTOP
 10
0.0
 20
0.0
 30
0.0
  9
$UCSORGBOTTOM
 10
0.0
 20
0.0
 30
0.0
  9
$UCSORGLEFT
 10
0.0
 20
0.0
 30
0.0
  9
$UCSORGRIGHT
 10
0.0
 20
0.0
 30
0.0
  9
$UCSORGFRONT
 10
0.0
 20
0.0
 30
0.0
  9
$UCSORGBACK
 10
0.0
 20
0.0
 30
0.0
  9
$PUCSBASE
  2

  9
$PUCSNAME
  2

  9
$PUCSORG
 10
0.0
 20
0.0
 30
0.0
  9
$PUCSXDIR
 10
1.0
 20
0.0
 30
0.0
  9
$PUCSYDIR
 10
0.0
 20
1.0
 30
0.0
  9
$PUCSORTHOREF
  2

  9
$PUCSORTHOVIEW
 70
     0
  9
$PUCSORGTOP
 10
0.0
 20
0.0
 30
0.0
  9
$PUCSORGBOTTOM
 10
0.0
 20
0.0
 30
0.0
  9
$PUCSORGLEFT
 10
0.0
 20
0.0
 30
0.0
  9
$PUCSORGRIGHT
 10
0.0
 20
0.0
 30
0.0
  9
$PUCSORGFRONT
 10
0.0
 20
0.0
 30
0.0
  9
$PUCSORGBACK
 10
0.0
 20
0.0
 30
0.0
  9
$USERI1
 70
     0
  9
$USERI2
 70
     0
  9
$USERI3
 70
     0
  9
$USERI4
 70
     0
  9
$USERI5
 70
     0
  9
$USERR1
 40
0.0
  9
$USERR2
 40
0.0
  9
$USERR3
 40
0.0
  9
$USERR4
 40
0.0
  9
$USERR5
 40
0.0
  9
$WORLDVIEW
 70
     1
  9
$SHADEDGE
 70
     3
  9
$SHADEDIF
 70
    70
  9
$TILEMODE
 70
     1
  9
$MAXACTVP
 70
    16
  9
$PINSBASE
 10
0.0
 20
0.0
 30
0.0
  9
$PLIMCHECK
 70
     0
  9
$PEXTMIN
 10
1.000000000000000E+20
 20
1.000000000000000E+20
 30
1.000000000000000E+20
  9
$PEXTMAX
 10
-1.000000000000000E+20
 20
-1.000000000000000E+20
 30
-1.000000000000000E+20
  9
$PLIMMIN
 10
0.0
 20
0.0
  9
$PLIMMAX
 10
12.0
 20
9.0
  9
$UNITMODE
 70
     0
  9
$VISRETAIN
 70
     0
  9
$PLINEGEN
 70
     0
  9
$PSLTSCALE
 70
     1
  9
$TREEDEPTH
 70
  3020
  9
$CMLSTYLE
  2
STANDARD
  9
$CMLJUST
 70
     0
  9
$CMLSCALE
 40
1.0
  9
$PROXYGRAPHICS
 70
     1
  9
$MEASUREMENT
 70
     0
  9
$CELWEIGHT
370
    -1
  9
$ENDCAPS
280
     0
  9
$JOINSTYLE
280
     0
  9
$LWDISPLAY
290
     0
  9
$INSUNITS
 70
     0
  9
$HYPERLINKBASE
  1

  9
$STYLESHEET
  1

  9
$XEDIT
290
     1
  9
$CEPSNTYPE
380
     0
  9
$PSTYLEMODE
290
     1
  9
$FINGERPRINTGUID
  2
{AD3A8F39-AEF0-44E9-A49D-1EA61CCEA75C}
  9
$VERSIONGUID
  2
{60EF4BD1-A130-4DC7-98C2-E607C5B89CE5}
  9
$EXTNAMES
290
     1
  9
$PSVPSCALE
 40
0.0
  9
$OLESTARTUP
290
     0
  0
ENDSEC
  0
SECTION
  2
CLASSES
  0
CLASS
  1
DICTIONARYVAR
  2
AcDbDictionaryVar
  3
AutoCAD 2000
 90
        0
280
     0
281
     0
  0
CLASS
  1
LWPOLYLINE
  2
AcDbPolyline
  3
AutoCAD 2000
 90
    32768
280
     0
281
     1
  0
CLASS
  1
ACDBDICTIONARYWDFLT
  2
AcDbDictionaryWithDefault
  3
AutoCAD 2000
 90
        0
280
     0
281
     0
  0
CLASS
  1
ACDBPLACEHOLDER
  2
AcDbPlaceHolder
  3
AutoCAD 2000
 90
        0
280
     0
281
     0
  0
CLASS
  1
LAYOUT
  2
AcDbLayout
  3
AutoCAD 2000
 90
        0
280
     0
281
     0
  0
ENDSEC
  0
SECTION
  2
TABLES
  0
TABLE
  2
VPORT
  5
8
330
0
100
AcDbSymbolTable
 70
     2
  0
VPORT
  5
42E
330
8
100
AcDbSymbolTableRecord
100
AcDbViewportTableRecord
  2
*Active
 70
     0
 10
0.0
 20
0.0
 11
1.0
 21
1.0
 12
6.986347498571877
 22
4.675630688808722
 13
0.0
 23
0.0
 14
1.0
 24
1.0
 15
0.0
 25
0.0
 16
0.0
 26
0.0
 36
1.0
 17
0.0
 27
0.0
 37
0.0
 40
5.938371934182089
 41
1.726429675425038
 42
50.0
 43
0.0
 44
0.0
 50
0.0
 51
0.0
 71
     0
 72
   100
 73
     1
 74
     1
 75
     0
 76
     0
 77
     0
 78
     0
281
     0
 65
     1
110
0.0
120
0.0
130
0.0
111
1.0
121
0.0
131
0.0
112
0.0
122
1.0
132
0.0
 79
     0
146
0.0
  0
ENDTAB
  0
TABLE
  2
LTYPE
  5
5
330
0
100
AcDbSymbolTable
 70
     1
  0
LTYPE
  5
11
330
5
100
AcDbSymbolTableRecord
100
AcDbLinetypeTableRecord
  2
BYBLOCK
 70
     0
  3

 72
    65
 73
     0
 40
0.0
  0
LTYPE
  5
12
330
5
100
AcDbSymbolTableRecord
100
AcDbLinetypeTableRecord
  2
BYLAYER
 70
     0
  3

 72
    65
 73
     0
 40
0.0
  0
LTYPE
  5
13
330
5
100
AcDbSymbolTableRecord
100
AcDbLinetypeTableRecord
  2
CONTINUOUS
 70
     0
  3
Solid line
 72
    65
 73
     0
 40
0.0
  0
ENDTAB
  0
TABLE
  2
LAYER
  5
2
330
0
100
AcDbSymbolTable
 70
     8
  0
LAYER
  5
E
330
2
100
AcDbSymbolTableRecord
100
AcDbLayerTableRecord
  2
0
 70
     0
 62
     7
  6
CONTINUOUS
370
    -3
390
426
  0
LAYER
  5
33
330
2
100
AcDbSymbolTableRecord
100
AcDbLayerTableRecord
  2
BLOQUE
 70
     0
 62
     8
  6
CONTINUOUS
370
    -3
390
426
  0
LAYER
  5
34
330
2
100
AcDbSymbolTableRecord
100
AcDbLayerTableRecord
  2
REFUERZO
 70
     0
 62
     3
  6
CONTINUOUS
370
    -3
390
426
  0
LAYER
  5
35
330
2
100
AcDbSymbolTableRecord
100
AcDbLayerTableRecord
  2
SUELO
 70
     0
 62
     4
  6
CONTINUOUS
370
    -3
390
426
  0
LAYER
  5
36
330
2
100
AcDbSymbolTableRecord
100
AcDbLayerTableRecord
  2
COTAS
 70
     0
 62
     2
  6
CONTINUOUS
370
    -3
390
426
  0
LAYER
  5
37
330
2
100
AcDbSymbolTableRecord
100
AcDbLayerTableRecord
  2
PARED
 70
     0
 62
     7
  6
CONTINUOUS
370
    -3
390
426
  0
LAYER
  5
38
330
2
100
AcDbSymbolTableRecord
100
AcDbLayerTableRecord
  2
SOLERA
 70
     0
 62
     9
  6
CONTINUOUS
370
    -3
390
426
  0
LAYER
  5
39
330
2
100
AcDbSymbolTableRecord
100
AcDbLayerTableRecord
  2
DEFPOINTS
 70
     0
 62
     7
  6
CONTINUOUS
290
     0
370
    -3
390
426
  0
ENDTAB
  0
TABLE
  2
STYLE
  5
3
330
0
100
AcDbSymbolTable
 70
     2
  0
STYLE
  5
F
330
3
100
AcDbSymbolTableRecord
100
AcDbTextStyleTableRecord
  2
STANDARD
 70
     0
 40
0.0
 41
1.0
 50
0.0
 71
     0
 42
0.4
  3
txt
  4

  0
STYLE
  5
30
330
3
100
AcDbSymbolTableRecord
100
AcDbTextStyleTableRecord
  2
ROMANT
 70
     0
 40
0.3
 41
1.0
 50
0.0
 71
     0
 42
0.4
  3
romant
  4

  0
ENDTAB
  0
TABLE
  2
VIEW
  5
6
330
0
100
AcDbSymbolTable
 70
     0
  0
ENDTAB
  0
TABLE
  2
UCS
  5
7
330
0
100
AcDbSymbolTable
 70
     0
  0
ENDTAB
  0
TABLE
  2
APPID
  5
9
330
0
100
AcDbSymbolTable
 70
     1
  0
APPID
  5
10
330
9
100
AcDbSymbolTableRecord
100
AcDbRegAppTableRecord
  2
ACAD
 70
     0
  0
ENDTAB
  0
TABLE
  2
DIMSTYLE
  5
A
330
0
100
AcDbSymbolTable
 70
     1
100
AcDbDimStyleTable
 71
     0
  0
DIMSTYLE
105
41C
330
A
100
AcDbSymbolTableRecord
100
AcDbDimStyleTableRecord
  2
STANDARD
 70
     0
340
F
  0
ENDTAB
  0
TABLE
  2
BLOCK_RECORD
  5
1
330
0
100
AcDbSymbolTable
 70
    17
  0
BLOCK_RECORD
  5
17
330
1
100
AcDbSymbolTableRecord
100
AcDbBlockTableRecord
  2
*MODEL_SPACE
340
429
  0
BLOCK_RECORD
  5
14
330
1
100
AcDbSymbolTableRecord
100
AcDbBlockTableRecord
  2
*PAPER_SPACE
340
42A
  0
BLOCK_RECORD
  5
1C
330
1
100
AcDbSymbolTableRecord
100
AcDbBlockTableRecord
  2
*X0
340
0
102
{BLKREFS
331
34F
102
}
  0
BLOCK_RECORD
  5
1D
330
1
100
AcDbSymbolTableRecord
100
AcDbBlockTableRecord
  2
*X1
340
0
102
{BLKREFS
331
36C
102
}
  0
BLOCK_RECORD
  5
1E
330
1
100
AcDbSymbolTableRecord
100
AcDbBlockTableRecord
  2
*D2
340
0
  0
BLOCK_RECORD
  5
1F
330
1
100
AcDbSymbolTableRecord
100
AcDbBlockTableRecord
  2
*D3
340
0
  0
BLOCK_RECORD
  5
20
330
1
100
AcDbSymbolTableRecord
100
AcDbBlockTableRecord
  2
*D4
340
0
  0
BLOCK_RECORD
  5
21
330
1
100
AcDbSymbolTableRecord
100
AcDbBlockTableRecord
  2
*D5
340
0
  0
BLOCK_RECORD
  5
22
330
1
100
AcDbSymbolTableRecord
100
AcDbBlockTableRecord
  2
*D6
340
0
  0
BLOCK_RECORD
  5
23
330
1
100
AcDbSymbolTableRecord
100
AcDbBlockTableRecord
  2
*D7
340
0
  0
BLOCK_RECORD
  5
24
330
1
100
AcDbSymbolTableRecord
100
AcDbBlockTableRecord
  2
*D8
340
0
  0
BLOCK_RECORD
  5
25
330
1
100
AcDbSymbolTableRecord
100
AcDbBlockTableRecord
  2
*D9
340
0
  0
BLOCK_RECORD
  5
26
330
1
100
AcDbSymbolTableRecord
100
AcDbBlockTableRecord
  2
*D10
340
0
  0
BLOCK_RECORD
  5
27
330
1
100
AcDbSymbolTableRecord
100
AcDbBlockTableRecord
  2
*D11
340
0
  0
BLOCK_RECORD
  5
28
330
1
100
AcDbSymbolTableRecord
100
AcDbBlockTableRecord
  2
*D12
340
0
  0
BLOCK_RECORD
  5
29
330
1
100
AcDbSymbolTableRecord
100
AcDbBlockTableRecord
  2
*D13
340
0
  0
BLOCK_RECORD
  5
2A
330
1
100
AcDbSymbolTableRecord
100
AcDbBlockTableRecord
  2
*D14
340
0
  0
BLOCK_RECORD
  5
2B
330
1
100
AcDbSymbolTableRecord
100
AcDbBlockTableRecord
  2
*X15
340
0
102
{BLKREFS
331
3D5
102
}
  0
BLOCK_RECORD
  5
2F
330
1
100
AcDbSymbolTableRecord
100
AcDbBlockTableRecord
  2
*D16
340
0
  0
ENDTAB
  0
ENDSEC
  0
SECTION
  2
BLOCKS
  0
BLOCK
  5
3C
330
17
100
AcDbEntity
  8
0
100
AcDbBlockBegin
  2
*MODEL_SPACE
 70
     0
 10
0.0
 20
0.0
 30
0.0
  3
*MODEL_SPACE
  1

  0
ENDBLK
  5
3D
330
17
100
AcDbEntity
  8
0
100
AcDbBlockEnd
  0
BLOCK
  5
3A
330
14
100
AcDbEntity
 67
     1
  8
0
100
AcDbBlockBegin
  2
*PAPER_SPACE
 70
     0
 10
0.0
 20
0.0
 30
0.0
  3
*PAPER_SPACE
  1

  0
ENDBLK
  5
3B
330
14
100
AcDbEntity
 67
     1
  8
0
100
AcDbBlockEnd
  0
BLOCK
  5
40
330
1C
100
AcDbEntity
  8
0
100
AcDbBlockBegin
  2
*X0
 70
     1
 10
0.0
 20
0.0
 30
0.0
  3
*X0
  1

  0
LINE
  5
41
330
1C
100
AcDbEntity
  8
0
 62
     0
100
AcDbLine
 10
2.542602074914315
 20
7.649999999999999
 30
0.0
 11
7.942602074914315
 21
7.649999999999999
 31
0.0
  0
LINE
  5
42
330
1C
100
AcDbEntity
  8
0
 62
     0
100
AcDbLine
 10
2.542602074914315
 20
7.862499999999999
 30
0.0
 11
7.942602074914315
 21
7.862499999999999
 31
0.0
  0
LINE
  5
43
330
1C
100
AcDbEntity
  8
0
 62
     0
100
AcDbLine
 10
2.542602074914315
 20
8.074999999999999
 30
0.0
 11
7.942602074914315
 21
8.074999999999999
 31
0.0
  0
LINE
  5
44
330
1C
100
AcDbEntity
  8
0
 62
     0
100
AcDbLine
 10
2.542602074914315
 20
8.287499999999999
 30
0.0
 11
7.942602074914315
 21
8.287499999999999
 31
0.0
  0
LINE
  5
45
330
1C
100
AcDbEntity
  8
0
 62
     0
100
AcDbLine
 10
2.542602074914315
 20
8.5
 30
0.0
 11
7.942602074914315
 21
8.5
 31
0.0
  0
LINE
  5
46
330
1C
100
AcDbEntity
  8
0
 62
     0
100
AcDbLine
 10
2.542602074914315
 20
8.7125
 30
0.0
 11
7.942602074914315
 21
8.7125
 31
0.0
  0
LINE
  5
47
330
1C
100
AcDbEntity
  8
0
 62
     0
100
AcDbLine
 10
2.542602074914315
 20
8.924999999999998
 30
0.0
 11
7.942602074914315
 21
8.924999999999998
 31
0.0
  0
LINE
  5
48
330
1C
100
AcDbEntity
  8
0
 62
     0
100
AcDbLine
 10
2.542602074914315
 20
9.137499999999999
 30
0.0
 11
7.942602074914315
 21
9.137499999999999
 31
0.0
  0
LINE
  5
49
330
1C
100
AcDbEntity
  8
0
 62
     0
100
AcDbLine
 10
2.542602074914315
 20
9.349999999999999
 30
0.0
 11
7.942602074914315
 21
9.349999999999999
 31
0.0
  0
LINE
  5
4A
330
1C
100
AcDbEntity
  8
0
 62
     0
100
AcDbLine
 10
2.542602074914315
 20
7.4375
 30
0.0
 11
7.942602074914315
 21
7.4375
 31
0.0
  0
LINE
  5
4B
330
1C
100
AcDbEntity
  8
0
 62
     0
100
AcDbLine
 10
2.542602074914315
 20
7.224999999999999
 30
0.0
 11
7.942602074914315
 21
7.224999999999999
 31
0.0
  0
LINE
  5
4C
330
1C
100
AcDbEntity
  8
0
 62
     0
100
AcDbLine
 10
2.542602074914315
 20
7.0125
 30
0.0
 11
7.942602074914315
 21
7.0125
 31
0.0
  0
LINE
  5
4D
330
1C
100
AcDbEntity
  8
0
 62
     0
100
AcDbLine
 10
2.542602074914315
 20
6.799999999999999
 30
0.0
 11
7.942602074914315
 21
6.799999999999999
 31
0.0
  0
LINE
  5
4E
330
1C
100
AcDbEntity
  8
0
 62
     0
100
AcDbLine
 10
2.542602074914315
 20
6.587499999999999
 30
0.0
 11
7.942602074914314
 21
6.587499999999999
 31
0.0
  0
LINE
  5
4F
330
1C
100
AcDbEntity
  8
0
 62
     0
100
AcDbLine
 10
2.542602074914315
 20
6.375
 30
0.0
 11
7.942602074914314
 21
6.375
 31
0.0
  0
LINE
  5
50
330
1C
100
AcDbEntity
  8
0
 62
     0
100
AcDbLine
 10
5.099999999999999
 20
6.375
 30
0.0
 11
5.099999999999999
 21
6.5875
 31
0.0
  0
LINE
  5
51
330
1C
100
AcDbEntity
  8
0
 62
     0
100
AcDbLine
 10
5.099999999999999
 20
6.8
 30
0.0
 11
5.099999999999999
 21
7.012500000000001
 31
0.0
  0
LINE
  5
52
330
1C
100
AcDbEntity
  8
0
 62
     0
100
AcDbLine
 10
5.099999999999999
 20
7.225000000000001
 30
0.0
 11
5.099999999999999
 21
7.437500000000001
 31
0.0
  0
LINE
  5
53
330
1C
100
AcDbEntity
  8
0
 62
     0
100
AcDbLine
 10
5.099999999999999
 20
7.650000000000002
 30
0.0
 11
5.099999999999999
 21
7.862500000000002
 31
0.0
  0
LINE
  5
54
330
1C
100
AcDbEntity
  8
0
 62
     0
100
AcDbLine
 10
5.099999999999999
 20
8.075000000000002
 30
0.0
 11
5.099999999999999
 21
8.287500000000003
 31
0.0
  0
LINE
  5
55
330
1C
100
AcDbEntity
  8
0
 62
     0
100
AcDbLine
 10
5.099999999999999
 20
8.500000000000003
 30
0.0
 11
5.099999999999999
 21
8.712500000000003
 31
0.0
  0
LINE
  5
56
330
1C
100
AcDbEntity
  8
0
 62
     0
100
AcDbLine
 10
5.099999999999999
 20
8.925000000000004
 30
0.0
 11
5.099999999999999
 21
9.137500000000004
 31
0.0
  0
LINE
  5
57
330
1C
100
AcDbEntity
  8
0
 62
     0
100
AcDbLine
 10
5.099999999999999
 20
9.350000000000004
 30
0.0
 11
5.099999999999999
 21
9.48980582414209
 31
0.0
  0
LINE
  5
58
330
1C
100
AcDbEntity
  8
0
 62
     0
100
AcDbLine
 10
4.674999999999999
 20
6.375
 30
0.0
 11
4.674999999999999
 21
6.5875
 31
0.0
  0
LINE
  5
59
330
1C
100
AcDbEntity
  8
0
 62
     0
100
AcDbLine
 10
4.674999999999999
 20
6.8
 30
0.0
 11
4.674999999999999
 21
7.012500000000001
 31
0.0
  0
LINE
  5
5A
330
1C
100
AcDbEntity
  8
0
 62
     0
100
AcDbLine
 10
4.674999999999999
 20
7.225000000000001
 30
0.0
 11
4.674999999999999
 21
7.437500000000001
 31
0.0
  0
LINE
  5
5B
330
1C
100
AcDbEntity
  8
0
 62
     0
100
AcDbLine
 10
4.674999999999999
 20
7.650000000000002
 30
0.0
 11
4.674999999999999
 21
7.862500000000002
 31
0.0
  0
LINE
  5
5C
330
1C
100
AcDbEntity
  8
0
 62
     0
100
AcDbLine
 10
4.674999999999999
 20
8.075000000000002
 30
0.0
 11
4.674999999999999
 21
8.287500000000003
 31
0.0
  0
LINE
  5
5D
330
1C
100
AcDbEntity
  8
0
 62
     0
100
AcDbLine
 10
4.674999999999999
 20
8.500000000000003
 30
0.0
 11
4.674999999999999
 21
8.712500000000003
 31
0.0
  0
LINE
  5
5E
330
1C
100
AcDbEntity
  8
0
 62
     0
100
AcDbLine
 10
4.674999999999999
 20
8.925000000000004
 30
0.0
 11
4.674999999999999
 21
9.137500000000004
 31
0.0
  0
LINE
  5
5F
330
1C
100
AcDbEntity
  8
0
 62
     0
100
AcDbLine
 10
4.674999999999999
 20
9.350000000000004
 30
0.0
 11
4.674999999999999
 21
9.48980582414209
 31
0.0
  0
LINE
  5
60
330
1C
100
AcDbEntity
  8
0
 62
     0
100
AcDbLine
 10
4.25
 20
6.375
 30
0.0
 11
4.25
 21
6.5875
 31
0.0
  0
LINE
  5
61
330
1C
100
AcDbEntity
  8
0
 62
     0
100
AcDbLine
 10
4.25
 20
6.8
 30
0.0
 11
4.25
 21
7.012500000000001
 31
0.0
  0
LINE
  5
62
330
1C
100
AcDbEntity
  8
0
 62
     0
100
AcDbLine
 10
4.25
 20
7.225000000000001
 30
0.0
 11
4.25
 21
7.437500000000001
 31
0.0
  0
LINE
  5
63
330
1C
100
AcDbEntity
  8
0
 62
     0
100
AcDbLine
 10
4.25
 20
7.650000000000002
 30
0.0
 11
4.25
 21
7.862500000000002
 31
0.0
  0
LINE
  5
64
330
1C
100
AcDbEntity
  8
0
 62
     0
100
AcDbLine
 10
4.25
 20
8.075000000000002
 30
0.0
 11
4.25
 21
8.287500000000003
 31
0.0
  0
LINE
  5
65
330
1C
100
AcDbEntity
  8
0
 62
     0
100
AcDbLine
 10
4.25
 20
8.500000000000003
 30
0.0
 11
4.25
 21
8.712500000000003
 31
0.0
  0
LINE
  5
66
330
1C
100
AcDbEntity
  8
0
 62
     0
100
AcDbLine
 10
4.25
 20
8.925000000000004
 30
0.0
 11
4.25
 21
9.137500000000004
 31
0.0
  0
LINE
  5
67
330
1C
100
AcDbEntity
  8
0
 62
     0
100
AcDbLine
 10
4.25
 20
9.350000000000004
 30
0.0
 11
4.25
 21
9.48980582414209
 31
0.0
  0
LINE
  5
68
330
1C
100
AcDbEntity
  8
0
 62
     0
100
AcDbLine
 10
3.824999999999999
 20
6.375
 30
0.0
 11
3.824999999999999
 21
6.5875
 31
0.0
  0
LINE
  5
69
330
1C
100
AcDbEntity
  8
0
 62
     0
100
AcDbLine
 10
3.824999999999999
 20
6.8
 30
0.0
 11
3.824999999999999
 21
7.012500000000001
 31
0.0
  0
LINE
  5
6A
330
1C
100
AcDbEntity
  8
0
 62
     0
100
AcDbLine
 10
3.824999999999999
 20
7.225000000000001
 30
0.0
 11
3.824999999999999
 21
7.437500000000001
 31
0.0
  0
LINE
  5
6B
330
1C
100
AcDbEntity
  8
0
 62
     0
100
AcDbLine
 10
3.824999999999999
 20
7.650000000000002
 30
0.0
 11
3.824999999999999
 21
7.862500000000002
 31
0.0
  0
LINE
  5
6C
330
1C
100
AcDbEntity
  8
0
 62
     0
100
AcDbLine
 10
3.824999999999999
 20
8.075000000000002
 30
0.0
 11
3.824999999999999
 21
8.287500000000003
 31
0.0
  0
LINE
  5
6D
330
1C
100
AcDbEntity
  8
0
 62
     0
100
AcDbLine
 10
3.824999999999999
 20
8.500000000000003
 30
0.0
 11
3.824999999999999
 21
8.712500000000003
 31
0.0
  0
LINE
  5
6E
330
1C
100
AcDbEntity
  8
0
 62
     0
100
AcDbLine
 10
3.824999999999999
 20
8.925000000000004
 30
0.0
 11
3.824999999999999
 21
9.137500000000004
 31
0.0
  0
LINE
  5
6F
330
1C
100
AcDbEntity
  8
0
 62
     0
100
AcDbLine
 10
3.824999999999999
 20
9.350000000000004
 30
0.0
 11
3.824999999999999
 21
9.48980582414209
 31
0.0
  0
LINE
  5
70
330
1C
100
AcDbEntity
  8
0
 62
     0
100
AcDbLine
 10
3.399999999999999
 20
6.375
 30
0.0
 11
3.399999999999999
 21
6.5875
 31
0.0
  0
LINE
  5
71
330
1C
100
AcDbEntity
  8
0
 62
     0
100
AcDbLine
 10
3.399999999999999
 20
6.8
 30
0.0
 11
3.399999999999999
 21
7.012500000000001
 31
0.0
  0
LINE
  5
72
330
1C
100
AcDbEntity
  8
0
 62
     0
100
AcDbLine
 10
3.399999999999999
 20
7.225000000000001
 30
0.0
 11
3.399999999999999
 21
7.437500000000001
 31
0.0
  0
LINE
  5
73
330
1C
100
AcDbEntity
  8
0
 62
     0
100
AcDbLine
 10
3.399999999999999
 20
7.650000000000002
 30
0.0
 11
3.399999999999999
 21
7.862500000000002
 31
0.0
  0
LINE
  5
74
330
1C
100
AcDbEntity
  8
0
 62
     0
100
AcDbLine
 10
3.399999999999999
 20
8.075000000000002
 30
0.0
 11
3.399999999999999
 21
8.287500000000003
 31
0.0
  0
LINE
  5
75
330
1C
100
AcDbEntity
  8
0
 62
     0
100
AcDbLine
 10
3.399999999999999
 20
8.500000000000003
 30
0.0
 11
3.399999999999999
 21
8.712500000000003
 31
0.0
  0
LINE
  5
76
330
1C
100
AcDbEntity
  8
0
 62
     0
100
AcDbLine
 10
3.399999999999999
 20
8.925000000000004
 30
0.0
 11
3.399999999999999
 21
9.137500000000004
 31
0.0
  0
LINE
  5
77
330
1C
100
AcDbEntity
  8
0
 62
     0
100
AcDbLine
 10
3.399999999999999
 20
9.350000000000004
 30
0.0
 11
3.399999999999999
 21
9.48980582414209
 31
0.0
  0
LINE
  5
78
330
1C
100
AcDbEntity
  8
0
 62
     0
100
AcDbLine
 10
2.975
 20
6.375
 30
0.0
 11
2.975
 21
6.5875
 31
0.0
  0
LINE
  5
79
330
1C
100
AcDbEntity
  8
0
 62
     0
100
AcDbLine
 10
2.975
 20
6.8
 30
0.0
 11
2.975
 21
7.012500000000001
 31
0.0
  0
LINE
  5
7A
330
1C
100
AcDbEntity
  8
0
 62
     0
100
AcDbLine
 10
2.975
 20
7.225000000000001
 30
0.0
 11
2.975
 21
7.437500000000001
 31
0.0
  0
LINE
  5
7B
330
1C
100
AcDbEntity
  8
0
 62
     0
100
AcDbLine
 10
2.975
 20
7.650000000000002
 30
0.0
 11
2.975
 21
7.862500000000002
 31
0.0
  0
LINE
  5
7C
330
1C
100
AcDbEntity
  8
0
 62
     0
100
AcDbLine
 10
2.975
 20
8.075000000000002
 30
0.0
 11
2.975
 21
8.287500000000003
 31
0.0
  0
LINE
  5
7D
330
1C
100
AcDbEntity
  8
0
 62
     0
100
AcDbLine
 10
2.975
 20
8.500000000000003
 30
0.0
 11
2.975
 21
8.712500000000003
 31
0.0
  0
LINE
  5
7E
330
1C
100
AcDbEntity
  8
0
 62
     0
100
AcDbLine
 10
2.975
 20
8.925000000000004
 30
0.0
 11
2.975
 21
9.137500000000004
 31
0.0
  0
LINE
  5
7F
330
1C
100
AcDbEntity
  8
0
 62
     0
100
AcDbLine
 10
2.975
 20
9.350000000000004
 30
0.0
 11
2.975
 21
9.48980582414209
 31
0.0
  0
LINE
  5
80
330
1C
100
AcDbEntity
  8
0
 62
     0
100
AcDbLine
 10
2.549999999999999
 20
6.375
 30
0.0
 11
2.549999999999999
 21
6.5875
 31
0.0
  0
LINE
  5
81
330
1C
100
AcDbEntity
  8
0
 62
     0
100
AcDbLine
 10
2.549999999999999
 20
6.8
 30
0.0
 11
2.549999999999999
 21
7.012500000000001
 31
0.0
  0
LINE
  5
82
330
1C
100
AcDbEntity
  8
0
 62
     0
100
AcDbLine
 10
2.549999999999999
 20
7.225000000000001
 30
0.0
 11
2.549999999999999
 21
7.437500000000001
 31
0.0
  0
LINE
  5
83
330
1C
100
AcDbEntity
  8
0
 62
     0
100
AcDbLine
 10
2.549999999999999
 20
7.650000000000002
 30
0.0
 11
2.549999999999999
 21
7.862500000000002
 31
0.0
  0
LINE
  5
84
330
1C
100
AcDbEntity
  8
0
 62
     0
100
AcDbLine
 10
2.549999999999999
 20
8.075000000000002
 30
0.0
 11
2.549999999999999
 21
8.287500000000003
 31
0.0
  0
LINE
  5
85
330
1C
100
AcDbEntity
  8
0
 62
     0
100
AcDbLine
 10
2.549999999999999
 20
8.500000000000003
 30
0.0
 11
2.549999999999999
 21
8.712500000000003
 31
0.0
  0
LINE
  5
86
330
1C
100
AcDbEntity
  8
0
 62
     0
100
AcDbLine
 10
2.549999999999999
 20
8.925000000000004
 30
0.0
 11
2.549999999999999
 21
9.137500000000004
 31
0.0
  0
LINE
  5
87
330
1C
100
AcDbEntity
  8
0
 62
     0
100
AcDbLine
 10
2.549999999999999
 20
9.350000000000004
 30
0.0
 11
2.549999999999999
 21
9.48980582414209
 31
0.0
  0
LINE
  5
88
330
1C
100
AcDbEntity
  8
0
 62
     0
100
AcDbLine
 10
5.524999999999999
 20
6.375
 30
0.0
 11
5.524999999999999
 21
6.5875
 31
0.0
  0
LINE
  5
89
330
1C
100
AcDbEntity
  8
0
 62
     0
100
AcDbLine
 10
5.524999999999999
 20
6.8
 30
0.0
 11
5.524999999999999
 21
7.012500000000001
 31
0.0
  0
LINE
  5
8A
330
1C
100
AcDbEntity
  8
0
 62
     0
100
AcDbLine
 10
5.524999999999999
 20
7.225000000000001
 30
0.0
 11
5.524999999999999
 21
7.437500000000001
 31
0.0
  0
LINE
  5
8B
330
1C
100
AcDbEntity
  8
0
 62
     0
100
AcDbLine
 10
5.524999999999999
 20
7.650000000000002
 30
0.0
 11
5.524999999999999
 21
7.862500000000002
 31
0.0
  0
LINE
  5
8C
330
1C
100
AcDbEntity
  8
0
 62
     0
100
AcDbLine
 10
5.524999999999999
 20
8.075000000000002
 30
0.0
 11
5.524999999999999
 21
8.287500000000003
 31
0.0
  0
LINE
  5
8D
330
1C
100
AcDbEntity
  8
0
 62
     0
100
AcDbLine
 10
5.524999999999999
 20
8.500000000000003
 30
0.0
 11
5.524999999999999
 21
8.712500000000003
 31
0.0
  0
LINE
  5
8E
330
1C
100
AcDbEntity
  8
0
 62
     0
100
AcDbLine
 10
5.524999999999999
 20
8.925000000000004
 30
0.0
 11
5.524999999999999
 21
9.137500000000004
 31
0.0
  0
LINE
  5
8F
330
1C
100
AcDbEntity
  8
0
 62
     0
100
AcDbLine
 10
5.524999999999999
 20
9.350000000000004
 30
0.0
 11
5.524999999999999
 21
9.48980582414209
 31
0.0
  0
LINE
  5
90
330
1C
100
AcDbEntity
  8
0
 62
     0
100
AcDbLine
 10
5.95
 20
6.375
 30
0.0
 11
5.95
 21
6.5875
 31
0.0
  0
LINE
  5
91
330
1C
100
AcDbEntity
  8
0
 62
     0
100
AcDbLine
 10
5.95
 20
6.8
 30
0.0
 11
5.95
 21
7.012500000000001
 31
0.0
  0
LINE
  5
92
330
1C
100
AcDbEntity
  8
0
 62
     0
100
AcDbLine
 10
5.95
 20
7.225000000000001
 30
0.0
 11
5.95
 21
7.437500000000001
 31
0.0
  0
LINE
  5
93
330
1C
100
AcDbEntity
  8
0
 62
     0
100
AcDbLine
 10
5.95
 20
7.650000000000002
 30
0.0
 11
5.95
 21
7.862500000000002
 31
0.0
  0
LINE
  5
94
330
1C
100
AcDbEntity
  8
0
 62
     0
100
AcDbLine
 10
5.95
 20
8.075000000000002
 30
0.0
 11
5.95
 21
8.287500000000003
 31
0.0
  0
LINE
  5
95
330
1C
100
AcDbEntity
  8
0
 62
     0
100
AcDbLine
 10
5.95
 20
8.500000000000003
 30
0.0
 11
5.95
 21
8.712500000000003
 31
0.0
  0
LINE
  5
96
330
1C
100
AcDbEntity
  8
0
 62
     0
100
AcDbLine
 10
5.95
 20
8.925000000000004
 30
0.0
 11
5.95
 21
9.137500000000004
 31
0.0
  0
LINE
  5
97
330
1C
100
AcDbEntity
  8
0
 62
     0
100
AcDbLine
 10
5.95
 20
9.350000000000004
 30
0.0
 11
5.95
 21
9.48980582414209
 31
0.0
  0
LINE
  5
98
330
1C
100
AcDbEntity
  8
0
 62
     0
100
AcDbLine
 10
6.375
 20
6.375
 30
0.0
 11
6.375
 21
6.5875
 31
0.0
  0
LINE
  5
99
330
1C
100
AcDbEntity
  8
0
 62
     0
100
AcDbLine
 10
6.375
 20
6.8
 30
0.0
 11
6.375
 21
7.012500000000001
 31
0.0
  0
LINE
  5
9A
330
1C
100
AcDbEntity
  8
0
 62
     0
100
AcDbLine
 10
6.375
 20
7.225000000000001
 30
0.0
 11
6.375
 21
7.437500000000001
 31
0.0
  0
LINE
  5
9B
330
1C
100
AcDbEntity
  8
0
 62
     0
100
AcDbLine
 10
6.375
 20
7.650000000000002
 30
0.0
 11
6.375
 21
7.862500000000002
 31
0.0
  0
LINE
  5
9C
330
1C
100
AcDbEntity
  8
0
 62
     0
100
AcDbLine
 10
6.375
 20
8.075000000000002
 30
0.0
 11
6.375
 21
8.287500000000003
 31
0.0
  0
LINE
  5
9D
330
1C
100
AcDbEntity
  8
0
 62
     0
100
AcDbLine
 10
6.375
 20
8.500000000000003
 30
0.0
 11
6.375
 21
8.712500000000003
 31
0.0
  0
LINE
  5
9E
330
1C
100
AcDbEntity
  8
0
 62
     0
100
AcDbLine
 10
6.375
 20
8.925000000000004
 30
0.0
 11
6.375
 21
9.137500000000004
 31
0.0
  0
LINE
  5
9F
330
1C
100
AcDbEntity
  8
0
 62
     0
100
AcDbLine
 10
6.375
 20
9.350000000000004
 30
0.0
 11
6.375
 21
9.48980582414209
 31
0.0
  0
LINE
  5
A0
330
1C
100
AcDbEntity
  8
0
 62
     0
100
AcDbLine
 10
6.799999999999999
 20
6.375
 30
0.0
 11
6.799999999999999
 21
6.5875
 31
0.0
  0
LINE
  5
A1
330
1C
100
AcDbEntity
  8
0
 62
     0
100
AcDbLine
 10
6.799999999999999
 20
6.8
 30
0.0
 11
6.799999999999999
 21
7.012500000000001
 31
0.0
  0
LINE
  5
A2
330
1C
100
AcDbEntity
  8
0
 62
     0
100
AcDbLine
 10
6.799999999999999
 20
7.225000000000001
 30
0.0
 11
6.799999999999999
 21
7.437500000000001
 31
0.0
  0
LINE
  5
A3
330
1C
100
AcDbEntity
  8
0
 62
     0
100
AcDbLine
 10
6.799999999999999
 20
7.650000000000002
 30
0.0
 11
6.799999999999999
 21
7.862500000000002
 31
0.0
  0
LINE
  5
A4
330
1C
100
AcDbEntity
  8
0
 62
     0
100
AcDbLine
 10
6.799999999999999
 20
8.075000000000002
 30
0.0
 11
6.799999999999999
 21
8.287500000000003
 31
0.0
  0
LINE
  5
A5
330
1C
100
AcDbEntity
  8
0
 62
     0
100
AcDbLine
 10
6.799999999999999
 20
8.500000000000003
 30
0.0
 11
6.799999999999999
 21
8.712500000000003
 31
0.0
  0
LINE
  5
A6
330
1C
100
AcDbEntity
  8
0
 62
     0
100
AcDbLine
 10
6.799999999999999
 20
8.925000000000004
 30
0.0
 11
6.799999999999999
 21
9.137500000000004
 31
0.0
  0
LINE
  5
A7
330
1C
100
AcDbEntity
  8
0
 62
     0
100
AcDbLine
 10
6.799999999999999
 20
9.350000000000004
 30
0.0
 11
6.799999999999999
 21
9.48980582414209
 31
0.0
  0
LINE
  5
A8
330
1C
100
AcDbEntity
  8
0
 62
     0
100
AcDbLine
 10
7.224999999999999
 20
6.375
 30
0.0
 11
7.224999999999999
 21
6.5875
 31
0.0
  0
LINE
  5
A9
330
1C
100
AcDbEntity
  8
0
 62
     0
100
AcDbLine
 10
7.224999999999999
 20
6.8
 30
0.0
 11
7.224999999999999
 21
7.012500000000001
 31
0.0
  0
LINE
  5
AA
330
1C
100
AcDbEntity
  8
0
 62
     0
100
AcDbLine
 10
7.224999999999999
 20
7.225000000000001
 30
0.0
 11
7.224999999999999
 21
7.437500000000001
 31
0.0
  0
LINE
  5
AB
330
1C
100
AcDbEntity
  8
0
 62
     0
100
AcDbLine
 10
7.224999999999999
 20
7.650000000000002
 30
0.0
 11
7.224999999999999
 21
7.862500000000002
 31
0.0
  0
LINE
  5
AC
330
1C
100
AcDbEntity
  8
0
 62
     0
100
AcDbLine
 10
7.224999999999999
 20
8.075000000000002
 30
0.0
 11
7.224999999999999
 21
8.287500000000003
 31
0.0
  0
LINE
  5
AD
330
1C
100
AcDbEntity
  8
0
 62
     0
100
AcDbLine
 10
7.224999999999999
 20
8.500000000000003
 30
0.0
 11
7.224999999999999
 21
8.712500000000003
 31
0.0
  0
LINE
  5
AE
330
1C
100
AcDbEntity
  8
0
 62
     0
100
AcDbLine
 10
7.224999999999999
 20
8.925000000000004
 30
0.0
 11
7.224999999999999
 21
9.137500000000004
 31
0.0
  0
LINE
  5
AF
330
1C
100
AcDbEntity
  8
0
 62
     0
100
AcDbLine
 10
7.224999999999999
 20
9.350000000000004
 30
0.0
 11
7.224999999999999
 21
9.48980582414209
 31
0.0
  0
LINE
  5
B0
330
1C
100
AcDbEntity
  8
0
 62
     0
100
AcDbLine
 10
7.649999999999999
 20
6.375
 30
0.0
 11
7.649999999999999
 21
6.5875
 31
0.0
  0
LINE
  5
B1
330
1C
100
AcDbEntity
  8
0
 62
     0
100
AcDbLine
 10
7.649999999999999
 20
6.8
 30
0.0
 11
7.649999999999999
 21
7.012500000000001
 31
0.0
  0
LINE
  5
B2
330
1C
100
AcDbEntity
  8
0
 62
     0
100
AcDbLine
 10
7.649999999999999
 20
7.225000000000001
 30
0.0
 11
7.649999999999999
 21
7.437500000000001
 31
0.0
  0
LINE
  5
B3
330
1C
100
AcDbEntity
  8
0
 62
     0
100
AcDbLine
 10
7.649999999999999
 20
7.650000000000002
 30
0.0
 11
7.649999999999999
 21
7.862500000000002
 31
0.0
  0
LINE
  5
B4
330
1C
100
AcDbEntity
  8
0
 62
     0
100
AcDbLine
 10
7.649999999999999
 20
8.075000000000002
 30
0.0
 11
7.649999999999999
 21
8.287500000000003
 31
0.0
  0
LINE
  5
B5
330
1C
100
AcDbEntity
  8
0
 62
     0
100
AcDbLine
 10
7.649999999999999
 20
8.500000000000003
 30
0.0
 11
7.649999999999999
 21
8.712500000000003
 31
0.0
  0
LINE
  5
B6
330
1C
100
AcDbEntity
  8
0
 62
     0
100
AcDbLine
 10
7.649999999999999
 20
8.925000000000004
 30
0.0
 11
7.649999999999999
 21
9.137500000000004
 31
0.0
  0
LINE
  5
B7
330
1C
100
AcDbEntity
  8
0
 62
     0
100
AcDbLine
 10
7.649999999999999
 20
9.350000000000004
 30
0.0
 11
7.649999999999999
 21
9.48980582414209
 31
0.0
  0
LINE
  5
B8
330
1C
100
AcDbEntity
  8
0
 62
     0
100
AcDbLine
 10
4.8875
 20
6.189805824142084
 30
0.0
 11
4.8875
 21
6.375
 31
0.0
  0
LINE
  5
B9
330
1C
100
AcDbEntity
  8
0
 62
     0
100
AcDbLine
 10
4.8875
 20
6.5875
 30
0.0
 11
4.8875
 21
6.8
 31
0.0
  0
LINE
  5
BA
330
1C
100
AcDbEntity
  8
0
 62
     0
100
AcDbLine
 10
4.8875
 20
7.012500000000001
 30
0.0
 11
4.8875
 21
7.225000000000001
 31
0.0
  0
LINE
  5
BB
330
1C
100
AcDbEntity
  8
0
 62
     0
100
AcDbLine
 10
4.8875
 20
7.437500000000001
 30
0.0
 11
4.8875
 21
7.650000000000002
 31
0.0
  0
LINE
  5
BC
330
1C
100
AcDbEntity
  8
0
 62
     0
100
AcDbLine
 10
4.8875
 20
7.862500000000002
 30
0.0
 11
4.8875
 21
8.075000000000002
 31
0.0
  0
LINE
  5
BD
330
1C
100
AcDbEntity
  8
0
 62
     0
100
AcDbLine
 10
4.8875
 20
8.287500000000003
 30
0.0
 11
4.8875
 21
8.500000000000003
 31
0.0
  0
LINE
  5
BE
330
1C
100
AcDbEntity
  8
0
 62
     0
100
AcDbLine
 10
4.8875
 20
8.712500000000003
 30
0.0
 11
4.8875
 21
8.925000000000004
 31
0.0
  0
LINE
  5
BF
330
1C
100
AcDbEntity
  8
0
 62
     0
100
AcDbLine
 10
4.8875
 20
9.137500000000004
 30
0.0
 11
4.8875
 21
9.350000000000004
 31
0.0
  0
LINE
  5
C0
330
1C
100
AcDbEntity
  8
0
 62
     0
100
AcDbLine
 10
4.462499999999999
 20
6.189805824142084
 30
0.0
 11
4.462499999999999
 21
6.375
 31
0.0
  0
LINE
  5
C1
330
1C
100
AcDbEntity
  8
0
 62
     0
100
AcDbLine
 10
4.462499999999999
 20
6.5875
 30
0.0
 11
4.462499999999999
 21
6.8
 31
0.0
  0
LINE
  5
C2
330
1C
100
AcDbEntity
  8
0
 62
     0
100
AcDbLine
 10
4.462499999999999
 20
7.012500000000001
 30
0.0
 11
4.462499999999999
 21
7.225000000000001
 31
0.0
  0
LINE
  5
C3
330
1C
100
AcDbEntity
  8
0
 62
     0
100
AcDbLine
 10
4.462499999999999
 20
7.437500000000001
 30
0.0
 11
4.462499999999999
 21
7.650000000000002
 31
0.0
  0
LINE
  5
C4
330
1C
100
AcDbEntity
  8
0
 62
     0
100
AcDbLine
 10
4.462499999999999
 20
7.862500000000002
 30
0.0
 11
4.462499999999999
 21
8.075000000000002
 31
0.0
  0
LINE
  5
C5
330
1C
100
AcDbEntity
  8
0
 62
     0
100
AcDbLine
 10
4.462499999999999
 20
8.287500000000003
 30
0.0
 11
4.462499999999999
 21
8.500000000000003
 31
0.0
  0
LINE
  5
C6
330
1C
100
AcDbEntity
  8
0
 62
     0
100
AcDbLine
 10
4.462499999999999
 20
8.712500000000003
 30
0.0
 11
4.462499999999999
 21
8.925000000000004
 31
0.0
  0
LINE
  5
C7
330
1C
100
AcDbEntity
  8
0
 62
     0
100
AcDbLine
 10
4.462499999999999
 20
9.137500000000004
 30
0.0
 11
4.462499999999999
 21
9.350000000000004
 31
0.0
  0
LINE
  5
C8
330
1C
100
AcDbEntity
  8
0
 62
     0
100
AcDbLine
 10
4.037499999999999
 20
6.189805824142084
 30
0.0
 11
4.037499999999999
 21
6.375
 31
0.0
  0
LINE
  5
C9
330
1C
100
AcDbEntity
  8
0
 62
     0
100
AcDbLine
 10
4.037499999999999
 20
6.5875
 30
0.0
 11
4.037499999999999
 21
6.8
 31
0.0
  0
LINE
  5
CA
330
1C
100
AcDbEntity
  8
0
 62
     0
100
AcDbLine
 10
4.037499999999999
 20
7.012500000000001
 30
0.0
 11
4.037499999999999
 21
7.225000000000001
 31
0.0
  0
LINE
  5
CB
330
1C
100
AcDbEntity
  8
0
 62
     0
100
AcDbLine
 10
4.037499999999999
 20
7.437500000000001
 30
0.0
 11
4.037499999999999
 21
7.650000000000002
 31
0.0
  0
LINE
  5
CC
330
1C
100
AcDbEntity
  8
0
 62
     0
100
AcDbLine
 10
4.037499999999999
 20
7.862500000000002
 30
0.0
 11
4.037499999999999
 21
8.075000000000002
 31
0.0
  0
LINE
  5
CD
330
1C
100
AcDbEntity
  8
0
 62
     0
100
AcDbLine
 10
4.037499999999999
 20
8.287500000000003
 30
0.0
 11
4.037499999999999
 21
8.500000000000003
 31
0.0
  0
LINE
  5
CE
330
1C
100
AcDbEntity
  8
0
 62
     0
100
AcDbLine
 10
4.037499999999999
 20
8.712500000000003
 30
0.0
 11
4.037499999999999
 21
8.925000000000004
 31
0.0
  0
LINE
  5
CF
330
1C
100
AcDbEntity
  8
0
 62
     0
100
AcDbLine
 10
4.037499999999999
 20
9.137500000000004
 30
0.0
 11
4.037499999999999
 21
9.350000000000004
 31
0.0
  0
LINE
  5
D0
330
1C
100
AcDbEntity
  8
0
 62
     0
100
AcDbLine
 10
3.612499999999999
 20
6.189805824142084
 30
0.0
 11
3.612499999999999
 21
6.375
 31
0.0
  0
LINE
  5
D1
330
1C
100
AcDbEntity
  8
0
 62
     0
100
AcDbLine
 10
3.612499999999999
 20
6.5875
 30
0.0
 11
3.612499999999999
 21
6.8
 31
0.0
  0
LINE
  5
D2
330
1C
100
AcDbEntity
  8
0
 62
     0
100
AcDbLine
 10
3.612499999999999
 20
7.012500000000001
 30
0.0
 11
3.612499999999999
 21
7.225000000000001
 31
0.0
  0
LINE
  5
D3
330
1C
100
AcDbEntity
  8
0
 62
     0
100
AcDbLine
 10
3.612499999999999
 20
7.437500000000001
 30
0.0
 11
3.612499999999999
 21
7.650000000000002
 31
0.0
  0
LINE
  5
D4
330
1C
100
AcDbEntity
  8
0
 62
     0
100
AcDbLine
 10
3.612499999999999
 20
7.862500000000002
 30
0.0
 11
3.612499999999999
 21
8.075000000000002
 31
0.0
  0
LINE
  5
D5
330
1C
100
AcDbEntity
  8
0
 62
     0
100
AcDbLine
 10
3.612499999999999
 20
8.287500000000003
 30
0.0
 11
3.612499999999999
 21
8.500000000000003
 31
0.0
  0
LINE
  5
D6
330
1C
100
AcDbEntity
  8
0
 62
     0
100
AcDbLine
 10
3.612499999999999
 20
8.712500000000003
 30
0.0
 11
3.612499999999999
 21
8.925000000000004
 31
0.0
  0
LINE
  5
D7
330
1C
100
AcDbEntity
  8
0
 62
     0
100
AcDbLine
 10
3.612499999999999
 20
9.137500000000004
 30
0.0
 11
3.612499999999999
 21
9.350000000000004
 31
0.0
  0
LINE
  5
D8
330
1C
100
AcDbEntity
  8
0
 62
     0
100
AcDbLine
 10
3.1875
 20
6.189805824142084
 30
0.0
 11
3.1875
 21
6.375
 31
0.0
  0
LINE
  5
D9
330
1C
100
AcDbEntity
  8
0
 62
     0
100
AcDbLine
 10
3.1875
 20
6.5875
 30
0.0
 11
3.1875
 21
6.8
 31
0.0
  0
LINE
  5
DA
330
1C
100
AcDbEntity
  8
0
 62
     0
100
AcDbLine
 10
3.1875
 20
7.012500000000001
 30
0.0
 11
3.1875
 21
7.225000000000001
 31
0.0
  0
LINE
  5
DB
330
1C
100
AcDbEntity
  8
0
 62
     0
100
AcDbLine
 10
3.1875
 20
7.437500000000001
 30
0.0
 11
3.1875
 21
7.650000000000002
 31
0.0
  0
LINE
  5
DC
330
1C
100
AcDbEntity
  8
0
 62
     0
100
AcDbLine
 10
3.1875
 20
7.862500000000002
 30
0.0
 11
3.1875
 21
8.075000000000002
 31
0.0
  0
LINE
  5
DD
330
1C
100
AcDbEntity
  8
0
 62
     0
100
AcDbLine
 10
3.1875
 20
8.287500000000003
 30
0.0
 11
3.1875
 21
8.500000000000003
 31
0.0
  0
LINE
  5
DE
330
1C
100
AcDbEntity
  8
0
 62
     0
100
AcDbLine
 10
3.1875
 20
8.712500000000003
 30
0.0
 11
3.1875
 21
8.925000000000004
 31
0.0
  0
LINE
  5
DF
330
1C
100
AcDbEntity
  8
0
 62
     0
100
AcDbLine
 10
3.1875
 20
9.137500000000004
 30
0.0
 11
3.1875
 21
9.350000000000004
 31
0.0
  0
LINE
  5
E0
330
1C
100
AcDbEntity
  8
0
 62
     0
100
AcDbLine
 10
2.762499999999999
 20
6.189805824142085
 30
0.0
 11
2.762499999999999
 21
6.375
 31
0.0
  0
LINE
  5
E1
330
1C
100
AcDbEntity
  8
0
 62
     0
100
AcDbLine
 10
2.762499999999999
 20
6.5875
 30
0.0
 11
2.762499999999999
 21
6.8
 31
0.0
  0
LINE
  5
E2
330
1C
100
AcDbEntity
  8
0
 62
     0
100
AcDbLine
 10
2.762499999999999
 20
7.012500000000001
 30
0.0
 11
2.762499999999999
 21
7.225000000000001
 31
0.0
  0
LINE
  5
E3
330
1C
100
AcDbEntity
  8
0
 62
     0
100
AcDbLine
 10
2.762499999999999
 20
7.437500000000001
 30
0.0
 11
2.762499999999999
 21
7.650000000000002
 31
0.0
  0
LINE
  5
E4
330
1C
100
AcDbEntity
  8
0
 62
     0
100
AcDbLine
 10
2.762499999999999
 20
7.862500000000002
 30
0.0
 11
2.762499999999999
 21
8.075000000000002
 31
0.0
  0
LINE
  5
E5
330
1C
100
AcDbEntity
  8
0
 62
     0
100
AcDbLine
 10
2.762499999999999
 20
8.287500000000003
 30
0.0
 11
2.762499999999999
 21
8.500000000000003
 31
0.0
  0
LINE
  5
E6
330
1C
100
AcDbEntity
  8
0
 62
     0
100
AcDbLine
 10
2.762499999999999
 20
8.712500000000003
 30
0.0
 11
2.762499999999999
 21
8.925000000000004
 31
0.0
  0
LINE
  5
E7
330
1C
100
AcDbEntity
  8
0
 62
     0
100
AcDbLine
 10
2.762499999999999
 20
9.137500000000004
 30
0.0
 11
2.762499999999999
 21
9.350000000000004
 31
0.0
  0
LINE
  5
E8
330
1C
100
AcDbEntity
  8
0
 62
     0
100
AcDbLine
 10
5.3125
 20
6.189805824142084
 30
0.0
 11
5.3125
 21
6.375
 31
0.0
  0
LINE
  5
E9
330
1C
100
AcDbEntity
  8
0
 62
     0
100
AcDbLine
 10
5.3125
 20
6.5875
 30
0.0
 11
5.3125
 21
6.8
 31
0.0
  0
LINE
  5
EA
330
1C
100
AcDbEntity
  8
0
 62
     0
100
AcDbLine
 10
5.3125
 20
7.012500000000001
 30
0.0
 11
5.3125
 21
7.225000000000001
 31
0.0
  0
LINE
  5
EB
330
1C
100
AcDbEntity
  8
0
 62
     0
100
AcDbLine
 10
5.3125
 20
7.437500000000001
 30
0.0
 11
5.3125
 21
7.650000000000002
 31
0.0
  0
LINE
  5
EC
330
1C
100
AcDbEntity
  8
0
 62
     0
100
AcDbLine
 10
5.3125
 20
7.862500000000002
 30
0.0
 11
5.3125
 21
8.075000000000002
 31
0.0
  0
LINE
  5
ED
330
1C
100
AcDbEntity
  8
0
 62
     0
100
AcDbLine
 10
5.3125
 20
8.287500000000003
 30
0.0
 11
5.3125
 21
8.500000000000003
 31
0.0
  0
LINE
  5
EE
330
1C
100
AcDbEntity
  8
0
 62
     0
100
AcDbLine
 10
5.3125
 20
8.712500000000003
 30
0.0
 11
5.3125
 21
8.925000000000004
 31
0.0
  0
LINE
  5
EF
330
1C
100
AcDbEntity
  8
0
 62
     0
100
AcDbLine
 10
5.3125
 20
9.137500000000004
 30
0.0
 11
5.3125
 21
9.350000000000004
 31
0.0
  0
LINE
  5
F0
330
1C
100
AcDbEntity
  8
0
 62
     0
100
AcDbLine
 10
5.737499999999999
 20
6.189805824142083
 30
0.0
 11
5.737499999999999
 21
6.375
 31
0.0
  0
LINE
  5
F1
330
1C
100
AcDbEntity
  8
0
 62
     0
100
AcDbLine
 10
5.737499999999999
 20
6.5875
 30
0.0
 11
5.737499999999999
 21
6.8
 31
0.0
  0
LINE
  5
F2
330
1C
100
AcDbEntity
  8
0
 62
     0
100
AcDbLine
 10
5.737499999999999
 20
7.012500000000001
 30
0.0
 11
5.737499999999999
 21
7.225000000000001
 31
0.0
  0
LINE
  5
F3
330
1C
100
AcDbEntity
  8
0
 62
     0
100
AcDbLine
 10
5.737499999999999
 20
7.437500000000001
 30
0.0
 11
5.737499999999999
 21
7.650000000000002
 31
0.0
  0
LINE
  5
F4
330
1C
100
AcDbEntity
  8
0
 62
     0
100
AcDbLine
 10
5.737499999999999
 20
7.862500000000002
 30
0.0
 11
5.737499999999999
 21
8.075000000000002
 31
0.0
  0
LINE
  5
F5
330
1C
100
AcDbEntity
  8
0
 62
     0
100
AcDbLine
 10
5.737499999999999
 20
8.287500000000003
 30
0.0
 11
5.737499999999999
 21
8.500000000000003
 31
0.0
  0
LINE
  5
F6
330
1C
100
AcDbEntity
  8
0
 62
     0
100
AcDbLine
 10
5.737499999999999
 20
8.712500000000003
 30
0.0
 11
5.737499999999999
 21
8.925000000000004
 31
0.0
  0
LINE
  5
F7
330
1C
100
AcDbEntity
  8
0
 62
     0
100
AcDbLine
 10
5.737499999999999
 20
9.137500000000004
 30
0.0
 11
5.737499999999999
 21
9.350000000000004
 31
0.0
  0
LINE
  5
F8
330
1C
100
AcDbEntity
  8
0
 62
     0
100
AcDbLine
 10
6.162499999999999
 20
6.189805824142083
 30
0.0
 11
6.162499999999999
 21
6.375
 31
0.0
  0
LINE
  5
F9
330
1C
100
AcDbEntity
  8
0
 62
     0
100
AcDbLine
 10
6.162499999999999
 20
6.5875
 30
0.0
 11
6.162499999999999
 21
6.8
 31
0.0
  0
LINE
  5
FA
330
1C
100
AcDbEntity
  8
0
 62
     0
100
AcDbLine
 10
6.162499999999999
 20
7.012500000000001
 30
0.0
 11
6.162499999999999
 21
7.225000000000001
 31
0.0
  0
LINE
  5
FB
330
1C
100
AcDbEntity
  8
0
 62
     0
100
AcDbLine
 10
6.162499999999999
 20
7.437500000000001
 30
0.0
 11
6.162499999999999
 21
7.650000000000002
 31
0.0
  0
LINE
  5
FC
330
1C
100
AcDbEntity
  8
0
 62
     0
100
AcDbLine
 10
6.162499999999999
 20
7.862500000000002
 30
0.0
 11
6.162499999999999
 21
8.075000000000002
 31
0.0
  0
LINE
  5
FD
330
1C
100
AcDbEntity
  8
0
 62
     0
100
AcDbLine
 10
6.162499999999999
 20
8.287500000000003
 30
0.0
 11
6.162499999999999
 21
8.500000000000003
 31
0.0
  0
LINE
  5
FE
330
1C
100
AcDbEntity
  8
0
 62
     0
100
AcDbLine
 10
6.162499999999999
 20
8.712500000000003
 30
0.0
 11
6.162499999999999
 21
8.925000000000004
 31
0.0
  0
LINE
  5
FF
330
1C
100
AcDbEntity
  8
0
 62
     0
100
AcDbLine
 10
6.162499999999999
 20
9.137500000000004
 30
0.0
 11
6.162499999999999
 21
9.350000000000004
 31
0.0
  0
LINE
  5
100
330
1C
100
AcDbEntity
  8
0
 62
     0
100
AcDbLine
 10
6.587499999999999
 20
6.189805824142083
 30
0.0
 11
6.587499999999999
 21
6.375
 31
0.0
  0
LINE
  5
101
330
1C
100
AcDbEntity
  8
0
 62
     0
100
AcDbLine
 10
6.587499999999999
 20
6.5875
 30
0.0
 11
6.587499999999999
 21
6.8
 31
0.0
  0
LINE
  5
102
330
1C
100
AcDbEntity
  8
0
 62
     0
100
AcDbLine
 10
6.587499999999999
 20
7.012500000000001
 30
0.0
 11
6.587499999999999
 21
7.225000000000001
 31
0.0
  0
LINE
  5
103
330
1C
100
AcDbEntity
  8
0
 62
     0
100
AcDbLine
 10
6.587499999999999
 20
7.437500000000001
 30
0.0
 11
6.587499999999999
 21
7.650000000000002
 31
0.0
  0
LINE
  5
104
330
1C
100
AcDbEntity
  8
0
 62
     0
100
AcDbLine
 10
6.587499999999999
 20
7.862500000000002
 30
0.0
 11
6.587499999999999
 21
8.075000000000002
 31
0.0
  0
LINE
  5
105
330
1C
100
AcDbEntity
  8
0
 62
     0
100
AcDbLine
 10
6.587499999999999
 20
8.287500000000003
 30
0.0
 11
6.587499999999999
 21
8.500000000000003
 31
0.0
  0
LINE
  5
106
330
1C
100
AcDbEntity
  8
0
 62
     0
100
AcDbLine
 10
6.587499999999999
 20
8.712500000000003
 30
0.0
 11
6.587499999999999
 21
8.925000000000004
 31
0.0
  0
LINE
  5
107
330
1C
100
AcDbEntity
  8
0
 62
     0
100
AcDbLine
 10
6.587499999999999
 20
9.137500000000004
 30
0.0
 11
6.587499999999999
 21
9.350000000000004
 31
0.0
  0
LINE
  5
108
330
1C
100
AcDbEntity
  8
0
 62
     0
100
AcDbLine
 10
7.0125
 20
6.189805824142083
 30
0.0
 11
7.0125
 21
6.375
 31
0.0
  0
LINE
  5
109
330
1C
100
AcDbEntity
  8
0
 62
     0
100
AcDbLine
 10
7.0125
 20
6.5875
 30
0.0
 11
7.0125
 21
6.8
 31
0.0
  0
LINE
  5
10A
330
1C
100
AcDbEntity
  8
0
 62
     0
100
AcDbLine
 10
7.0125
 20
7.012500000000001
 30
0.0
 11
7.0125
 21
7.225000000000001
 31
0.0
  0
LINE
  5
10B
330
1C
100
AcDbEntity
  8
0
 62
     0
100
AcDbLine
 10
7.0125
 20
7.437500000000001
 30
0.0
 11
7.0125
 21
7.650000000000002
 31
0.0
  0
LINE
  5
10C
330
1C
100
AcDbEntity
  8
0
 62
     0
100
AcDbLine
 10
7.0125
 20
7.862500000000002
 30
0.0
 11
7.0125
 21
8.075000000000002
 31
0.0
  0
LINE
  5
10D
330
1C
100
AcDbEntity
  8
0
 62
     0
100
AcDbLine
 10
7.0125
 20
8.287500000000003
 30
0.0
 11
7.0125
 21
8.500000000000003
 31
0.0
  0
LINE
  5
10E
330
1C
100
AcDbEntity
  8
0
 62
     0
100
AcDbLine
 10
7.0125
 20
8.712500000000003
 30
0.0
 11
7.0125
 21
8.925000000000004
 31
0.0
  0
LINE
  5
10F
330
1C
100
AcDbEntity
  8
0
 62
     0
100
AcDbLine
 10
7.0125
 20
9.137500000000004
 30
0.0
 11
7.0125
 21
9.350000000000004
 31
0.0
  0
LINE
  5
110
330
1C
100
AcDbEntity
  8
0
 62
     0
100
AcDbLine
 10
7.4375
 20
6.189805824142083
 30
0.0
 11
7.4375
 21
6.375
 31
0.0
  0
LINE
  5
111
330
1C
100
AcDbEntity
  8
0
 62
     0
100
AcDbLine
 10
7.4375
 20
6.5875
 30
0.0
 11
7.4375
 21
6.8
 31
0.0
  0
LINE
  5
112
330
1C
100
AcDbEntity
  8
0
 62
     0
100
AcDbLine
 10
7.4375
 20
7.012500000000001
 30
0.0
 11
7.4375
 21
7.225000000000001
 31
0.0
  0
LINE
  5
113
330
1C
100
AcDbEntity
  8
0
 62
     0
100
AcDbLine
 10
7.4375
 20
7.437500000000001
 30
0.0
 11
7.4375
 21
7.650000000000002
 31
0.0
  0
LINE
  5
114
330
1C
100
AcDbEntity
  8
0
 62
     0
100
AcDbLine
 10
7.4375
 20
7.862500000000002
 30
0.0
 11
7.4375
 21
8.075000000000002
 31
0.0
  0
LINE
  5
115
330
1C
100
AcDbEntity
  8
0
 62
     0
100
AcDbLine
 10
7.4375
 20
8.287500000000003
 30
0.0
 11
7.4375
 21
8.500000000000003
 31
0.0
  0
LINE
  5
116
330
1C
100
AcDbEntity
  8
0
 62
     0
100
AcDbLine
 10
7.4375
 20
8.712500000000003
 30
0.0
 11
7.4375
 21
8.925000000000004
 31
0.0
  0
LINE
  5
117
330
1C
100
AcDbEntity
  8
0
 62
     0
100
AcDbLine
 10
7.4375
 20
9.137500000000004
 30
0.0
 11
7.4375
 21
9.350000000000004
 31
0.0
  0
LINE
  5
118
330
1C
100
AcDbEntity
  8
0
 62
     0
100
AcDbLine
 10
7.862499999999999
 20
6.189805824142083
 30
0.0
 11
7.862499999999999
 21
6.375
 31
0.0
  0
LINE
  5
119
330
1C
100
AcDbEntity
  8
0
 62
     0
100
AcDbLine
 10
7.862499999999999
 20
6.5875
 30
0.0
 11
7.862499999999999
 21
6.8
 31
0.0
  0
LINE
  5
11A
330
1C
100
AcDbEntity
  8
0
 62
     0
100
AcDbLine
 10
7.862499999999999
 20
7.012500000000001
 30
0.0
 11
7.862499999999999
 21
7.225000000000001
 31
0.0
  0
LINE
  5
11B
330
1C
100
AcDbEntity
  8
0
 62
     0
100
AcDbLine
 10
7.862499999999999
 20
7.437500000000001
 30
0.0
 11
7.862499999999999
 21
7.650000000000002
 31
0.0
  0
LINE
  5
11C
330
1C
100
AcDbEntity
  8
0
 62
     0
100
AcDbLine
 10
7.862499999999999
 20
7.862500000000002
 30
0.0
 11
7.862499999999999
 21
8.075000000000002
 31
0.0
  0
LINE
  5
11D
330
1C
100
AcDbEntity
  8
0
 62
     0
100
AcDbLine
 10
7.862499999999999
 20
8.287500000000003
 30
0.0
 11
7.862499999999999
 21
8.500000000000003
 31
0.0
  0
LINE
  5
11E
330
1C
100
AcDbEntity
  8
0
 62
     0
100
AcDbLine
 10
7.862499999999999
 20
8.712500000000003
 30
0.0
 11
7.862499999999999
 21
8.925000000000004
 31
0.0
  0
LINE
  5
11F
330
1C
100
AcDbEntity
  8
0
 62
     0
100
AcDbLine
 10
7.862499999999999
 20
9.137500000000004
 30
0.0
 11
7.862499999999999
 21
9.350000000000004
 31
0.0
  0
ENDBLK
  5
120
330
1C
100
AcDbEntity
  8
0
100
AcDbBlockEnd
  0
BLOCK
  5
121
330
1D
100
AcDbEntity
  8
0
100
AcDbBlockBegin
  2
*X1
 70
     1
 10
0.0
 20
0.0
 30
0.0
  3
*X1
  1

  0
LINE
  5
122
330
1D
100
AcDbEntity
  8
0
 62
     0
100
AcDbLine
 10
5.565209729761346
 20
6.173583921772425
 30
0.0
 11
5.57882152205672
 21
6.189805824142084
 31
0.0
  0
LINE
  5
123
330
1D
100
AcDbEntity
  8
0
 62
     0
100
AcDbLine
 10
5.923839821061722
 20
6.142207854281127
 30
0.0
 11
5.947944356424968
 21
6.170934520898089
 31
0.0
  0
LINE
  5
124
330
1D
100
AcDbEntity
  8
0
 62
     0
100
AcDbLine
 10
6.2824699123621
 20
6.110831786789828
 30
0.0
 11
6.306574447725346
 21
6.13955845340679
 31
0.0
  0
LINE
  5
125
330
1D
100
AcDbEntity
  8
0
 62
     0
100
AcDbLine
 10
6.641100003662477
 20
6.079455719298532
 30
0.0
 11
6.665204539025722
 21
6.108182385915493
 31
0.0
  0
LINE
  5
126
330
1D
100
AcDbEntity
  8
0
 62
     0
100
AcDbLine
 10
6.999730094962853
 20
6.048079651807234
 30
0.0
 11
7.023834630326098
 21
6.076806318424195
 31
0.0
  0
LINE
  5
127
330
1D
100
AcDbEntity
  8
0
 62
     0
100
AcDbLine
 10
7.358360186263229
 20
6.016703584315935
 30
0.0
 11
7.382464721626475
 21
6.045430250932897
 31
0.0
  0
LINE
  5
128
330
1D
100
AcDbEntity
  8
0
 62
     0
100
AcDbLine
 10
7.716990277563606
 20
5.985327516824638
 30
0.0
 11
7.741094812926852
 21
6.0140541834416
 31
0.0
  0
LINE
  5
129
330
1D
100
AcDbEntity
  8
0
 62
     0
100
AcDbLine
 10
4.214173400382049
 20
5.939805824142085
 30
0.0
 11
4.224169566864518
 21
5.951718791459739
 31
0.0
  0
LINE
  5
12A
330
1D
100
AcDbEntity
  8
0
 62
     0
100
AcDbLine
 10
3.841434940200896
 20
5.954368192334074
 30
0.0
 11
3.865539475564141
 21
5.983094858951035
 31
0.0
  0
LINE
  5
12B
330
1D
100
AcDbEntity
  8
0
 62
     0
100
AcDbLine
 10
3.482804848900519
 20
5.985744259825372
 30
0.0
 11
3.506909384263764
 21
6.014470926442333
 31
0.0
  0
LINE
  5
12C
330
1D
100
AcDbEntity
  8
0
 62
     0
100
AcDbLine
 10
3.124174757600142
 20
6.01712032731667
 30
0.0
 11
3.148279292963387
 21
6.045846993933631
 31
0.0
  0
LINE
  5
12D
330
1D
100
AcDbEntity
  8
0
 62
     0
100
AcDbLine
 10
2.765544666299766
 20
6.048496394807967
 30
0.0
 11
2.789649201663011
 21
6.077223061424929
 31
0.0
  0
LINE
  5
12E
330
1D
100
AcDbEntity
  8
0
 62
     0
100
AcDbLine
 10
2.76554466873281
 20
6.048496395169374
 30
0.0
 11
2.795430509675563
 21
6.045881722886944
 31
0.0
  0
LINE
  5
12F
330
1D
100
AcDbEntity
  8
0
 62
     0
100
AcDbLine
 10
3.124174760045839
 20
6.017120327780217
 30
0.0
 11
3.154060600988591
 21
6.014505655497787
 31
0.0
  0
LINE
  5
130
330
1D
100
AcDbEntity
  8
0
 62
     0
100
AcDbLine
 10
3.482804851358867
 20
5.98574426039106
 30
0.0
 11
3.51269069230162
 21
5.98312958810863
 31
0.0
  0
LINE
  5
131
330
1D
100
AcDbEntity
  8
0
 62
     0
100
AcDbLine
 10
3.841434942671896
 20
5.954368193001903
 30
0.0
 11
3.871320783614648
 21
5.951753520719472
 31
0.0
  0
LINE
  5
132
330
1D
100
AcDbEntity
  8
0
 62
     0
100
AcDbLine
 10
5.565209732430536
 20
6.173583922906124
 30
0.0
 11
5.595095573373288
 21
6.170969250623694
 31
0.0
  0
LINE
  5
133
330
1D
100
AcDbEntity
  8
0
 62
     0
100
AcDbLine
 10
5.923839823743564
 20
6.142207855516967
 30
0.0
 11
5.953725664686317
 21
6.139593183234537
 31
0.0
  0
LINE
  5
134
330
1D
100
AcDbEntity
  8
0
 62
     0
100
AcDbLine
 10
6.282469915056593
 20
6.11083178812781
 30
0.0
 11
6.312355755999345
 21
6.10821711584538
 31
0.0
  0
LINE
  5
135
330
1D
100
AcDbEntity
  8
0
 62
     0
100
AcDbLine
 10
6.641100006369621
 20
6.079455720738653
 30
0.0
 11
6.670985847312373
 21
6.076841048456222
 31
0.0
  0
LINE
  5
136
330
1D
100
AcDbEntity
  8
0
 62
     0
100
AcDbLine
 10
6.999730097682649
 20
6.048079653349495
 30
0.0
 11
7.029615938625401
 21
6.045464981067065
 31
0.0
  0
LINE
  5
137
330
1D
100
AcDbEntity
  8
0
 62
     0
100
AcDbLine
 10
7.358360188995677
 20
6.016703585960338
 30
0.0
 11
7.388246029938429
 21
6.014088913677908
 31
0.0
  0
LINE
  5
138
330
1D
100
AcDbEntity
  8
0
 62
     0
100
AcDbLine
 10
7.716990280308705
 20
5.985327518571181
 30
0.0
 11
7.746876121251457
 21
5.982712846288751
 31
0.0
  0
LINE
  5
139
330
1D
100
AcDbEntity
  8
0
 62
     0
100
AcDbLine
 10
5.595100339383174
 20
6.170964859437618
 30
0.0
 11
5.59162490082921
 21
6.189805824142084
 31
0.0
  0
LINE
  5
13A
330
1D
100
AcDbEntity
  8
0
 62
     0
100
AcDbLine
 10
5.95373040334015
 20
6.139588510326653
 30
0.0
 11
5.947949122414771
 21
6.170929852770315
 31
0.0
  0
LINE
  5
13B
330
1D
100
AcDbEntity
  8
0
 62
     0
100
AcDbLine
 10
6.312360467297127
 20
6.108212161215689
 30
0.0
 11
6.306579186371747
 21
6.139553503659351
 31
0.0
  0
LINE
  5
13C
330
1D
100
AcDbEntity
  8
0
 62
     0
100
AcDbLine
 10
6.670990531254105
 20
6.076835812104725
 30
0.0
 11
6.665209250328725
 21
6.108177154548387
 31
0.0
  0
LINE
  5
13D
330
1D
100
AcDbEntity
  8
0
 62
     0
100
AcDbLine
 10
7.029620595211083
 20
6.04545946299376
 30
0.0
 11
7.023839314285703
 21
6.076800805437422
 31
0.0
  0
LINE
  5
13E
330
1D
100
AcDbEntity
  8
0
 62
     0
100
AcDbLine
 10
7.38825065916806
 20
6.014083113882796
 30
0.0
 11
7.382469378242681
 21
6.045424456326458
 31
0.0
  0
LINE
  5
13F
330
1D
100
AcDbEntity
  8
0
 62
     0
100
AcDbLine
 10
7.746880723125037
 20
5.982706764771832
 30
0.0
 11
7.741099442199657
 21
6.014048107215494
 31
0.0
  0
LINE
  5
140
330
1D
100
AcDbEntity
  8
0
 62
     0
100
AcDbLine
 10
4.226371052135588
 20
5.939805824142085
 30
0.0
 11
4.22417417572985
 21
5.951715478183695
 31
0.0
  0
LINE
  5
141
330
1D
100
AcDbEntity
  8
0
 62
     0
100
AcDbLine
 10
3.871325392698252
 20
5.951750484850998
 30
0.0
 11
3.865544111772873
 21
5.98309182729466
 31
0.0
  0
LINE
  5
142
330
1D
100
AcDbEntity
  8
0
 62
     0
100
AcDbLine
 10
3.512695328741275
 20
5.983126833961962
 30
0.0
 11
3.506914047815896
 21
6.014468176405624
 31
0.0
  0
LINE
  5
143
330
1D
100
AcDbEntity
  8
0
 62
     0
100
AcDbLine
 10
3.154065264784297
 20
6.014503183072926
 30
0.0
 11
3.148283983858918
 21
6.045844525516588
 31
0.0
  0
LINE
  5
144
330
1D
100
AcDbEntity
  8
0
 62
     0
100
AcDbLine
 10
2.79543520082732
 20
6.04587953218389
 30
0.0
 11
2.789653919901941
 21
6.077220874627553
 31
0.0
  0
LINE
  5
145
330
1D
100
AcDbEntity
  8
0
 62
     0
100
AcDbLine
 10
5.607971671047017
 20
5.944711604239691
 30
0.0
 11
5.646915918762622
 21
5.985299879269133
 31
0.0
  0
LINE
  5
146
330
1D
100
AcDbEntity
  8
0
 62
     0
100
AcDbLine
 10
7.676164216572736
 20
6.18349238309947
 30
0.0
 11
7.682221931805102
 21
6.189805824142082
 31
0.0
  0
LINE
  5
147
330
1D
100
AcDbEntity
  8
0
 62
     0
100
AcDbLine
 10
5.074351146734196
 20
6.0274711114042
 30
0.0
 11
5.1132953944498
 21
6.068059386433643
 31
0.0
  0
LINE
  5
148
330
1D
100
AcDbEntity
  8
0
 62
     0
100
AcDbLine
 10
4.540730622421373
 20
6.110230618568709
 30
0.0
 11
4.579674870136978
 21
6.150818893598152
 31
0.0
  0
LINE
  5
149
330
1D
100
AcDbEntity
  8
0
 62
     0
100
AcDbLine
 10
5.118824155925898
 20
6.02057041238344
 30
0.0
 11
5.113300063692686
 21
6.068055317330799
 31
0.0
  0
LINE
  5
14A
330
1D
100
AcDbEntity
  8
0
 62
     0
100
AcDbLine
 10
5.652212490819864
 20
5.939805824142085
 30
0.0
 11
5.646920513559008
 21
5.98529547685001
 31
0.0
  0
LINE
  5
14B
330
1D
100
AcDbEntity
  8
0
 62
     0
100
AcDbLine
 10
7.72063730816554
 20
6.176589985910507
 30
0.0
 11
7.719099861488299
 21
6.189805824142083
 31
0.0
  0
LINE
  5
14C
330
1D
100
AcDbEntity
  8
0
 62
     0
100
AcDbLine
 10
4.585203706059575
 20
6.103330252864229
 30
0.0
 11
4.579679613826363
 21
6.150815157811588
 31
0.0
  0
LINE
  5
14D
330
1D
100
AcDbEntity
  8
0
 62
     0
100
AcDbLine
 10
4.051583256193252
 20
6.186090093345017
 30
0.0
 11
4.05115099167341
 21
6.189805824142084
 31
0.0
  0
LINE
  5
14E
330
1D
100
AcDbEntity
  8
0
 62
     0
100
AcDbLine
 10
4.02764198835378
 20
6.189805824142084
 30
0.0
 11
4.051578474804395
 21
6.186093501006243
 31
0.0
  0
LINE
  5
14F
330
1D
100
AcDbEntity
  8
0
 62
     0
100
AcDbLine
 10
4.540730622117853
 20
6.110230619577751
 30
0.0
 11
4.585198999146348
 21
6.103333993993342
 31
0.0
  0
LINE
  5
150
330
1D
100
AcDbEntity
  8
0
 62
     0
100
AcDbLine
 10
5.074351146459806
 20
6.027471112564851
 30
0.0
 11
5.118819523488301
 21
6.020574486980442
 31
0.0
  0
LINE
  5
151
330
1D
100
AcDbEntity
  8
0
 62
     0
100
AcDbLine
 10
5.607971670801759
 20
5.94471160555195
 30
0.0
 11
5.639603391950496
 21
5.939805824142085
 31
0.0
  0
LINE
  5
152
330
1D
100
AcDbEntity
  8
0
 62
     0
100
AcDbLine
 10
7.676164216394436
 20
6.18349238497591
 30
0.0
 11
7.720632593422932
 21
6.176595759391502
 31
0.0
  0
LINE
  5
153
330
1D
100
AcDbEntity
  8
0
 62
     0
100
AcDbLine
 10
5.711003909611527
 20
6.038556044490505
 30
0.0
 11
5.746013175605172
 21
6.051994842598453
 31
0.0
  0
LINE
  5
154
330
1D
100
AcDbEntity
  8
0
 62
     0
100
AcDbLine
 10
6.429568627594499
 20
5.99851217645322
 30
0.0
 11
6.464577893588145
 21
6.011950974561169
 31
0.0
  0
LINE
  5
155
330
1D
100
AcDbEntity
  8
0
 62
     0
100
AcDbLine
 10
6.84967981951824
 20
6.159777753748605
 30
0.0
 11
6.884689085511886
 21
6.173216551856554
 31
0.0
  0
LINE
  5
156
330
1D
100
AcDbEntity
  8
0
 62
     0
100
AcDbLine
 10
7.14813334557747
 20
5.958468308415937
 30
0.0
 11
7.183142611571115
 21
5.971907106523885
 31
0.0
  0
LINE
  5
157
330
1D
100
AcDbEntity
  8
0
 62
     0
100
AcDbLine
 10
7.568244537501211
 20
6.119733885711322
 30
0.0
 11
7.603253803494856
 21
6.13317268381927
 31
0.0
  0
LINE
  5
158
330
1D
100
AcDbEntity
  8
0
 62
     0
100
AcDbLine
 10
4.992439191628555
 20
6.078599912527788
 30
0.0
 11
5.027448457622201
 21
6.092038710635737
 31
0.0
  0
LINE
  5
159
330
1D
100
AcDbEntity
  8
0
 62
     0
100
AcDbLine
 10
3.853763281721843
 20
5.957378203269688
 30
0.0
 11
3.888772547715488
 21
5.970817001377636
 31
0.0
  0
LINE
  5
15A
330
1D
100
AcDbEntity
  8
0
 62
     0
100
AcDbLine
 10
4.273874473645584
 20
6.118643780565073
 30
0.0
 11
4.308883739639229
 21
6.132082578673021
 31
0.0
  0
LINE
  5
15B
330
1D
100
AcDbEntity
  8
0
 62
     0
100
AcDbLine
 10
3.135198563738871
 20
5.997422071306972
 30
0.0
 11
3.170207829732516
 21
6.01086086941492
 31
0.0
  0
LINE
  5
15C
330
1D
100
AcDbEntity
  8
0
 62
     0
100
AcDbLine
 10
3.555309755662611
 20
6.158687648602357
 30
0.0
 11
3.590319021656256
 21
6.172126446710305
 31
0.0
  0
LINE
  5
15D
330
1D
100
AcDbEntity
  8
0
 62
     0
100
AcDbLine
 10
4.992439194135127
 20
6.078599910996208
 30
0.0
 11
5.017310321311779
 21
6.061824123892086
 31
0.0
  0
LINE
  5
15E
330
1D
100
AcDbEntity
  8
0
 62
     0
100
AcDbLine
 10
5.711003912335548
 20
6.038556043020697
 30
0.0
 11
5.735875039512199
 21
6.021780255916575
 31
0.0
  0
LINE
  5
15F
330
1D
100
AcDbEntity
  8
0
 62
     0
100
AcDbLine
 10
6.145964132860536
 20
6.189805824142083
 30
0.0
 11
6.155986231592804
 21
6.183045833190532
 31
0.0
  0
LINE
  5
160
330
1D
100
AcDbEntity
  8
0
 62
     0
100
AcDbLine
 10
6.429568630535968
 20
5.998512175045186
 30
0.0
 11
6.45443975771262
 21
5.981736387941063
 31
0.0
  0
LINE
  5
161
330
1D
100
AcDbEntity
  8
0
 62
     0
100
AcDbLine
 10
6.849679822616574
 20
6.159777752319144
 30
0.0
 11
6.874550949793226
 21
6.143001965215022
 31
0.0
  0
LINE
  5
162
330
1D
100
AcDbEntity
  8
0
 62
     0
100
AcDbLine
 10
7.14813334873639
 20
5.958468307069676
 30
0.0
 11
7.173004475913042
 21
5.941692519965553
 31
0.0
  0
LINE
  5
163
330
1D
100
AcDbEntity
  8
0
 62
     0
100
AcDbLine
 10
7.568244540816994
 20
6.119733884343633
 30
0.0
 11
7.593115667993646
 21
6.102958097239511
 31
0.0
  0
LINE
  5
164
330
1D
100
AcDbEntity
  8
0
 62
     0
100
AcDbLine
 10
4.273874475934706
 20
6.118643778971719
 30
0.0
 11
4.298745603111357
 21
6.101867991867597
 31
0.0
  0
LINE
  5
165
330
1D
100
AcDbEntity
  8
0
 62
     0
100
AcDbLine
 10
3.555309757734284
 20
6.158687646947229
 30
0.0
 11
3.580180884910935
 21
6.141911859843107
 31
0.0
  0
LINE
  5
166
330
1D
100
AcDbEntity
  8
0
 62
     0
100
AcDbLine
 10
3.853763283854099
 20
5.95737820169776
 30
0.0
 11
3.87863441103075
 21
5.940602414593638
 31
0.0
  0
LINE
  5
167
330
1D
100
AcDbEntity
  8
0
 62
     0
100
AcDbLine
 10
2.849977920302278
 20
6.189805824142085
 30
0.0
 11
2.861616166710515
 21
6.181955727818618
 31
0.0
  0
LINE
  5
168
330
1D
100
AcDbEntity
  8
0
 62
     0
100
AcDbLine
 10
3.135198565653679
 20
5.997422069673271
 30
0.0
 11
3.16006969283033
 21
5.980646282569149
 31
0.0
  0
LINE
  5
169
330
1D
100
AcDbEntity
  8
0
 62
     0
100
AcDbLine
 10
5.017314963646636
 20
6.061820231478177
 30
0.0
 11
5.027453125744912
 21
6.092034807837579
 31
0.0
  0
LINE
  5
16A
330
1D
100
AcDbEntity
  8
0
 62
     0
100
AcDbLine
 10
5.735879643549612
 20
6.021775801446717
 30
0.0
 11
5.746017805647888
 21
6.051990377806118
 31
0.0
  0
LINE
  5
16B
330
1D
100
AcDbEntity
  8
0
 62
     0
100
AcDbLine
 10
6.155990957840358
 20
6.183041049801694
 30
0.0
 11
6.158260801971393
 21
6.189805824142083
 31
0.0
  0
LINE
  5
16C
330
1D
100
AcDbEntity
  8
0
 62
     0
100
AcDbLine
 10
6.454444323452589
 20
5.981731371415257
 30
0.0
 11
6.464582485550866
 21
6.011945947774658
 31
0.0
  0
LINE
  5
16D
330
1D
100
AcDbEntity
  8
0
 62
     0
100
AcDbLine
 10
6.874555637743333
 20
6.142996619770234
 30
0.0
 11
6.88469379984161
 21
6.173211196129635
 31
0.0
  0
LINE
  5
16E
330
1D
100
AcDbEntity
  8
0
 62
     0
100
AcDbLine
 10
7.173009003355566
 20
5.941686941383797
 30
0.0
 11
7.183147165453842
 21
5.971901517743198
 31
0.0
  0
LINE
  5
16F
330
1D
100
AcDbEntity
  8
0
 62
     0
100
AcDbLine
 10
7.59312031764631
 20
6.102952189738774
 30
0.0
 11
7.603258479744586
 21
6.133166766098175
 31
0.0
  0
LINE
  5
170
330
1D
100
AcDbEntity
  8
0
 62
     0
100
AcDbLine
 10
4.298750283743659
 20
6.101864661509639
 30
0.0
 11
4.308888445841936
 21
6.13207923786904
 31
0.0
  0
LINE
  5
171
330
1D
100
AcDbEntity
  8
0
 62
     0
100
AcDbLine
 10
3.878638969452914
 20
5.940599413154662
 30
0.0
 11
3.88877713155119
 21
5.970813989514063
 31
0.0
  0
LINE
  5
172
330
1D
100
AcDbEntity
  8
0
 62
     0
100
AcDbLine
 10
3.580185603840683
 20
6.141909091541099
 30
0.0
 11
3.590323765938959
 21
6.1721236679005
 31
0.0
  0
LINE
  5
173
330
1D
100
AcDbEntity
  8
0
 62
     0
100
AcDbLine
 10
3.160074289549938
 20
5.980643843186122
 30
0.0
 11
3.170212451648214
 21
6.010858419545523
 31
0.0
  0
LINE
  5
174
330
1D
100
AcDbEntity
  8
0
 62
     0
100
AcDbLine
 10
2.861620923937707
 20
6.181953521572559
 30
0.0
 11
2.864255675964265
 21
6.189805824142084
 31
0.0
  0
LINE
  5
175
330
1D
100
AcDbEntity
  8
0
 62
     0
100
AcDbLine
 10
5.320594801260119
 20
6.024015595166052
 30
0.0
 11
5.320594801260119
 21
6.024015595166052
 31
0.0
  0
LINE
  5
176
330
1D
100
AcDbEntity
  8
0
 62
     0
100
AcDbLine
 10
5.060901359921199
 20
5.986527443363786
 30
0.0
 11
5.060901359921199
 21
5.986527443363786
 31
0.0
  0
LINE
  5
177
330
1D
100
AcDbEntity
  8
0
 62
     0
100
AcDbLine
 10
4.808348098644903
 20
5.954518144422599
 30
0.0
 11
4.808348098644903
 21
5.954518144422599
 31
0.0
  0
LINE
  5
178
330
1D
100
AcDbEntity
  8
0
 62
     0
100
AcDbLine
 10
5.066981287579846
 20
6.152974370279442
 30
0.0
 11
5.066981287579846
 21
6.152974370279442
 31
0.0
  0
LINE
  5
179
330
1D
100
AcDbEntity
  8
0
 62
     0
100
AcDbLine
 10
4.814428026303549
 20
6.120965071338255
 30
0.0
 11
4.814428026303549
 21
6.120965071338255
 31
0.0
  0
LINE
  5
17A
330
1D
100
AcDbEntity
  8
0
 62
     0
100
AcDbLine
 10
4.557709659990722
 20
6.085759774894771
 30
0.0
 11
4.557709659990722
 21
6.085759774894771
 31
0.0
  0
LINE
  5
17B
330
1D
100
AcDbEntity
  8
0
 62
     0
100
AcDbLine
 10
4.298016218651803
 20
6.048271623092506
 30
0.0
 11
4.298016218651803
 21
6.048271623092506
 31
0.0
  0
LINE
  5
17C
330
1D
100
AcDbEntity
  8
0
 62
     0
100
AcDbLine
 10
4.045462957375506
 20
6.01626232415132
 30
0.0
 11
4.045462957375506
 21
6.01626232415132
 31
0.0
  0
LINE
  5
17D
330
1D
100
AcDbEntity
  8
0
 62
     0
100
AcDbLine
 10
3.78874459106268
 20
5.981057027707835
 30
0.0
 11
3.78874459106268
 21
5.981057027707835
 31
0.0
  0
LINE
  5
17E
330
1D
100
AcDbEntity
  8
0
 62
     0
100
AcDbLine
 10
4.051542885034151
 20
6.182709251066974
 30
0.0
 11
4.051542885034151
 21
6.182709251066974
 31
0.0
  0
LINE
  5
17F
330
1D
100
AcDbEntity
  8
0
 62
     0
100
AcDbLine
 10
3.529051149723761
 20
5.943568875905571
 30
0.0
 11
3.529051149723761
 21
5.943568875905571
 31
0.0
  0
LINE
  5
180
330
1D
100
AcDbEntity
  8
0
 62
     0
100
AcDbLine
 10
3.794824518721325
 20
6.147503954623492
 30
0.0
 11
3.794824518721325
 21
6.147503954623492
 31
0.0
  0
LINE
  5
181
330
1D
100
AcDbEntity
  8
0
 62
     0
100
AcDbLine
 10
3.535131077382406
 20
6.110015802821226
 30
0.0
 11
3.535131077382406
 21
6.110015802821226
 31
0.0
  0
LINE
  5
182
330
1D
100
AcDbEntity
  8
0
 62
     0
100
AcDbLine
 10
3.282577816106109
 20
6.078006503880039
 30
0.0
 11
3.282577816106109
 21
6.078006503880039
 31
0.0
  0
LINE
  5
183
330
1D
100
AcDbEntity
  8
0
 62
     0
100
AcDbLine
 10
3.025859449793283
 20
6.042801207436556
 30
0.0
 11
3.025859449793283
 21
6.042801207436556
 31
0.0
  0
LINE
  5
184
330
1D
100
AcDbEntity
  8
0
 62
     0
100
AcDbLine
 10
2.766166008454364
 20
6.005313055634291
 30
0.0
 11
2.766166008454364
 21
6.005313055634291
 31
0.0
  0
LINE
  5
185
330
1D
100
AcDbEntity
  8
0
 62
     0
100
AcDbLine
 10
2.77224593611301
 20
6.171759982549946
 30
0.0
 11
2.77224593611301
 21
6.171759982549946
 31
0.0
  0
LINE
  5
186
330
1D
100
AcDbEntity
  8
0
 62
     0
100
AcDbLine
 10
5.577313167572945
 20
6.059220891609535
 30
0.0
 11
5.577313167572945
 21
6.059220891609535
 31
0.0
  0
LINE
  5
187
330
1D
100
AcDbEntity
  8
0
 62
     0
100
AcDbLine
 10
5.829866428849243
 20
6.091230190550722
 30
0.0
 11
5.829866428849243
 21
6.091230190550722
 31
0.0
  0
LINE
  5
188
330
1D
100
AcDbEntity
  8
0
 62
     0
100
AcDbLine
 10
6.089559870188161
 20
6.128718342352987
 30
0.0
 11
6.089559870188161
 21
6.128718342352987
 31
0.0
  0
LINE
  5
189
330
1D
100
AcDbEntity
  8
0
 62
     0
100
AcDbLine
 10
6.083479942529515
 20
5.962271415437331
 30
0.0
 11
6.083479942529515
 21
5.962271415437331
 31
0.0
  0
LINE
  5
18A
330
1D
100
AcDbEntity
  8
0
 62
     0
100
AcDbLine
 10
6.346278236500986
 20
6.16392363879647
 30
0.0
 11
6.346278236500986
 21
6.16392363879647
 31
0.0
  0
LINE
  5
18B
330
1D
100
AcDbEntity
  8
0
 62
     0
100
AcDbLine
 10
6.340198308842341
 20
5.997476711880815
 30
0.0
 11
6.340198308842341
 21
5.997476711880815
 31
0.0
  0
LINE
  5
18C
330
1D
100
AcDbEntity
  8
0
 62
     0
100
AcDbLine
 10
6.59275157011864
 20
6.029486010822003
 30
0.0
 11
6.59275157011864
 21
6.029486010822003
 31
0.0
  0
LINE
  5
18D
330
1D
100
AcDbEntity
  8
0
 62
     0
100
AcDbLine
 10
6.852445011457557
 20
6.066974162624267
 30
0.0
 11
6.852445011457557
 21
6.066974162624267
 31
0.0
  0
LINE
  5
18E
330
1D
100
AcDbEntity
  8
0
 62
     0
100
AcDbLine
 10
7.109163377770383
 20
6.10217945906775
 30
0.0
 11
7.109163377770383
 21
6.10217945906775
 31
0.0
  0
LINE
  5
18F
330
1D
100
AcDbEntity
  8
0
 62
     0
100
AcDbLine
 10
7.361716639046682
 20
6.134188758008938
 30
0.0
 11
7.361716639046682
 21
6.134188758008938
 31
0.0
  0
LINE
  5
190
330
1D
100
AcDbEntity
  8
0
 62
     0
100
AcDbLine
 10
7.355636711388036
 20
5.967741831093282
 30
0.0
 11
7.355636711388036
 21
5.967741831093282
 31
0.0
  0
LINE
  5
191
330
1D
100
AcDbEntity
  8
0
 62
     0
100
AcDbLine
 10
7.621410080385599
 20
6.171676909811203
 30
0.0
 11
7.621410080385599
 21
6.171676909811203
 31
0.0
  0
LINE
  5
192
330
1D
100
AcDbEntity
  8
0
 62
     0
100
AcDbLine
 10
7.615330152726954
 20
6.005229982895547
 30
0.0
 11
7.615330152726954
 21
6.005229982895547
 31
0.0
  0
LINE
  5
193
330
1D
100
AcDbEntity
  8
0
 62
     0
100
AcDbLine
 10
7.872048519039781
 20
6.040435279339031
 30
0.0
 11
7.872048519039781
 21
6.040435279339031
 31
0.0
  0
LINE
  5
194
330
1D
100
AcDbEntity
  8
0
 62
     0
100
AcDbLine
 10
5.580271591017911
 20
5.951436970638135
 30
0.0
 11
5.580271591017911
 21
5.951436970638135
 31
0.0
  0
LINE
  5
195
330
1D
100
AcDbEntity
  8
0
 62
     0
100
AcDbLine
 10
5.705441504766355
 20
5.967915902405916
 30
0.0
 11
5.705441504766355
 21
5.967915902405916
 31
0.0
  0
LINE
  5
196
330
1D
100
AcDbEntity
  8
0
 62
     0
100
AcDbLine
 10
5.894807473288753
 20
5.992846405119946
 30
0.0
 11
5.894807473288753
 21
5.992846405119946
 31
0.0
  0
LINE
  5
197
330
1D
100
AcDbEntity
  8
0
 62
     0
100
AcDbLine
 10
6.210582661636311
 20
6.034418997342033
 30
0.0
 11
6.210582661636311
 21
6.034418997342033
 31
0.0
  0
LINE
  5
198
330
1D
100
AcDbEntity
  8
0
 62
     0
100
AcDbLine
 10
6.335752575384755
 20
6.050897929109814
 30
0.0
 11
6.335752575384755
 21
6.050897929109814
 31
0.0
  0
LINE
  5
199
330
1D
100
AcDbEntity
  8
0
 62
     0
100
AcDbLine
 10
6.525118543907153
 20
6.075828431823844
 30
0.0
 11
6.525118543907153
 21
6.075828431823844
 31
0.0
  0
LINE
  5
19A
330
1D
100
AcDbEntity
  8
0
 62
     0
100
AcDbLine
 10
6.840893732254711
 20
6.117401024045931
 30
0.0
 11
6.840893732254711
 21
6.117401024045931
 31
0.0
  0
LINE
  5
19B
330
1D
100
AcDbEntity
  8
0
 62
     0
100
AcDbLine
 10
6.966063646003155
 20
6.133879955813712
 30
0.0
 11
6.966063646003155
 21
6.133879955813712
 31
0.0
  0
LINE
  5
19C
330
1D
100
AcDbEntity
  8
0
 62
     0
100
AcDbLine
 10
7.155429614525552
 20
6.158810458527742
 30
0.0
 11
7.155429614525552
 21
6.158810458527742
 31
0.0
  0
LINE
  5
19D
330
1D
100
AcDbEntity
  8
0
 62
     0
100
AcDbLine
 10
4.135409030154627
 20
5.941106180949433
 30
0.0
 11
4.135409030154627
 21
5.941106180949433
 31
0.0
  0
LINE
  5
19E
330
1D
100
AcDbEntity
  8
0
 62
     0
100
AcDbLine
 10
4.451184218502185
 20
5.98267877317152
 30
0.0
 11
4.451184218502185
 21
5.98267877317152
 31
0.0
  0
LINE
  5
19F
330
1D
100
AcDbEntity
  8
0
 62
     0
100
AcDbLine
 10
4.576354132250629
 20
5.999157704939301
 30
0.0
 11
4.576354132250629
 21
5.999157704939301
 31
0.0
  0
LINE
  5
1A0
330
1D
100
AcDbEntity
  8
0
 62
     0
100
AcDbLine
 10
4.765720100773027
 20
6.024088207653331
 30
0.0
 11
4.765720100773027
 21
6.024088207653331
 31
0.0
  0
LINE
  5
1A1
330
1D
100
AcDbEntity
  8
0
 62
     0
100
AcDbLine
 10
5.081495289120585
 20
6.065660799875418
 30
0.0
 11
5.081495289120585
 21
6.065660799875418
 31
0.0
  0
LINE
  5
1A2
330
1D
100
AcDbEntity
  8
0
 62
     0
100
AcDbLine
 10
5.206665202869029
 20
6.082139731643199
 30
0.0
 11
5.206665202869029
 21
6.082139731643199
 31
0.0
  0
LINE
  5
1A3
330
1D
100
AcDbEntity
  8
0
 62
     0
100
AcDbLine
 10
5.396031171391427
 20
6.107070234357229
 30
0.0
 11
5.396031171391427
 21
6.107070234357229
 31
0.0
  0
LINE
  5
1A4
330
1D
100
AcDbEntity
  8
0
 62
     0
100
AcDbLine
 10
5.711806359738985
 20
6.148642826579316
 30
0.0
 11
5.711806359738985
 21
6.148642826579316
 31
0.0
  0
LINE
  5
1A5
330
1D
100
AcDbEntity
  8
0
 62
     0
100
AcDbLine
 10
5.836976273487429
 20
6.165121758347098
 30
0.0
 11
5.836976273487429
 21
6.165121758347098
 31
0.0
  0
LINE
  5
1A6
330
1D
100
AcDbEntity
  8
0
 62
     0
100
AcDbLine
 10
2.816955689116504
 20
5.947417480768788
 30
0.0
 11
2.816955689116504
 21
5.947417480768788
 31
0.0
  0
LINE
  5
1A7
330
1D
100
AcDbEntity
  8
0
 62
     0
100
AcDbLine
 10
3.006321657638902
 20
5.972347983482817
 30
0.0
 11
3.006321657638902
 21
5.972347983482817
 31
0.0
  0
LINE
  5
1A8
330
1D
100
AcDbEntity
  8
0
 62
     0
100
AcDbLine
 10
3.322096845986461
 20
6.013920575704904
 30
0.0
 11
3.322096845986461
 21
6.013920575704904
 31
0.0
  0
LINE
  5
1A9
330
1D
100
AcDbEntity
  8
0
 62
     0
100
AcDbLine
 10
3.447266759734904
 20
6.030399507472686
 30
0.0
 11
3.447266759734904
 21
6.030399507472686
 31
0.0
  0
LINE
  5
1AA
330
1D
100
AcDbEntity
  8
0
 62
     0
100
AcDbLine
 10
3.636632728257302
 20
6.055330010186716
 30
0.0
 11
3.636632728257302
 21
6.055330010186716
 31
0.0
  0
LINE
  5
1AB
330
1D
100
AcDbEntity
  8
0
 62
     0
100
AcDbLine
 10
3.952407916604861
 20
6.096902602408802
 30
0.0
 11
3.952407916604861
 21
6.096902602408802
 31
0.0
  0
LINE
  5
1AC
330
1D
100
AcDbEntity
  8
0
 62
     0
100
AcDbLine
 10
4.077577830353305
 20
6.113381534176584
 30
0.0
 11
4.077577830353305
 21
6.113381534176584
 31
0.0
  0
LINE
  5
1AD
330
1D
100
AcDbEntity
  8
0
 62
     0
100
AcDbLine
 10
4.266943798875702
 20
6.138312036890614
 30
0.0
 11
4.266943798875702
 21
6.138312036890614
 31
0.0
  0
LINE
  5
1AE
330
1D
100
AcDbEntity
  8
0
 62
     0
100
AcDbLine
 10
4.582718987223261
 20
6.1798846291127
 30
0.0
 11
4.582718987223261
 21
6.1798846291127
 31
0.0
  0
LINE
  5
1AF
330
1D
100
AcDbEntity
  8
0
 62
     0
100
AcDbLine
 10
2.823320544089135
 20
6.128144404942187
 30
0.0
 11
2.823320544089135
 21
6.128144404942187
 31
0.0
  0
LINE
  5
1B0
330
1D
100
AcDbEntity
  8
0
 62
     0
100
AcDbLine
 10
2.948490457837579
 20
6.144623336709968
 30
0.0
 11
2.948490457837579
 21
6.144623336709968
 31
0.0
  0
LINE
  5
1B1
330
1D
100
AcDbEntity
  8
0
 62
     0
100
AcDbLine
 10
3.137856426359976
 20
6.169553839423998
 30
0.0
 11
3.137856426359976
 21
6.169553839423998
 31
0.0
  0
LINE
  5
1B2
330
1D
100
AcDbEntity
  8
0
 62
     0
100
AcDbLine
 10
7.023894845804478
 20
5.961604602586562
 30
0.0
 11
7.023894845804478
 21
5.961604602586562
 31
0.0
  0
LINE
  5
1B3
330
1D
100
AcDbEntity
  8
0
 62
     0
100
AcDbLine
 10
7.339670034152036
 20
6.003177194808649
 30
0.0
 11
7.339670034152036
 21
6.003177194808649
 31
0.0
  0
LINE
  5
1B4
330
1D
100
AcDbEntity
  8
0
 62
     0
100
AcDbLine
 10
7.46483994790048
 20
6.01965612657643
 30
0.0
 11
7.46483994790048
 21
6.01965612657643
 31
0.0
  0
LINE
  5
1B5
330
1D
100
AcDbEntity
  8
0
 62
     0
100
AcDbLine
 10
7.654205916422878
 20
6.04458662929046
 30
0.0
 11
7.654205916422878
 21
6.04458662929046
 31
0.0
  0
LINE
  5
1B6
330
1D
100
AcDbEntity
  8
0
 62
     0
100
AcDbLine
 10
5.186641853464412
 20
5.991773431252944
 30
0.0
 11
5.186641853464412
 21
5.991773431252944
 31
0.0
  0
LINE
  5
1B7
330
1D
100
AcDbEntity
  8
0
 62
     0
100
AcDbLine
 10
5.453553071550616
 20
5.980495995385755
 30
0.0
 11
5.453553071550616
 21
5.980495995385755
 31
0.0
  0
LINE
  5
1B8
330
1D
100
AcDbEntity
  8
0
 62
     0
100
AcDbLine
 10
5.720464289636821
 20
5.969218559518564
 30
0.0
 11
5.720464289636821
 21
5.969218559518564
 31
0.0
  0
LINE
  5
1B9
330
1D
100
AcDbEntity
  8
0
 62
     0
100
AcDbLine
 10
5.987375507723026
 20
5.957941123651375
 30
0.0
 11
5.987375507723026
 21
5.957941123651375
 31
0.0
  0
LINE
  5
1BA
330
1D
100
AcDbEntity
  8
0
 62
     0
100
AcDbLine
 10
6.254286725809231
 20
5.946663687784183
 30
0.0
 11
6.254286725809231
 21
5.946663687784183
 31
0.0
  0
LINE
  5
1BB
330
1D
100
AcDbEntity
  8
0
 62
     0
100
AcDbLine
 10
6.885476524945882
 20
6.179606491634905
 30
0.0
 11
6.885476524945882
 21
6.179606491634905
 31
0.0
  0
LINE
  5
1BC
330
1D
100
AcDbEntity
  8
0
 62
     0
100
AcDbLine
 10
7.152387743032084
 20
6.168329055767717
 30
0.0
 11
7.152387743032084
 21
6.168329055767717
 31
0.0
  0
LINE
  5
1BD
330
1D
100
AcDbEntity
  8
0
 62
     0
100
AcDbLine
 10
7.419298961118288
 20
6.157051619900526
 30
0.0
 11
7.419298961118288
 21
6.157051619900526
 31
0.0
  0
LINE
  5
1BE
330
1D
100
AcDbEntity
  8
0
 62
     0
100
AcDbLine
 10
7.686210179204493
 20
6.145774184033338
 30
0.0
 11
7.686210179204493
 21
6.145774184033338
 31
0.0
  0
LINE
  5
1BF
330
1D
100
AcDbEntity
  8
0
 62
     0
100
AcDbLine
 10
4.919730635378209
 20
6.003050867120134
 30
0.0
 11
4.919730635378209
 21
6.003050867120134
 31
0.0
  0
LINE
  5
1C0
330
1D
100
AcDbEntity
  8
0
 62
     0
100
AcDbLine
 10
4.652819417292003
 20
6.014328302987324
 30
0.0
 11
4.652819417292003
 21
6.014328302987324
 31
0.0
  0
LINE
  5
1C1
330
1D
100
AcDbEntity
  8
0
 62
     0
100
AcDbLine
 10
4.758243348018614
 20
5.947165851943972
 30
0.0
 11
4.758243348018614
 21
5.947165851943972
 31
0.0
  0
LINE
  5
1C2
330
1D
100
AcDbEntity
  8
0
 62
     0
100
AcDbLine
 10
4.385908199205799
 20
6.025605738854515
 30
0.0
 11
4.385908199205799
 21
6.025605738854515
 31
0.0
  0
LINE
  5
1C3
330
1D
100
AcDbEntity
  8
0
 62
     0
100
AcDbLine
 10
4.49133212993241
 20
5.958443287811162
 30
0.0
 11
4.49133212993241
 21
5.958443287811162
 31
0.0
  0
LINE
  5
1C4
330
1D
100
AcDbEntity
  8
0
 62
     0
100
AcDbLine
 10
4.118996981119593
 20
6.036883174721704
 30
0.0
 11
4.118996981119593
 21
6.036883174721704
 31
0.0
  0
LINE
  5
1C5
330
1D
100
AcDbEntity
  8
0
 62
     0
100
AcDbLine
 10
4.224420911846204
 20
5.969720723678351
 30
0.0
 11
4.224420911846204
 21
5.969720723678351
 31
0.0
  0
LINE
  5
1C6
330
1D
100
AcDbEntity
  8
0
 62
     0
100
AcDbLine
 10
3.85208576303339
 20
6.048160610588894
 30
0.0
 11
3.85208576303339
 21
6.048160610588894
 31
0.0
  0
LINE
  5
1C7
330
1D
100
AcDbEntity
  8
0
 62
     0
100
AcDbLine
 10
3.95750969376
 20
5.980998159545541
 30
0.0
 11
3.95750969376
 21
5.980998159545541
 31
0.0
  0
LINE
  5
1C8
330
1D
100
AcDbEntity
  8
0
 62
     0
100
AcDbLine
 10
3.585174544947187
 20
6.059438046456083
 30
0.0
 11
3.585174544947187
 21
6.059438046456083
 31
0.0
  0
LINE
  5
1C9
330
1D
100
AcDbEntity
  8
0
 62
     0
100
AcDbLine
 10
3.690598475673797
 20
5.99227559541273
 30
0.0
 11
3.690598475673797
 21
5.99227559541273
 31
0.0
  0
LINE
  5
1CA
330
1D
100
AcDbEntity
  8
0
 62
     0
100
AcDbLine
 10
3.318263326860981
 20
6.070715482323272
 30
0.0
 11
3.318263326860981
 21
6.070715482323272
 31
0.0
  0
LINE
  5
1CB
330
1D
100
AcDbEntity
  8
0
 62
     0
100
AcDbLine
 10
3.423687257587592
 20
6.00355303127992
 30
0.0
 11
3.423687257587592
 21
6.00355303127992
 31
0.0
  0
LINE
  5
1CC
330
1D
100
AcDbEntity
  8
0
 62
     0
100
AcDbLine
 10
3.051352108774776
 20
6.081992918190463
 30
0.0
 11
3.051352108774776
 21
6.081992918190463
 31
0.0
  0
LINE
  5
1CD
330
1D
100
AcDbEntity
  8
0
 62
     0
100
AcDbLine
 10
3.156776039501386
 20
6.014830467147111
 30
0.0
 11
3.156776039501386
 21
6.014830467147111
 31
0.0
  0
LINE
  5
1CE
330
1D
100
AcDbEntity
  8
0
 62
     0
100
AcDbLine
 10
2.784440890688572
 20
6.093270354057653
 30
0.0
 11
2.784440890688572
 21
6.093270354057653
 31
0.0
  0
LINE
  5
1CF
330
1D
100
AcDbEntity
  8
0
 62
     0
100
AcDbLine
 10
2.889864821415182
 20
6.026107903014301
 30
0.0
 11
2.889864821415182
 21
6.026107903014301
 31
0.0
  0
LINE
  5
1D0
330
1D
100
AcDbEntity
  8
0
 62
     0
100
AcDbLine
 10
2.622953603328978
 20
6.03738533888149
 30
0.0
 11
2.622953603328978
 21
6.03738533888149
 31
0.0
  0
LINE
  5
1D1
330
1D
100
AcDbEntity
  8
0
 62
     0
100
AcDbLine
 10
5.098970328875063
 20
5.966110090119448
 30
0.0
 11
5.098970328875063
 21
5.966110090119448
 31
0.0
  0
LINE
  5
1D2
330
1D
100
AcDbEntity
  8
0
 62
     0
100
AcDbLine
 10
5.390563413546256
 20
6.016162581285606
 30
0.0
 11
5.390563413546256
 21
6.016162581285606
 31
0.0
  0
LINE
  5
1D3
330
1D
100
AcDbEntity
  8
0
 62
     0
100
AcDbLine
 10
5.682156498217448
 20
6.066215072451766
 30
0.0
 11
5.682156498217448
 21
6.066215072451766
 31
0.0
  0
LINE
  5
1D4
330
1D
100
AcDbEntity
  8
0
 62
     0
100
AcDbLine
 10
5.801964065449094
 20
5.956431663714221
 30
0.0
 11
5.801964065449094
 21
5.956431663714221
 31
0.0
  0
LINE
  5
1D5
330
1D
100
AcDbEntity
  8
0
 62
     0
100
AcDbLine
 10
5.973749582888642
 20
6.116267563617925
 30
0.0
 11
5.973749582888642
 21
6.116267563617925
 31
0.0
  0
LINE
  5
1D6
330
1D
100
AcDbEntity
  8
0
 62
     0
100
AcDbLine
 10
6.093557150120288
 20
6.00648415488038
 30
0.0
 11
6.093557150120288
 21
6.00648415488038
 31
0.0
  0
LINE
  5
1D7
330
1D
100
AcDbEntity
  8
0
 62
     0
100
AcDbLine
 10
6.265342667559836
 20
6.166320054784083
 30
0.0
 11
6.265342667559836
 21
6.166320054784083
 31
0.0
  0
LINE
  5
1D8
330
1D
100
AcDbEntity
  8
0
 62
     0
100
AcDbLine
 10
6.385150234791481
 20
6.056536646046539
 30
0.0
 11
6.385150234791481
 21
6.056536646046539
 31
0.0
  0
LINE
  5
1D9
330
1D
100
AcDbEntity
  8
0
 62
     0
100
AcDbLine
 10
6.676743319462674
 20
6.106589137212697
 30
0.0
 11
6.676743319462674
 21
6.106589137212697
 31
0.0
  0
LINE
  5
1DA
330
1D
100
AcDbEntity
  8
0
 62
     0
100
AcDbLine
 10
6.968336404133867
 20
6.156641628378856
 30
0.0
 11
6.968336404133867
 21
6.156641628378856
 31
0.0
  0
LINE
  5
1DB
330
1D
100
AcDbEntity
  8
0
 62
     0
100
AcDbLine
 10
7.159291234367689
 20
5.9816637646064
 30
0.0
 11
7.159291234367689
 21
5.9816637646064
 31
0.0
  0
LINE
  5
1DC
330
1D
100
AcDbEntity
  8
0
 62
     0
100
AcDbLine
 10
7.450884319038883
 20
6.031716255772558
 30
0.0
 11
7.450884319038883
 21
6.031716255772558
 31
0.0
  0
LINE
  5
1DD
330
1D
100
AcDbEntity
  8
0
 62
     0
100
AcDbLine
 10
7.742477403710075
 20
6.081768746938717
 30
0.0
 11
7.742477403710075
 21
6.081768746938717
 31
0.0
  0
LINE
  5
1DE
330
1D
100
AcDbEntity
  8
0
 62
     0
100
AcDbLine
 10
4.53642782292615
 20
6.164337000252043
 30
0.0
 11
4.53642782292615
 21
6.164337000252043
 31
0.0
  0
LINE
  5
1DF
330
1D
100
AcDbEntity
  8
0
 62
     0
100
AcDbLine
 10
4.244834738254955
 20
6.114284509085885
 30
0.0
 11
4.244834738254955
 21
6.114284509085885
 31
0.0
  0
LINE
  5
1E0
330
1D
100
AcDbEntity
  8
0
 62
     0
100
AcDbLine
 10
3.953241653583762
 20
6.064232017919725
 30
0.0
 11
3.953241653583762
 21
6.064232017919725
 31
0.0
  0
LINE
  5
1E1
330
1D
100
AcDbEntity
  8
0
 62
     0
100
AcDbLine
 10
3.470693738678747
 20
6.189157390526024
 30
0.0
 11
3.470693738678747
 21
6.189157390526024
 31
0.0
  0
LINE
  5
1E2
330
1D
100
AcDbEntity
  8
0
 62
     0
100
AcDbLine
 10
3.661648568912569
 20
6.014179526753568
 30
0.0
 11
3.661648568912569
 21
6.014179526753568
 31
0.0
  0
LINE
  5
1E3
330
1D
100
AcDbEntity
  8
0
 62
     0
100
AcDbLine
 10
3.179100654007555
 20
6.139104899359865
 30
0.0
 11
3.179100654007555
 21
6.139104899359865
 31
0.0
  0
LINE
  5
1E4
330
1D
100
AcDbEntity
  8
0
 62
     0
100
AcDbLine
 10
3.370055484241377
 20
5.964127035587408
 30
0.0
 11
3.370055484241377
 21
5.964127035587408
 31
0.0
  0
LINE
  5
1E5
330
1D
100
AcDbEntity
  8
0
 62
     0
100
AcDbLine
 10
2.887507569336362
 20
6.089052408193705
 30
0.0
 11
2.887507569336362
 21
6.089052408193705
 31
0.0
  0
LINE
  5
1E6
330
1D
100
AcDbEntity
  8
0
 62
     0
100
AcDbLine
 10
2.595914484665168
 20
6.038999917027546
 30
0.0
 11
2.595914484665168
 21
6.038999917027546
 31
0.0
  0
ENDBLK
  5
1E7
330
1D
100
AcDbEntity
  8
0
100
AcDbBlockEnd
  0
BLOCK
  5
1E8
330
1E
100
AcDbEntity
  8
0
100
AcDbBlockBegin
  2
*D2
 70
     1
 10
0.0
 20
0.0
 30
0.0
  3
*D2
  1

  0
LINE
  5
1E9
330
1E
100
AcDbEntity
  8
0
  6
ByBlock
 62
     0
100
AcDbLine
 10
2.542602074914315
 20
5.877305824142085
 30
0.0
 11
2.542602074914315
 21
5.40435202122053
 31
0.0
  0
LINE
  5
1EA
330
1E
100
AcDbEntity
  8
0
  6
ByBlock
 62
     0
100
AcDbLine
 10
7.942602074914314
 20
5.877305824142085
 30
0.0
 11
7.942602074914314
 21
5.40435202122053
 31
0.0
  0
LINE
  5
1EB
330
1E
100
AcDbEntity
  8
0
  6
ByBlock
 62
     0
100
AcDbLine
 10
2.642602074914315
 20
5.58435202122053
 30
0.0
 11
4.927602074914315
 21
5.58435202122053
 31
0.0
  0
LINE
  5
1EC
330
1E
100
AcDbEntity
  8
0
  6
ByBlock
 62
     0
100
AcDbLine
 10
7.842602074914315
 20
5.58435202122053
 30
0.0
 11
5.557602074914315
 21
5.58435202122053
 31
0.0
  0
SOLID
  5
1ED
330
1E
100
AcDbEntity
  8
0
  6
ByBlock
 62
     0
100
AcDbTrace
 10
2.642602074914315
 20
5.601018687887196
 30
0.0
 11
2.642602074914315
 21
5.567685354553863
 31
0.0
 12
2.542602074914315
 22
5.58435202122053
 32
0.0
 13
2.542602074914315
 23
5.58435202122053
 33
0.0
  0
SOLID
  5
1EE
330
1E
100
AcDbEntity
  8
0
  6
ByBlock
 62
     0
100
AcDbTrace
 10
7.842602074914315
 20
5.601018687887196
 30
0.0
 11
7.842602074914315
 21
5.567685354553863
 31
0.0
 12
7.942602074914314
 22
5.58435202122053
 32
0.0
 13
7.942602074914314
 23
5.58435202122053
 33
0.0
  0
TEXT
  5
1EF
330
1E
100
AcDbEntity
  8
0
  6
ByBlock
 62
     0
100
AcDbText
 10
5.017602074914315
 20
5.53435202122053
 30
0.0
 40
0.1
  1
5.4000
 72
     1
 11
5.242602074914315
 21
5.58435202122053
 31
0.0
100
AcDbText
 73
     2
  0
POINT
  5
1F1
330
1E
100
AcDbEntity
  8
DEFPOINTS
  6
ByBlock
 62
     0
100
AcDbPoint
 10
2.542602074914315
 20
5.939805824142085
 30
0.0
  0
POINT
  5
1F2
330
1E
100
AcDbEntity
  8
DEFPOINTS
  6
ByBlock
 62
     0
100
AcDbPoint
 10
7.942602074914314
 20
5.939805824142085
 30
0.0
  0
POINT
  5
1F3
330
1E
100
AcDbEntity
  8
DEFPOINTS
  6
ByBlock
 62
     0
100
AcDbPoint
 10
7.942602074914314
 20
5.58435202122053
 30
0.0
  0
ENDBLK
  5
1F4
330
1E
100
AcDbEntity
  8
0
100
AcDbBlockEnd
  0
BLOCK
  5
1F5
330
1F
100
AcDbEntity
  8
0
100
AcDbBlockBegin
  2
*D3
 70
     1
 10
0.0
 20
0.0
 30
0.0
  3
*D3
  1

  0
LINE
  5
1F6
330
1F
100
AcDbEntity
  8
0
  6
ByBlock
 62
     0
100
AcDbLine
 10
2.641439148441249
 20
9.482084108213561
 30
0.0
 11
2.641439148441249
 21
10.03462536447677
 31
0.0
  0
LINE
  5
1F7
330
1F
100
AcDbEntity
  8
0
  6
ByBlock
 62
     0
100
AcDbLine
 10
3.241439148441249
 20
9.482084108213561
 30
0.0
 11
3.241439148441249
 21
10.03462536447677
 31
0.0
  0
LINE
  5
1F8
330
1F
100
AcDbEntity
  8
0
  6
ByBlock
 62
     0
100
AcDbLine
 10
2.541439148441249
 20
9.854625364476778
 30
0.0
 11
2.441439148441248
 21
9.854625364476778
 31
0.0
  0
LINE
  5
1F9
330
1F
100
AcDbEntity
  8
0
  6
ByBlock
 62
     0
100
AcDbLine
 10
3.341439148441249
 20
9.854625364476778
 30
0.0
 11
3.441439148441249
 21
9.854625364476778
 31
0.0
  0
SOLID
  5
1FA
330
1F
100
AcDbEntity
  8
0
  6
ByBlock
 62
     0
100
AcDbTrace
 10
2.541439148441249
 20
9.871292031143445
 30
0.0
 11
2.541439148441249
 21
9.83795869781011
 31
0.0
 12
2.641439148441249
 22
9.854625364476778
 32
0.0
 13
2.641439148441249
 23
9.854625364476778
 33
0.0
  0
SOLID
  5
1FB
330
1F
100
AcDbEntity
  8
0
  6
ByBlock
 62
     0
100
AcDbTrace
 10
3.341439148441249
 20
9.871292031143445
 30
0.0
 11
3.341439148441249
 21
9.83795869781011
 31
0.0
 12
3.241439148441249
 22
9.854625364476778
 32
0.0
 13
3.241439148441249
 23
9.854625364476778
 33
0.0
  0
TEXT
  5
1FC
330
1F
100
AcDbEntity
  8
0
  6
ByBlock
 62
     0
100
AcDbText
 10
3.531439148441249
 20
9.804625364476777
 30
0.0
 40
0.1
  1
0.6000
 72
     1
 11
3.748105815107916
 21
9.854625364476778
 31
0.0
100
AcDbText
 73
     2
  0
POINT
  5
1FD
330
1F
100
AcDbEntity
  8
DEFPOINTS
  6
ByBlock
 62
     0
100
AcDbPoint
 10
2.641439148441249
 20
9.419584108213561
 30
0.0
  0
POINT
  5
1FE
330
1F
100
AcDbEntity
  8
DEFPOINTS
  6
ByBlock
 62
     0
100
AcDbPoint
 10
3.241439148441249
 20
9.419584108213561
 30
0.0
  0
POINT
  5
1FF
330
1F
100
AcDbEntity
  8
DEFPOINTS
  6
ByBlock
 62
     0
100
AcDbPoint
 10
3.241439148441249
 20
9.854625364476778
 30
0.0
  0
ENDBLK
  5
200
330
1F
100
AcDbEntity
  8
0
100
AcDbBlockEnd
  0
BLOCK
  5
201
330
20
100
AcDbEntity
  8
0
100
AcDbBlockBegin
  2
*D4
 70
     1
 10
0.0
 20
0.0
 30
0.0
  3
*D4
  1

  0
LINE
  5
202
330
20
100
AcDbEntity
  8
0
  6
ByBlock
 62
     0
100
AcDbLine
 10
7.830891850865323
 20
9.482084108213561
 30
0.0
 11
7.830891850865323
 21
10.02317690792048
 31
0.0
  0
LINE
  5
203
330
20
100
AcDbEntity
  8
0
  6
ByBlock
 62
     0
100
AcDbLine
 10
7.441439148441249
 20
9.482084108213561
 30
0.0
 11
7.441439148441249
 21
10.02317690792048
 31
0.0
  0
LINE
  5
204
330
20
100
AcDbEntity
  8
0
  6
ByBlock
 62
     0
100
AcDbLine
 10
7.930891850865323
 20
9.843176907920485
 30
0.0
 11
8.030891850865323
 21
9.843176907920485
 31
0.0
  0
LINE
  5
205
330
20
100
AcDbEntity
  8
0
  6
ByBlock
 62
     0
100
AcDbLine
 10
7.341439148441249
 20
9.843176907920485
 30
0.0
 11
7.241439148441249
 21
9.843176907920485
 31
0.0
  0
SOLID
  5
206
330
20
100
AcDbEntity
  8
0
  6
ByBlock
 62
     0
100
AcDbTrace
 10
7.930891850865323
 20
9.859843574587152
 30
0.0
 11
7.930891850865323
 21
9.826510241253817
 31
0.0
 12
7.830891850865323
 22
9.843176907920485
 32
0.0
 13
7.830891850865323
 23
9.843176907920485
 33
0.0
  0
SOLID
  5
207
330
20
100
AcDbEntity
  8
0
  6
ByBlock
 62
     0
100
AcDbTrace
 10
7.341439148441249
 20
9.859843574587152
 30
0.0
 11
7.341439148441249
 21
9.826510241253817
 31
0.0
 12
7.441439148441249
 22
9.843176907920485
 32
0.0
 13
7.441439148441249
 23
9.843176907920485
 33
0.0
  0
TEXT
  5
208
330
20
100
AcDbEntity
  8
0
  6
ByBlock
 62
     0
100
AcDbText
 10
6.668105815107916
 20
9.793176907920484
 30
0.0
 40
0.1
  1
0.3895
 72
     1
 11
6.909772481774582
 21
9.843176907920485
 31
0.0
100
AcDbText
 73
     2
  0
POINT
  5
209
330
20
100
AcDbEntity
  8
DEFPOINTS
  6
ByBlock
 62
     0
100
AcDbPoint
 10
7.830891850865323
 20
9.419584108213561
 30
0.0
  0
POINT
  5
20A
330
20
100
AcDbEntity
  8
DEFPOINTS
  6
ByBlock
 62
     0
100
AcDbPoint
 10
7.441439148441249
 20
9.419584108213561
 30
0.0
  0
POINT
  5
20B
330
20
100
AcDbEntity
  8
DEFPOINTS
  6
ByBlock
 62
     0
100
AcDbPoint
 10
7.441439148441249
 20
9.843176907920485
 30
0.0
  0
ENDBLK
  5
20C
330
20
100
AcDbEntity
  8
0
100
AcDbBlockEnd
  0
BLOCK
  5
20D
330
21
100
AcDbEntity
  8
0
100
AcDbBlockBegin
  2
*D5
 70
     1
 10
0.0
 20
0.0
 30
0.0
  3
*D5
  1

  0
LINE
  5
20E
330
21
100
AcDbEntity
  8
0
  6
ByBlock
 62
     0
100
AcDbLine
 10
5.041439148441249
 20
9.482084108213561
 30
0.0
 11
5.041439148441249
 21
10.05752225317291
 31
0.0
  0
LINE
  5
20F
330
21
100
AcDbEntity
  8
0
  6
ByBlock
 62
     0
100
AcDbLine
 10
5.641439148441248
 20
9.482084108213561
 30
0.0
 11
5.641439148441248
 21
10.05752225317291
 31
0.0
  0
LINE
  5
210
330
21
100
AcDbEntity
  8
0
  6
ByBlock
 62
     0
100
AcDbLine
 10
4.941439148441249
 20
9.877522253172919
 30
0.0
 11
4.841439148441248
 21
9.877522253172919
 31
0.0
  0
LINE
  5
211
330
21
100
AcDbEntity
  8
0
  6
ByBlock
 62
     0
100
AcDbLine
 10
5.741439148441248
 20
9.877522253172919
 30
0.0
 11
5.841439148441248
 21
9.877522253172919
 31
0.0
  0
SOLID
  5
212
330
21
100
AcDbEntity
  8
0
  6
ByBlock
 62
     0
100
AcDbTrace
 10
4.941439148441249
 20
9.894188919839587
 30
0.0
 11
4.941439148441249
 21
9.860855586506252
 31
0.0
 12
5.041439148441249
 22
9.877522253172919
 32
0.0
 13
5.041439148441249
 23
9.877522253172919
 33
0.0
  0
SOLID
  5
213
330
21
100
AcDbEntity
  8
0
  6
ByBlock
 62
     0
100
AcDbTrace
 10
5.741439148441248
 20
9.894188919839587
 30
0.0
 11
5.741439148441248
 21
9.860855586506252
 31
0.0
 12
5.641439148441248
 22
9.877522253172919
 32
0.0
 13
5.641439148441248
 23
9.877522253172919
 33
0.0
  0
TEXT
  5
214
330
21
100
AcDbEntity
  8
0
  6
ByBlock
 62
     0
100
AcDbText
 10
5.931439148441248
 20
9.827522253172919
 30
0.0
 40
0.1
  1
0.6000
 72
     1
 11
6.148105815107915
 21
9.877522253172919
 31
0.0
100
AcDbText
 73
     2
  0
POINT
  5
215
330
21
100
AcDbEntity
  8
DEFPOINTS
  6
ByBlock
 62
     0
100
AcDbPoint
 10
5.041439148441249
 20
9.419584108213561
 30
0.0
  0
POINT
  5
216
330
21
100
AcDbEntity
  8
DEFPOINTS
  6
ByBlock
 62
     0
100
AcDbPoint
 10
5.641439148441248
 20
9.419584108213561
 30
0.0
  0
POINT
  5
217
330
21
100
AcDbEntity
  8
DEFPOINTS
  6
ByBlock
 62
     0
100
AcDbPoint
 10
5.641439148441248
 20
9.877522253172919
 30
0.0
  0
ENDBLK
  5
218
330
21
100
AcDbEntity
  8
0
100
AcDbBlockEnd
  0
BLOCK
  5
219
330
22
100
AcDbEntity
  8
0
100
AcDbBlockBegin
  2
*D6
 70
     1
 10
0.0
 20
0.0
 30
0.0
  3
*D6
  1

  0
LINE
  5
21A
330
22
100
AcDbEntity
  8
0
  6
ByBlock
 62
     0
100
AcDbLine
 10
2.480102074914315
 20
5.939805824142085
 30
0.0
 11
1.373262516903863
 21
5.939805824142085
 31
0.0
  0
LINE
  5
21B
330
22
100
AcDbEntity
  8
0
  6
ByBlock
 62
     0
100
AcDbLine
 10
2.480102074914315
 20
6.189805824142085
 30
0.0
 11
1.373262516903863
 21
6.189805824142085
 31
0.0
  0
LINE
  5
21C
330
22
100
AcDbEntity
  8
0
  6
ByBlock
 62
     0
100
AcDbLine
 10
1.553262516903862
 20
5.839805824142085
 30
0.0
 11
1.553262516903862
 21
5.739805824142084
 31
0.0
  0
LINE
  5
21D
330
22
100
AcDbEntity
  8
0
  6
ByBlock
 62
     0
100
AcDbLine
 10
1.553262516903862
 20
6.289805824142084
 30
0.0
 11
1.553262516903862
 21
6.389805824142085
 31
0.0
  0
LINE
  5
21E
330
22
100
AcDbEntity
  8
0
  6
ByBlock
 62
     0
100
AcDbLine
 10
1.553262516903862
 20
6.389805824142085
 30
0.0
 11
1.653262516903863
 21
6.389805824142085
 31
0.0
  0
SOLID
  5
21F
330
22
100
AcDbEntity
  8
0
  6
ByBlock
 62
     0
100
AcDbTrace
 10
1.536595850237196
 20
5.839805824142085
 30
0.0
 11
1.569929183570529
 21
5.839805824142085
 31
0.0
 12
1.553262516903862
 22
5.939805824142085
 32
0.0
 13
1.553262516903862
 23
5.939805824142085
 33
0.0
  0
SOLID
  5
220
330
22
100
AcDbEntity
  8
0
  6
ByBlock
 62
     0
100
AcDbTrace
 10
1.536595850237196
 20
6.289805824142084
 30
0.0
 11
1.569929183570529
 21
6.289805824142084
 31
0.0
 12
1.553262516903862
 22
6.189805824142085
 32
0.0
 13
1.553262516903862
 23
6.189805824142085
 33
0.0
  0
TEXT
  5
221
330
22
100
AcDbEntity
  8
0
  6
ByBlock
 62
     0
100
AcDbText
 10
1.743262516903862
 20
6.339805824142085
 30
0.0
 40
0.1
  1
0.2500
 72
     1
 11
1.968262516903863
 21
6.389805824142085
 31
0.0
100
AcDbText
 73
     2
  0
POINT
  5
222
330
22
100
AcDbEntity
  8
DEFPOINTS
  6
ByBlock
 62
     0
100
AcDbPoint
 10
2.542602074914315
 20
5.939805824142085
 30
0.0
  0
POINT
  5
223
330
22
100
AcDbEntity
  8
DEFPOINTS
  6
ByBlock
 62
     0
100
AcDbPoint
 10
2.542602074914315
 20
6.189805824142085
 30
0.0
  0
POINT
  5
224
330
22
100
AcDbEntity
  8
DEFPOINTS
  6
ByBlock
 62
     0
100
AcDbPoint
 10
1.553262516903862
 20
6.189805824142085
 30
0.0
  0
ENDBLK
  5
225
330
22
100
AcDbEntity
  8
0
100
AcDbBlockEnd
  0
BLOCK
  5
226
330
23
100
AcDbEntity
  8
0
100
AcDbBlockBegin
  2
*D7
 70
     1
 10
0.0
 20
0.0
 30
0.0
  3
*D7
  1

  0
LINE
  5
227
330
23
100
AcDbEntity
  8
0
  6
ByBlock
 62
     0
100
AcDbLine
 10
8.005102074914315
 20
6.189805824142083
 30
0.0
 11
8.136322719715005
 21
6.189805824142083
 31
0.0
  0
LINE
  5
228
330
23
100
AcDbEntity
  8
0
  6
ByBlock
 62
     0
100
AcDbLine
 10
7.893822719715005
 20
6.589805824142085
 30
0.0
 11
7.776322719715006
 21
6.589805824142085
 31
0.0
  0
LINE
  5
229
330
23
100
AcDbEntity
  8
0
  6
ByBlock
 62
     0
100
AcDbLine
 10
7.956322719715005
 20
6.089805824142083
 30
0.0
 11
7.956322719715005
 21
5.989805824142083
 31
0.0
  0
LINE
  5
22A
330
23
100
AcDbEntity
  8
0
  6
ByBlock
 62
     0
100
AcDbLine
 10
7.956322719715005
 20
6.689805824142085
 30
0.0
 11
7.956322719715005
 21
6.789805824142085
 31
0.0
  0
LINE
  5
22B
330
23
100
AcDbEntity
  8
0
  6
ByBlock
 62
     0
100
AcDbLine
 10
7.956322719715005
 20
6.789805824142085
 30
0.0
 11
8.056322719715005
 21
6.789805824142085
 31
0.0
  0
SOLID
  5
22C
330
23
100
AcDbEntity
  8
0
  6
ByBlock
 62
     0
100
AcDbTrace
 10
7.939656053048339
 20
6.089805824142083
 30
0.0
 11
7.972989386381672
 21
6.089805824142083
 31
0.0
 12
7.956322719715005
 22
6.189805824142083
 32
0.0
 13
7.956322719715005
 23
6.189805824142083
 33
0.0
  0
SOLID
  5
22D
330
23
100
AcDbEntity
  8
0
  6
ByBlock
 62
     0
100
AcDbTrace
 10
7.939656053048339
 20
6.689805824142085
 30
0.0
 11
7.972989386381672
 21
6.689805824142085
 31
0.0
 12
7.956322719715005
 22
6.589805824142085
 32
0.0
 13
7.956322719715005
 23
6.589805824142085
 33
0.0
  0
TEXT
  5
22E
330
23
100
AcDbEntity
  8
0
  6
ByBlock
 62
     0
100
AcDbText
 10
8.146322719715005
 20
6.739805824142085
 30
0.0
 40
0.1
  1
0.4000
 72
     1
 11
8.362989386381672
 21
6.789805824142085
 31
0.0
100
AcDbText
 73
     2
  0
POINT
  5
22F
330
23
100
AcDbEntity
  8
DEFPOINTS
  6
ByBlock
 62
     0
100
AcDbPoint
 10
7.942602074914314
 20
6.189805824142083
 30
0.0
  0
POINT
  5
230
330
23
100
AcDbEntity
  8
DEFPOINTS
  6
ByBlock
 62
     0
100
AcDbPoint
 10
7.956322719715005
 20
6.589805824142085
 30
0.0
  0
POINT
  5
231
330
23
100
AcDbEntity
  8
DEFPOINTS
  6
ByBlock
 62
     0
100
AcDbPoint
 10
7.956322719715005
 20
6.589805824142085
 30
0.0
  0
ENDBLK
  5
232
330
23
100
AcDbEntity
  8
0
100
AcDbBlockEnd
  0
BLOCK
  5
233
330
24
100
AcDbEntity
  8
0
100
AcDbBlockBegin
  2
*D8
 70
     1
 10
0.0
 20
0.0
 30
0.0
  3
*D8
  1

  0
LINE
  5
234
330
24
100
AcDbEntity
  8
0
  6
ByBlock
 62
     0
100
AcDbLine
 10
2.480102074914315
 20
6.589805824142085
 30
0.0
 11
1.819987673436821
 21
6.589805824142085
 31
0.0
  0
LINE
  5
235
330
24
100
AcDbEntity
  8
0
  6
ByBlock
 62
     0
100
AcDbLine
 10
2.480102074914315
 20
9.489805824142084
 30
0.0
 11
1.819987673436821
 21
9.489805824142084
 31
0.0
  0
LINE
  5
236
330
24
100
AcDbEntity
  8
0
  6
ByBlock
 62
     0
100
AcDbLine
 10
1.999987673436821
 20
6.689805824142085
 30
0.0
 11
1.999987673436821
 21
7.899805824142085
 31
0.0
  0
LINE
  5
237
330
24
100
AcDbEntity
  8
0
  6
ByBlock
 62
     0
100
AcDbLine
 10
1.999987673436821
 20
9.389805824142085
 30
0.0
 11
1.999987673436821
 21
8.179805824142086
 31
0.0
  0
SOLID
  5
238
330
24
100
AcDbEntity
  8
0
  6
ByBlock
 62
     0
100
AcDbTrace
 10
1.983321006770155
 20
6.689805824142085
 30
0.0
 11
2.016654340103488
 21
6.689805824142085
 31
0.0
 12
1.999987673436821
 22
6.589805824142085
 32
0.0
 13
1.999987673436821
 23
6.589805824142085
 33
0.0
  0
SOLID
  5
239
330
24
100
AcDbEntity
  8
0
  6
ByBlock
 62
     0
100
AcDbTrace
 10
1.983321006770155
 20
9.389805824142085
 30
0.0
 11
2.016654340103488
 21
9.389805824142085
 31
0.0
 12
1.999987673436821
 22
9.489805824142084
 32
0.0
 13
1.999987673436821
 23
9.489805824142084
 33
0.0
  0
TEXT
  5
23A
330
24
100
AcDbEntity
  8
0
  6
ByBlock
 62
     0
100
AcDbText
 10
1.774987673436821
 20
7.989805824142085
 30
0.0
 40
0.1
  1
2.9000
 72
     1
 11
1.999987673436821
 21
8.039805824142085
 31
0.0
100
AcDbText
 73
     2
  0
POINT
  5
23B
330
24
100
AcDbEntity
  8
DEFPOINTS
  6
ByBlock
 62
     0
100
AcDbPoint
 10
2.542602074914315
 20
6.589805824142085
 30
0.0
  0
POINT
  5
23C
330
24
100
AcDbEntity
  8
DEFPOINTS
  6
ByBlock
 62
     0
100
AcDbPoint
 10
2.542602074914315
 20
9.489805824142084
 30
0.0
  0
POINT
  5
23D
330
24
100
AcDbEntity
  8
DEFPOINTS
  6
ByBlock
 62
     0
100
AcDbPoint
 10
1.999987673436821
 20
9.489805824142084
 30
0.0
  0
ENDBLK
  5
23E
330
24
100
AcDbEntity
  8
0
100
AcDbBlockEnd
  0
BLOCK
  5
23F
330
25
100
AcDbEntity
  8
0
100
AcDbBlockBegin
  2
*D9
 70
     1
 10
0.0
 20
0.0
 30
0.0
  3
*D9
  1

  0
LINE
  5
240
330
25
100
AcDbEntity
  8
0
  6
ByBlock
 62
     0
100
AcDbLine
 10
10.5831537772878
 20
5.939805824142085
 30
0.0
 11
9.471169550091676
 21
5.939805824142085
 31
0.0
  0
LINE
  5
241
330
25
100
AcDbEntity
  8
0
  6
ByBlock
 62
     0
100
AcDbLine
 10
10.5831537772878
 20
6.189805824142085
 30
0.0
 11
9.471169550091676
 21
6.189805824142085
 31
0.0
  0
LINE
  5
242
330
25
100
AcDbEntity
  8
0
  6
ByBlock
 62
     0
100
AcDbLine
 10
9.651169550091676
 20
5.839805824142085
 30
0.0
 11
9.651169550091676
 21
5.739805824142084
 31
0.0
  0
LINE
  5
243
330
25
100
AcDbEntity
  8
0
  6
ByBlock
 62
     0
100
AcDbLine
 10
9.651169550091676
 20
6.289805824142084
 30
0.0
 11
9.651169550091676
 21
6.389805824142085
 31
0.0
  0
LINE
  5
244
330
25
100
AcDbEntity
  8
0
  6
ByBlock
 62
     0
100
AcDbLine
 10
9.651169550091676
 20
6.389805824142085
 30
0.0
 11
9.751169550091676
 21
6.389805824142085
 31
0.0
  0
SOLID
  5
245
330
25
100
AcDbEntity
  8
0
  6
ByBlock
 62
     0
100
AcDbTrace
 10
9.634502883425009
 20
5.839805824142085
 30
0.0
 11
9.667836216758344
 21
5.839805824142085
 31
0.0
 12
9.651169550091676
 22
5.939805824142085
 32
0.0
 13
9.651169550091676
 23
5.939805824142085
 33
0.0
  0
SOLID
  5
246
330
25
100
AcDbEntity
  8
0
  6
ByBlock
 62
     0
100
AcDbTrace
 10
9.634502883425009
 20
6.289805824142084
 30
0.0
 11
9.667836216758344
 21
6.289805824142084
 31
0.0
 12
9.651169550091676
 22
6.189805824142085
 32
0.0
 13
9.651169550091676
 23
6.189805824142085
 33
0.0
  0
TEXT
  5
247
330
25
100
AcDbEntity
  8
0
  6
ByBlock
 62
     0
100
AcDbText
 10
9.841169550091676
 20
6.339805824142085
 30
0.0
 40
0.1
  1
0.2500
 72
     1
 11
10.06616955009167
 21
6.389805824142085
 31
0.0
100
AcDbText
 73
     2
  0
POINT
  5
248
330
25
100
AcDbEntity
  8
DEFPOINTS
  6
ByBlock
 62
     0
100
AcDbPoint
 10
10.6456537772878
 20
5.939805824142085
 30
0.0
  0
POINT
  5
249
330
25
100
AcDbEntity
  8
DEFPOINTS
  6
ByBlock
 62
     0
100
AcDbPoint
 10
10.6456537772878
 20
6.189805824142085
 30
0.0
  0
POINT
  5
24A
330
25
100
AcDbEntity
  8
DEFPOINTS
  6
ByBlock
 62
     0
100
AcDbPoint
 10
9.651169550091676
 20
6.189805824142085
 30
0.0
  0
ENDBLK
  5
24B
330
25
100
AcDbEntity
  8
0
100
AcDbBlockEnd
  0
BLOCK
  5
24C
330
26
100
AcDbEntity
  8
0
100
AcDbBlockBegin
  2
*D10
 70
     1
 10
0.0
 20
0.0
 30
0.0
  3
*D10
  1

  0
LINE
  5
24D
330
26
100
AcDbEntity
  8
0
  6
ByBlock
 62
     0
100
AcDbLine
 10
10.99998150395681
 20
6.189810622072412
 30
0.0
 11
11.58286801497834
 21
6.189810622072412
 31
0.0
  0
LINE
  5
24E
330
26
100
AcDbEntity
  8
0
  6
ByBlock
 62
     0
100
AcDbLine
 10
10.99998150395681
 20
6.589805824142086
 30
0.0
 11
11.58286801497834
 21
6.589805824142086
 31
0.0
  0
LINE
  5
24F
330
26
100
AcDbEntity
  8
0
  6
ByBlock
 62
     0
100
AcDbLine
 10
11.40286801497834
 20
6.089810622072413
 30
0.0
 11
11.40286801497834
 21
5.989810622072412
 31
0.0
  0
LINE
  5
250
330
26
100
AcDbEntity
  8
0
  6
ByBlock
 62
     0
100
AcDbLine
 10
11.40286801497834
 20
6.689805824142085
 30
0.0
 11
11.40286801497834
 21
6.789805824142086
 31
0.0
  0
LINE
  5
251
330
26
100
AcDbEntity
  8
0
  6
ByBlock
 62
     0
100
AcDbLine
 10
11.40286801497834
 20
6.789805824142086
 30
0.0
 11
11.50286801497834
 21
6.789805824142086
 31
0.0
  0
SOLID
  5
252
330
26
100
AcDbEntity
  8
0
  6
ByBlock
 62
     0
100
AcDbTrace
 10
11.38620134831167
 20
6.089810622072413
 30
0.0
 11
11.41953468164501
 21
6.089810622072413
 31
0.0
 12
11.40286801497834
 22
6.189810622072412
 32
0.0
 13
11.40286801497834
 23
6.189810622072412
 33
0.0
  0
SOLID
  5
253
330
26
100
AcDbEntity
  8
0
  6
ByBlock
 62
     0
100
AcDbTrace
 10
11.38620134831167
 20
6.689805824142085
 30
0.0
 11
11.41953468164501
 21
6.689805824142085
 31
0.0
 12
11.40286801497834
 22
6.589805824142086
 32
0.0
 13
11.40286801497834
 23
6.589805824142086
 33
0.0
  0
TEXT
  5
254
330
26
100
AcDbEntity
  8
0
  6
ByBlock
 62
     0
100
AcDbText
 10
11.59286801497834
 20
6.739805824142086
 30
0.0
 40
0.1
  1
0.4000
 72
     1
 11
11.80953468164501
 21
6.789805824142086
 31
0.0
100
AcDbText
 73
     2
  0
POINT
  5
255
330
26
100
AcDbEntity
  8
DEFPOINTS
  6
ByBlock
 62
     0
100
AcDbPoint
 10
10.93748150395681
 20
6.189810622072412
 30
0.0
  0
POINT
  5
256
330
26
100
AcDbEntity
  8
DEFPOINTS
  6
ByBlock
 62
     0
100
AcDbPoint
 10
10.93748150395681
 20
6.589805824142086
 30
0.0
  0
POINT
  5
257
330
26
100
AcDbEntity
  8
DEFPOINTS
  6
ByBlock
 62
     0
100
AcDbPoint
 10
11.40286801497834
 20
6.589805824142086
 30
0.0
  0
ENDBLK
  5
258
330
26
100
AcDbEntity
  8
0
100
AcDbBlockEnd
  0
BLOCK
  5
259
330
27
100
AcDbEntity
  8
0
100
AcDbBlockBegin
  2
*D11
 70
     1
 10
0.0
 20
0.0
 30
0.0
  3
*D11
  1

  0
LINE
  5
25A
330
27
100
AcDbEntity
  8
0
  6
ByBlock
 62
     0
100
AcDbLine
 10
10.67498150395681
 20
6.589805824142086
 30
0.0
 11
9.728137862027663
 21
6.589805824142086
 31
0.0
  0
LINE
  5
25B
330
27
100
AcDbEntity
  8
0
  6
ByBlock
 62
     0
100
AcDbLine
 10
10.67498150395681
 20
9.489810622072411
 30
0.0
 11
9.728137862027663
 21
9.489810622072411
 31
0.0
  0
LINE
  5
25C
330
27
100
AcDbEntity
  8
0
  6
ByBlock
 62
     0
100
AcDbLine
 10
9.908137862027663
 20
6.689805824142085
 30
0.0
 11
9.908137862027663
 21
7.899808223107249
 31
0.0
  0
LINE
  5
25D
330
27
100
AcDbEntity
  8
0
  6
ByBlock
 62
     0
100
AcDbLine
 10
9.908137862027663
 20
9.389810622072412
 30
0.0
 11
9.908137862027663
 21
8.179808223107249
 31
0.0
  0
SOLID
  5
25E
330
27
100
AcDbEntity
  8
0
  6
ByBlock
 62
     0
100
AcDbTrace
 10
9.891471195360995
 20
6.689805824142085
 30
0.0
 11
9.92480452869433
 21
6.689805824142085
 31
0.0
 12
9.908137862027663
 22
6.589805824142086
 32
0.0
 13
9.908137862027663
 23
6.589805824142086
 33
0.0
  0
SOLID
  5
25F
330
27
100
AcDbEntity
  8
0
  6
ByBlock
 62
     0
100
AcDbTrace
 10
9.891471195360995
 20
9.389810622072412
 30
0.0
 11
9.92480452869433
 21
9.389810622072412
 31
0.0
 12
9.908137862027663
 22
9.489810622072411
 32
0.0
 13
9.908137862027663
 23
9.489810622072411
 33
0.0
  0
TEXT
  5
260
330
27
100
AcDbEntity
  8
0
  6
ByBlock
 62
     0
100
AcDbText
 10
9.683137862027663
 20
7.989808223107249
 30
0.0
 40
0.1
  1
2.9000
 72
     1
 11
9.908137862027663
 21
8.039808223107248
 31
0.0
100
AcDbText
 73
     2
  0
POINT
  5
261
330
27
100
AcDbEntity
  8
DEFPOINTS
  6
ByBlock
 62
     0
100
AcDbPoint
 10
10.73748150395681
 20
6.589805824142086
 30
0.0
  0
POINT
  5
262
330
27
100
AcDbEntity
  8
DEFPOINTS
  6
ByBlock
 62
     0
100
AcDbPoint
 10
10.73748150395681
 20
9.489810622072411
 30
0.0
  0
POINT
  5
263
330
27
100
AcDbEntity
  8
DEFPOINTS
  6
ByBlock
 62
     0
100
AcDbPoint
 10
9.908137862027663
 20
9.489810622072411
 30
0.0
  0
ENDBLK
  5
264
330
27
100
AcDbEntity
  8
0
100
AcDbBlockEnd
  0
BLOCK
  5
265
330
28
100
AcDbEntity
  8
0
100
AcDbBlockBegin
  2
*D12
 70
     1
 10
0.0
 20
0.0
 30
0.0
  3
*D12
  1

  0
LINE
  5
266
330
28
100
AcDbEntity
  8
0
  6
ByBlock
 62
     0
100
AcDbLine
 10
10.99998150395681
 20
9.489810622072411
 30
0.0
 11
11.89553850795867
 21
9.489810622072411
 31
0.0
  0
LINE
  5
267
330
28
100
AcDbEntity
  8
0
  6
ByBlock
 62
     0
100
AcDbLine
 10
10.99998150395681
 20
9.289810622072412
 30
0.0
 11
11.89553850795867
 21
9.289810622072412
 31
0.0
  0
LINE
  5
268
330
28
100
AcDbEntity
  8
0
  6
ByBlock
 62
     0
100
AcDbLine
 10
11.71553850795867
 20
9.589810622072411
 30
0.0
 11
11.71553850795867
 21
9.68981062207241
 31
0.0
  0
LINE
  5
269
330
28
100
AcDbEntity
  8
0
  6
ByBlock
 62
     0
100
AcDbLine
 10
11.71553850795867
 20
9.189810622072412
 30
0.0
 11
11.71553850795867
 21
9.089810622072413
 31
0.0
  0
LINE
  5
26A
330
28
100
AcDbEntity
  8
0
  6
ByBlock
 62
     0
100
AcDbLine
 10
11.71553850795867
 20
9.089810622072413
 30
0.0
 11
11.61553850795867
 21
9.089810622072413
 31
0.0
  0
SOLID
  5
26B
330
28
100
AcDbEntity
  8
0
  6
ByBlock
 62
     0
100
AcDbTrace
 10
11.698871841292
 20
9.589810622072411
 30
0.0
 11
11.73220517462534
 21
9.589810622072411
 31
0.0
 12
11.71553850795867
 22
9.489810622072411
 32
0.0
 13
11.71553850795867
 23
9.489810622072411
 33
0.0
  0
SOLID
  5
26C
330
28
100
AcDbEntity
  8
0
  6
ByBlock
 62
     0
100
AcDbTrace
 10
11.698871841292
 20
9.189810622072412
 30
0.0
 11
11.73220517462534
 21
9.189810622072412
 31
0.0
 12
11.71553850795867
 22
9.289810622072412
 32
0.0
 13
11.71553850795867
 23
9.289810622072412
 33
0.0
  0
TEXT
  5
26D
330
28
100
AcDbEntity
  8
0
  6
ByBlock
 62
     0
100
AcDbText
 10
11.09220517462534
 20
9.039810622072412
 30
0.0
 40
0.1
  1
0.2000
 72
     1
 11
11.308871841292
 21
9.089810622072413
 31
0.0
100
AcDbText
 73
     2
  0
POINT
  5
26E
330
28
100
AcDbEntity
  8
DEFPOINTS
  6
ByBlock
 62
     0
100
AcDbPoint
 10
10.93748150395681
 20
9.489810622072411
 30
0.0
  0
POINT
  5
26F
330
28
100
AcDbEntity
  8
DEFPOINTS
  6
ByBlock
 62
     0
100
AcDbPoint
 10
10.93748150395681
 20
9.289810622072412
 30
0.0
  0
POINT
  5
270
330
28
100
AcDbEntity
  8
DEFPOINTS
  6
ByBlock
 62
     0
100
AcDbPoint
 10
11.71553850795867
 20
9.289810622072412
 30
0.0
  0
ENDBLK
  5
271
330
28
100
AcDbEntity
  8
0
100
AcDbBlockEnd
  0
BLOCK
  5
272
330
29
100
AcDbEntity
  8
0
100
AcDbBlockBegin
  2
*D13
 70
     1
 10
0.0
 20
0.0
 30
0.0
  3
*D13
  1

  0
LINE
  5
273
330
29
100
AcDbEntity
  8
0
  6
ByBlock
 62
     0
100
AcDbLine
 10
2.455367563618938
 20
0.3148153796489606
 30
0.0
 11
2.455367563618938
 21
-0.0976463065631867
 31
0.0
  0
LINE
  5
274
330
29
100
AcDbEntity
  8
0
  6
ByBlock
 62
     0
100
AcDbLine
 10
5.088452533413216
 20
0.3148153796489606
 30
0.0
 11
5.088452533413216
 21
-0.0976463065631867
 31
0.0
  0
LINE
  5
275
330
29
100
AcDbEntity
  8
0
  6
ByBlock
 62
     0
100
AcDbLine
 10
2.555367563618939
 20
0.0823536934368133
 30
0.0
 11
3.548576715182744
 21
0.0823536934368133
 31
0.0
  0
LINE
  5
276
330
29
100
AcDbEntity
  8
0
  6
ByBlock
 62
     0
100
AcDbLine
 10
4.988452533413217
 20
0.0823536934368133
 30
0.0
 11
3.995243381849411
 21
0.0823536934368133
 31
0.0
  0
SOLID
  5
277
330
29
100
AcDbEntity
  8
0
  6
ByBlock
 62
     0
100
AcDbTrace
 10
2.555367563618939
 20
0.09902036010348
 30
0.0
 11
2.555367563618939
 21
0.0656870267701466
 31
0.0
 12
2.455367563618938
 22
0.0823536934368133
 32
0.0
 13
2.455367563618938
 23
0.0823536934368133
 33
0.0
  0
SOLID
  5
278
330
29
100
AcDbEntity
  8
0
  6
ByBlock
 62
     0
100
AcDbTrace
 10
4.988452533413217
 20
0.09902036010348
 30
0.0
 11
4.988452533413217
 21
0.0656870267701466
 31
0.0
 12
5.088452533413216
 22
0.0823536934368133
 32
0.0
 13
5.088452533413216
 23
0.0823536934368133
 33
0.0
  0
TEXT
  5
279
330
29
100
AcDbEntity
  8
0
  6
ByBlock
 62
     0
100
AcDbText
 10
3.638576715182744
 20
0.0323536934368133
 30
0.0
 40
0.1
  1
0.40
 72
     1
 11
3.771910048516077
 21
0.0823536934368133
 31
0.0
100
AcDbText
 73
     2
  0
POINT
  5
27A
330
29
100
AcDbEntity
  8
DEFPOINTS
  6
ByBlock
 62
     0
100
AcDbPoint
 10
2.455367563618938
 20
0.3773153796489606
 30
0.0
  0
POINT
  5
27B
330
29
100
AcDbEntity
  8
DEFPOINTS
  6
ByBlock
 62
     0
100
AcDbPoint
 10
5.088452533413216
 20
0.3773153796489606
 30
0.0
  0
POINT
  5
27C
330
29
100
AcDbEntity
  8
DEFPOINTS
  6
ByBlock
 62
     0
100
AcDbPoint
 10
5.088452533413216
 20
0.0823536934368133
 30
0.0
  0
ENDBLK
  5
27D
330
29
100
AcDbEntity
  8
0
100
AcDbBlockEnd
  0
BLOCK
  5
27E
330
2A
100
AcDbEntity
  8
0
100
AcDbBlockBegin
  2
*D14
 70
     1
 10
0.0
 20
0.0
 30
0.0
  3
*D14
  1

  0
LINE
  5
27F
330
2A
100
AcDbEntity
  8
0
  6
ByBlock
 62
     0
100
AcDbLine
 10
5.150952533413216
 20
2.022993485770383
 30
0.0
 11
5.825942975579763
 21
2.022993485770383
 31
0.0
  0
LINE
  5
280
330
2A
100
AcDbEntity
  8
0
  6
ByBlock
 62
     0
100
AcDbLine
 10
5.150952533413216
 20
0.3773153796489606
 30
0.0
 11
5.825942975579763
 21
0.3773153796489606
 31
0.0
  0
LINE
  5
281
330
2A
100
AcDbEntity
  8
0
  6
ByBlock
 62
     0
100
AcDbLine
 10
5.645942975579763
 20
1.922993485770383
 30
0.0
 11
5.645942975579763
 21
1.340154432709672
 31
0.0
  0
LINE
  5
282
330
2A
100
AcDbEntity
  8
0
  6
ByBlock
 62
     0
100
AcDbLine
 10
5.645942975579763
 20
0.4773153796489606
 30
0.0
 11
5.645942975579763
 21
1.060154432709671
 31
0.0
  0
SOLID
  5
283
330
2A
100
AcDbEntity
  8
0
  6
ByBlock
 62
     0
100
AcDbTrace
 10
5.629276308913096
 20
1.922993485770383
 30
0.0
 11
5.66260964224643
 21
1.922993485770383
 31
0.0
 12
5.645942975579763
 22
2.022993485770383
 32
0.0
 13
5.645942975579763
 23
2.022993485770383
 33
0.0
  0
SOLID
  5
284
330
2A
100
AcDbEntity
  8
0
  6
ByBlock
 62
     0
100
AcDbTrace
 10
5.629276308913096
 20
0.4773153796489606
 30
0.0
 11
5.66260964224643
 21
0.4773153796489606
 31
0.0
 12
5.645942975579763
 22
0.3773153796489606
 32
0.0
 13
5.645942975579763
 23
0.3773153796489606
 33
0.0
  0
TEXT
  5
285
330
2A
100
AcDbEntity
  8
0
  6
ByBlock
 62
     0
100
AcDbText
 10
5.504276308913096
 20
1.150154432709671
 30
0.0
 40
0.1
  1
0.25
 72
     1
 11
5.645942975579763
 21
1.200154432709672
 31
0.0
100
AcDbText
 73
     2
  0
POINT
  5
286
330
2A
100
AcDbEntity
  8
DEFPOINTS
  6
ByBlock
 62
     0
100
AcDbPoint
 10
5.088452533413216
 20
2.022993485770383
 30
0.0
  0
POINT
  5
287
330
2A
100
AcDbEntity
  8
DEFPOINTS
  6
ByBlock
 62
     0
100
AcDbPoint
 10
5.088452533413216
 20
0.3773153796489606
 30
0.0
  0
POINT
  5
288
330
2A
100
AcDbEntity
  8
DEFPOINTS
  6
ByBlock
 62
     0
100
AcDbPoint
 10
5.645942975579763
 20
0.3773153796489606
 30
0.0
  0
ENDBLK
  5
289
330
2A
100
AcDbEntity
  8
0
100
AcDbBlockEnd
  0
BLOCK
  5
28A
330
2B
100
AcDbEntity
  8
0
100
AcDbBlockBegin
  2
*X15
 70
     1
 10
0.0
 20
0.0
 30
0.0
  3
*X15
  1

  0
LINE
  5
28B
330
2B
100
AcDbEntity
  8
0
 62
     0
100
AcDbLine
 10
9.336134130403003
 20
1.033326512209153
 30
0.0
 11
9.360238665766248
 21
1.062053178826115
 31
0.0
  0
LINE
  5
28C
330
2B
100
AcDbEntity
  8
0
 62
     0
100
AcDbLine
 10
9.625388554761945
 20
1.378046511612693
 30
0.0
 11
9.64949309012519
 21
1.406773178229655
 31
0.0
  0
LINE
  5
28D
330
2B
100
AcDbEntity
  8
0
 62
     0
100
AcDbLine
 10
9.914642979120888
 20
1.722766511016233
 30
0.0
 11
9.938747514484132
 21
1.751493177633195
 31
0.0
  0
LINE
  5
28E
330
2B
100
AcDbEntity
  8
0
 62
     0
100
AcDbLine
 10
9.405509797344436
 20
0.6572304453143151
 30
0.0
 11
9.42961433270768
 21
0.6859571119312768
 31
0.0
  0
LINE
  5
28F
330
2B
100
AcDbEntity
  8
0
 62
     0
100
AcDbLine
 10
9.694764221703378
 20
1.001950444717855
 30
0.0
 11
9.718868757066623
 21
1.030677111334816
 31
0.0
  0
LINE
  5
290
330
2B
100
AcDbEntity
  8
0
 62
     0
100
AcDbLine
 10
9.98401864606232
 20
1.346670444121395
 30
0.0
 11
10.00812318142556
 21
1.375397110738356
 31
0.0
  0
LINE
  5
291
330
2B
100
AcDbEntity
  8
0
 62
     0
100
AcDbLine
 10
9.764139888644812
 20
0.6258543778230176
 30
0.0
 11
9.788244424008057
 21
0.6545810444399792
 31
0.0
  0
LINE
  5
292
330
2B
100
AcDbEntity
  8
0
 62
     0
100
AcDbLine
 10
10.05339431300375
 20
0.9705743772265577
 30
0.0
 11
10.077498848367
 21
0.9993010438435193
 31
0.0
  0
LINE
  5
293
330
2B
100
AcDbEntity
  8
0
 62
     0
100
AcDbLine
 10
9.266758463461568
 20
1.40942257910399
 30
0.0
 11
9.290862998824813
 21
1.438149245720952
 31
0.0
  0
LINE
  5
294
330
2B
100
AcDbEntity
  8
0
 62
     0
100
AcDbLine
 10
9.556012887820511
 20
1.754142578507531
 30
0.0
 11
9.580117423183756
 21
1.782869245124492
 31
0.0
  0
LINE
  5
295
330
2B
100
AcDbEntity
  8
0
 62
     0
100
AcDbLine
 10
9.336134131419266
 20
1.033326514742793
 30
0.0
 11
9.366019972362018
 21
1.030711842460363
 31
0.0
  0
LINE
  5
296
330
2B
100
AcDbEntity
  8
0
 62
     0
100
AcDbLine
 10
9.694764222732294
 20
1.001950447353636
 30
0.0
 11
9.724650063675046
 21
0.9993357750712064
 31
0.0
  0
LINE
  5
297
330
2B
100
AcDbEntity
  8
0
 62
     0
100
AcDbLine
 10
10.05339431404532
 20
0.9705743799644793
 30
0.0
 11
10.08328015498807
 21
0.9679597076820495
 31
0.0
  0
LINE
  5
298
330
2B
100
AcDbEntity
  8
0
 62
     0
100
AcDbLine
 10
9.266758464612765
 20
1.409422581592798
 30
0.0
 11
9.296644305555517
 21
1.406807909310369
 31
0.0
  0
LINE
  5
299
330
2B
100
AcDbEntity
  8
0
 62
     0
100
AcDbLine
 10
9.625388555925793
 20
1.378046514203641
 30
0.0
 11
9.655274396868545
 21
1.375431841921212
 31
0.0
  0
LINE
  5
29A
330
2B
100
AcDbEntity
  8
0
 62
     0
100
AcDbLine
 10
9.984018647238821
 20
1.346670446814485
 30
0.0
 11
10.01390448818157
 21
1.344055774532055
 31
0.0
  0
LINE
  5
29B
330
2B
100
AcDbEntity
  8
0
 62
     0
100
AcDbLine
 10
9.556012889119294
 20
1.754142581053648
 30
0.0
 11
9.585898730062046
 21
1.751527908771218
 31
0.0
  0
LINE
  5
29C
330
2B
100
AcDbEntity
  8
0
 62
     0
100
AcDbLine
 10
9.914642980432322
 20
1.722766513664491
 30
0.0
 11
9.944528821375074
 21
1.720151841382061
 31
0.0
  0
LINE
  5
29D
330
2B
100
AcDbEntity
  8
0
 62
     0
100
AcDbLine
 10
9.405509798225764
 20
0.6572304478927872
 30
0.0
 11
9.435395639168516
 21
0.6546157756103575
 31
0.0
  0
LINE
  5
29E
330
2B
100
AcDbEntity
  8
0
 62
     0
100
AcDbLine
 10
9.764139889538792
 20
0.6258543805036303
 30
0.0
 11
9.794025730481545
 21
0.6232397082212006
 31
0.0
  0
LINE
  5
29F
330
2B
100
AcDbEntity
  8
0
 62
     0
100
AcDbLine
 10
9.435396074438525
 20
0.6546083845697309
 30
0.0
 11
9.429614793513145
 21
0.6859497270133926
 31
0.0
  0
LINE
  5
2A0
330
2B
100
AcDbEntity
  8
0
 62
     0
100
AcDbLine
 10
9.366020701338557
 20
1.030704504711172
 30
0.0
 11
9.360239420413178
 21
1.062045847154833
 31
0.0
  0
LINE
  5
2A1
330
2B
100
AcDbEntity
  8
0
 62
     0
100
AcDbLine
 10
9.296645328238589
 20
1.406800624852612
 30
0.0
 11
9.29086404731321
 21
1.438141967296274
 31
0.0
  0
LINE
  5
2A2
330
2B
100
AcDbEntity
  8
0
 62
     0
100
AcDbLine
 10
9.794026138395501
 20
0.6232320354587666
 30
0.0
 11
9.788244857470122
 21
0.6545733779024284
 31
0.0
  0
LINE
  5
2A3
330
2B
100
AcDbEntity
  8
0
 62
     0
100
AcDbLine
 10
9.724650765295534
 20
0.9993281556002076
 30
0.0
 11
9.718869484370154
 21
1.030669498043869
 31
0.0
  0
LINE
  5
2A4
330
2B
100
AcDbEntity
  8
0
 62
     0
100
AcDbLine
 10
9.655275392195566
 20
1.375424275741648
 30
0.0
 11
9.649494111270186
 21
1.40676561818531
 31
0.0
  0
LINE
  5
2A5
330
2B
100
AcDbEntity
  8
0
 62
     0
100
AcDbLine
 10
9.585900019095598
 20
1.751520395883089
 30
0.0
 11
9.580118738170218
 21
1.782861738326751
 31
0.0
  0
LINE
  5
2A6
330
2B
100
AcDbEntity
  8
0
 62
     0
100
AcDbLine
 10
10.08328082925251
 20
0.967951806489243
 30
0.0
 11
10.07749954832713
 21
0.9992931489329048
 31
0.0
  0
LINE
  5
2A7
330
2B
100
AcDbEntity
  8
0
 62
     0
100
AcDbLine
 10
10.01390545615254
 20
1.344047926630684
 30
0.0
 11
10.00812417522716
 21
1.375389269074345
 31
0.0
  0
LINE
  5
2A8
330
2B
100
AcDbEntity
  8
0
 62
     0
100
AcDbLine
 10
9.944530083052576
 20
1.720144046772125
 30
0.0
 11
9.938748802127197
 21
1.751485389215786
 31
0.0
  0
LINE
  5
2A9
330
2B
100
AcDbEntity
  8
0
 62
     0
100
AcDbLine
 10
9.340011230728517
 20
0.889604101110102
 30
0.0
 11
9.378955478444121
 21
0.9301923761395443
 31
0.0
  0
LINE
  5
2AA
330
2B
100
AcDbEntity
  8
0
 62
     0
100
AcDbLine
 10
9.807342203315768
 20
1.376663401463409
 30
0.0
 11
9.846286451031371
 21
1.417251676492852
 31
0.0
  0
LINE
  5
2AB
330
2B
100
AcDbEntity
  8
0
 62
     0
100
AcDbLine
 10
9.873631755041339
 20
0.8068445939455948
 30
0.0
 11
9.912576002756942
 21
0.847432868975037
 31
0.0
  0
LINE
  5
2AC
330
2B
100
AcDbEntity
  8
0
 62
     0
100
AcDbLine
 10
9.273721679002946
 20
1.459422908627919
 30
0.0
 11
9.312665926718549
 21
1.500011183657362
 31
0.0
  0
LINE
  5
2AD
330
2B
100
AcDbEntity
  8
0
 62
     0
100
AcDbLine
 10
9.384480081725921
 20
0.8827013215698439
 30
0.0
 11
9.378955989492711
 21
0.9301862265172029
 31
0.0
  0
LINE
  5
2AE
330
2B
100
AcDbEntity
  8
0
 62
     0
100
AcDbLine
 10
9.31819098463395
 20
1.452520097500853
 30
0.0
 11
9.31266689240074
 21
1.500005002448212
 31
0.0
  0
LINE
  5
2AF
330
2B
100
AcDbEntity
  8
0
 62
     0
100
AcDbLine
 10
9.918100531592243
 20
0.7999414810890553
 30
0.0
 11
9.912576439359032
 21
0.8474263860364141
 31
0.0
  0
LINE
  5
2B0
330
2B
100
AcDbEntity
  8
0
 62
     0
100
AcDbLine
 10
9.851811434500271
 20
1.369760257020064
 30
0.0
 11
9.846287342267061
 21
1.417245161967423
 31
0.0
  0
LINE
  5
2B1
330
2B
100
AcDbEntity
  8
0
 62
     0
100
AcDbLine
 10
9.340011231054607
 20
0.8896041036700406
 30
0.0
 11
9.384479608083102
 21
0.8827074780856323
 31
0.0
  0
LINE
  5
2B2
330
2B
100
AcDbEntity
  8
0
 62
     0
100
AcDbLine
 10
9.87363175539656
 20
0.8068445966571399
 30
0.0
 11
9.918100132425056
 21
0.7999479710727317
 31
0.0
  0
LINE
  5
2B3
330
2B
100
AcDbEntity
  8
0
 62
     0
100
AcDbLine
 10
9.273721679279466
 20
1.459422911145603
 30
0.0
 11
9.318190056307962
 21
1.452526285561195
 31
0.0
  0
LINE
  5
2B4
330
2B
100
AcDbEntity
  8
0
 62
     0
100
AcDbLine
 10
9.80734220362142
 20
1.376663404132702
 30
0.0
 11
9.851810580649916
 21
1.369766778548294
 31
0.0
  0
LINE
  5
2B5
330
2B
100
AcDbEntity
  8
0
 62
     0
100
AcDbLine
 10
9.579518471177442
 20
1.206039251360192
 30
0.0
 11
9.614527737171087
 21
1.219478049468141
 31
0.0
  0
LINE
  5
2B6
330
2B
100
AcDbEntity
  8
0
 62
     0
100
AcDbLine
 10
9.999629663101183
 20
1.367304828655577
 30
0.0
 11
10.03463892909483
 21
1.380743626763526
 31
0.0
  0
LINE
  5
2B7
330
2B
100
AcDbEntity
  8
0
 62
     0
100
AcDbLine
 10
9.457860805312931
 20
0.8434642287321382
 30
0.0
 11
9.492870071306576
 21
0.8569030268400869
 31
0.0
  0
LINE
  5
2B8
330
2B
100
AcDbEntity
  8
0
 62
     0
100
AcDbLine
 10
9.877971997236672
 20
1.004729806027523
 30
0.0
 11
9.912981263230317
 21
1.018168604135472
 31
0.0
  0
LINE
  5
2B9
330
2B
100
AcDbEntity
  8
0
 62
     0
100
AcDbLine
 10
9.756314331372163
 20
0.6421547833994686
 30
0.0
 11
9.791323597365808
 21
0.6555935815074175
 31
0.0
  0
LINE
  5
2BA
330
2B
100
AcDbEntity
  8
0
 62
     0
100
AcDbLine
 10
9.28106494511821
 20
1.407348696692861
 30
0.0
 11
9.316074211111855
 21
1.42078749480081
 31
0.0
  0
LINE
  5
2BB
330
2B
100
AcDbEntity
  8
0
 62
     0
100
AcDbLine
 10
9.701176137041951
 20
1.568614273988246
 30
0.0
 11
9.736185403035596
 21
1.582053072096195
 31
0.0
  0
LINE
  5
2BC
330
2B
100
AcDbEntity
  8
0
 62
     0
100
AcDbLine
 10
9.402722610982721
 20
1.769923719320916
 30
0.0
 11
9.437731876976366
 21
1.783362517428864
 31
0.0
  0
LINE
  5
2BD
330
2B
100
AcDbEntity
  8
0
 62
     0
100
AcDbLine
 10
9.281064948209005
 20
1.407348696911004
 30
0.0
 11
9.305936075385655
 21
1.390572909806881
 31
0.0
  0
LINE
  5
2BE
330
2B
100
AcDbEntity
  8
0
 62
     0
100
AcDbLine
 10
9.579518474328819
 20
1.206039251661535
 30
0.0
 11
9.60438960150547
 21
1.189263464557413
 31
0.0
  0
LINE
  5
2BF
330
2B
100
AcDbEntity
  8
0
 62
     0
100
AcDbLine
 10
9.877972000448634
 20
1.004729806412067
 30
0.0
 11
9.902843127625285
 21
0.9879540193079446
 31
0.0
  0
LINE
  5
2C0
330
2B
100
AcDbEntity
  8
0
 62
     0
100
AcDbLine
 10
9.402722614169796
 20
1.769923719434429
 30
0.0
 11
9.427593741346447
 21
1.753147932330307
 31
0.0
  0
LINE
  5
2C1
330
2B
100
AcDbEntity
  8
0
 62
     0
100
AcDbLine
 10
9.701176140289611
 20
1.568614274184961
 30
0.0
 11
9.726047267466261
 21
1.551838487080839
 31
0.0
  0
LINE
  5
2C2
330
2B
100
AcDbEntity
  8
0
 62
     0
100
AcDbLine
 10
9.999629666409425
 20
1.367304828935492
 30
0.0
 11
10.02450079358607
 21
1.35052904183137
 31
0.0
  0
LINE
  5
2C3
330
2B
100
AcDbEntity
  8
0
 62
     0
100
AcDbLine
 10
9.45786080836803
 20
0.8434642291381083
 30
0.0
 11
9.482731935544681
 21
0.8266884420339858
 31
0.0
  0
LINE
  5
2C4
330
2B
100
AcDbEntity
  8
0
 62
     0
100
AcDbLine
 10
9.756314334487845
 20
0.6421547838886396
 30
0.0
 11
9.781185461664495
 21
0.6253789967845172
 31
0.0
  0
LINE
  5
2C5
330
2B
100
AcDbEntity
  8
0
 62
     0
100
AcDbLine
 10
9.482732435662002
 20
0.8266810652016911
 30
0.0
 11
9.492870597760278
 21
0.8568956415610923
 31
0.0
  0
LINE
  5
2C6
330
2B
100
AcDbEntity
  8
0
 62
     0
100
AcDbLine
 10
9.604390384340515
 20
1.189255991943103
 30
0.0
 11
9.614528546438791
 21
1.219470568302505
 31
0.0
  0
LINE
  5
2C7
330
2B
100
AcDbEntity
  8
0
 62
     0
100
AcDbLine
 10
9.726048333019027
 20
1.551830918684516
 30
0.0
 11
9.736186495117303
 21
1.582045495043918
 31
0.0
  0
LINE
  5
2C8
330
2B
100
AcDbEntity
  8
0
 62
     0
100
AcDbLine
 10
9.781185801274233
 20
0.6253713868152541
 30
0.0
 11
9.791323963372509
 21
0.6555859631746555
 31
0.0
  0
LINE
  5
2C9
330
2B
100
AcDbEntity
  8
0
 62
     0
100
AcDbLine
 10
9.902843749952745
 20
0.987946313556667
 30
0.0
 11
9.912981912051021
 21
1.018160889916068
 31
0.0
  0
LINE
  5
2CA
330
2B
100
AcDbEntity
  8
0
 62
     0
100
AcDbLine
 10
10.02450169863125
 20
1.350521240298079
 30
0.0
 11
10.03463986072953
 21
1.380735816657481
 31
0.0
  0
LINE
  5
2CB
330
2B
100
AcDbEntity
  8
0
 62
     0
100
AcDbLine
 10
9.305937018728283
 20
1.390565670329541
 30
0.0
 11
9.316075180826558
 21
1.420780246688942
 31
0.0
  0
LINE
  5
2CC
330
2B
100
AcDbEntity
  8
0
 62
     0
100
AcDbLine
 10
9.427594967406795
 20
1.753140597070954
 30
0.0
 11
9.437733129505071
 21
1.783355173430355
 31
0.0
  0
LINE
  5
2CD
330
2B
100
AcDbEntity
  8
0
 62
     0
100
AcDbLine
 10
9.474054160754157
 20
1.121995338268761
 30
0.0
 11
9.474054160754157
 21
1.121995338268761
 31
0.0
  0
LINE
  5
2CE
330
2B
100
AcDbEntity
  8
0
 62
     0
100
AcDbLine
 10
9.739827529751721
 20
1.325930416986682
 30
0.0
 11
9.739827529751721
 21
1.325930416986682
 31
0.0
  0
LINE
  5
2CF
330
2B
100
AcDbEntity
  8
0
 62
     0
100
AcDbLine
 10
10.00262582372319
 20
1.527582640345821
 30
0.0
 11
10.00262582372319
 21
1.527582640345821
 31
0.0
  0
LINE
  5
2D0
330
2B
100
AcDbEntity
  8
0
 62
     0
100
AcDbLine
 10
9.480134088412803
 20
1.288442265184416
 30
0.0
 11
9.480134088412803
 21
1.288442265184416
 31
0.0
  0
LINE
  5
2D1
330
2B
100
AcDbEntity
  8
0
 62
     0
100
AcDbLine
 10
9.745907457410368
 20
1.492377343902337
 30
0.0
 11
9.745907457410368
 21
1.492377343902337
 31
0.0
  0
LINE
  5
2D2
330
2B
100
AcDbEntity
  8
0
 62
     0
100
AcDbLine
 10
10.00870575138183
 20
1.694029567261476
 30
0.0
 11
10.00870575138183
 21
1.694029567261476
 31
0.0
  0
LINE
  5
2D3
330
2B
100
AcDbEntity
  8
0
 62
     0
100
AcDbLine
 10
9.486214016071448
 20
1.454889192100071
 30
0.0
 11
9.486214016071448
 21
1.454889192100071
 31
0.0
  0
LINE
  5
2D4
330
2B
100
AcDbEntity
  8
0
 62
     0
100
AcDbLine
 10
9.751987385069012
 20
1.658824270817992
 30
0.0
 11
9.751987385069012
 21
1.658824270817992
 31
0.0
  0
LINE
  5
2D5
330
2B
100
AcDbEntity
  8
0
 62
     0
100
AcDbLine
 10
10.01478567904048
 20
1.860476494177131
 30
0.0
 11
10.01478567904048
 21
1.860476494177131
 31
0.0
  0
LINE
  5
2D6
330
2B
100
AcDbEntity
  8
0
 62
     0
100
AcDbLine
 10
9.492293943730093
 20
1.621336119015727
 30
0.0
 11
9.492293943730093
 21
1.621336119015727
 31
0.0
  0
LINE
  5
2D7
330
2B
100
AcDbEntity
  8
0
 62
     0
100
AcDbLine
 10
9.758067312727657
 20
1.825271197733649
 30
0.0
 11
9.758067312727657
 21
1.825271197733649
 31
0.0
  0
LINE
  5
2D8
330
2B
100
AcDbEntity
  8
0
 62
     0
100
AcDbLine
 10
9.498373871388739
 20
1.787783045931384
 30
0.0
 11
9.498373871388739
 21
1.787783045931384
 31
0.0
  0
LINE
  5
2D9
330
2B
100
AcDbEntity
  8
0
 62
     0
100
AcDbLine
 10
9.245820610112442
 20
1.755773746990197
 30
0.0
 11
9.245820610112442
 21
1.755773746990197
 31
0.0
  0
LINE
  5
2DA
330
2B
100
AcDbEntity
  8
0
 62
     0
100
AcDbLine
 10
9.467974233095512
 20
0.9555484113531049
 30
0.0
 11
9.467974233095512
 21
0.9555484113531049
 31
0.0
  0
LINE
  5
2DB
330
2B
100
AcDbEntity
  8
0
 62
     0
100
AcDbLine
 10
9.733747602093076
 20
1.159483490071026
 30
0.0
 11
9.733747602093076
 21
1.159483490071026
 31
0.0
  0
LINE
  5
2DC
330
2B
100
AcDbEntity
  8
0
 62
     0
100
AcDbLine
 10
9.996545896064548
 20
1.361135713430165
 30
0.0
 11
9.996545896064548
 21
1.361135713430165
 31
0.0
  0
LINE
  5
2DD
330
2B
100
AcDbEntity
  8
0
 62
     0
100
AcDbLine
 10
9.461894305436866
 20
0.7891014844374488
 30
0.0
 11
9.461894305436866
 21
0.7891014844374488
 31
0.0
  0
LINE
  5
2DE
330
2B
100
AcDbEntity
  8
0
 62
     0
100
AcDbLine
 10
9.72766767443443
 20
0.9930365631553701
 30
0.0
 11
9.72766767443443
 21
0.9930365631553701
 31
0.0
  0
LINE
  5
2DF
330
2B
100
AcDbEntity
  8
0
 62
     0
100
AcDbLine
 10
9.990465968405901
 20
1.194688786514508
 30
0.0
 11
9.990465968405901
 21
1.194688786514508
 31
0.0
  0
LINE
  5
2E0
330
2B
100
AcDbEntity
  8
0
 62
     0
100
AcDbLine
 10
9.455814377778223
 20
0.6226545575217937
 30
0.0
 11
9.455814377778223
 21
0.6226545575217937
 31
0.0
  0
LINE
  5
2E1
330
2B
100
AcDbEntity
  8
0
 62
     0
100
AcDbLine
 10
9.721587746775787
 20
0.826589636239715
 30
0.0
 11
9.721587746775787
 21
0.826589636239715
 31
0.0
  0
LINE
  5
2E2
330
2B
100
AcDbEntity
  8
0
 62
     0
100
AcDbLine
 10
9.984386040747258
 20
1.028241859598853
 30
0.0
 11
9.984386040747258
 21
1.028241859598853
 31
0.0
  0
LINE
  5
2E3
330
2B
100
AcDbEntity
  8
0
 62
     0
100
AcDbLine
 10
9.71550781911714
 20
0.660142709324059
 30
0.0
 11
9.71550781911714
 21
0.660142709324059
 31
0.0
  0
LINE
  5
2E4
330
2B
100
AcDbEntity
  8
0
 62
     0
100
AcDbLine
 10
9.978306113088612
 20
0.8617949326831977
 30
0.0
 11
9.978306113088612
 21
0.8617949326831977
 31
0.0
  0
LINE
  5
2E5
330
2B
100
AcDbEntity
  8
0
 62
     0
100
AcDbLine
 10
9.972226185429967
 20
0.6953480057675426
 30
0.0
 11
9.972226185429967
 21
0.6953480057675426
 31
0.0
  0
LINE
  5
2E6
330
2B
100
AcDbEntity
  8
0
 62
     0
100
AcDbLine
 10
9.329496145527556
 20
1.228251468790685
 30
0.0
 11
9.329496145527556
 21
1.228251468790685
 31
0.0
  0
LINE
  5
2E7
330
2B
100
AcDbEntity
  8
0
 62
     0
100
AcDbLine
 10
9.454666059276
 20
1.244730400558467
 30
0.0
 11
9.454666059276
 21
1.244730400558467
 31
0.0
  0
LINE
  5
2E8
330
2B
100
AcDbEntity
  8
0
 62
     0
100
AcDbLine
 10
9.644032027798397
 20
1.269660903272497
 30
0.0
 11
9.644032027798397
 21
1.269660903272497
 31
0.0
  0
LINE
  5
2E9
330
2B
100
AcDbEntity
  8
0
 62
     0
100
AcDbLine
 10
9.959807216145955
 20
1.311233495494583
 30
0.0
 11
9.959807216145955
 21
1.311233495494583
 31
0.0
  0
LINE
  5
2EA
330
2B
100
AcDbEntity
  8
0
 62
     0
100
AcDbLine
 10
10.08497712989439
 20
1.327712427262365
 30
0.0
 11
10.08497712989439
 21
1.327712427262365
 31
0.0
  0
LINE
  5
2EB
330
2B
100
AcDbEntity
  8
0
 62
     0
100
AcDbLine
 10
9.461030914248631
 20
1.425457324731865
 30
0.0
 11
9.461030914248631
 21
1.425457324731865
 31
0.0
  0
LINE
  5
2EC
330
2B
100
AcDbEntity
  8
0
 62
     0
100
AcDbLine
 10
9.586200827997075
 20
1.441936256499646
 30
0.0
 11
9.586200827997075
 21
1.441936256499646
 31
0.0
  0
LINE
  5
2ED
330
2B
100
AcDbEntity
  8
0
 62
     0
100
AcDbLine
 10
9.775566796519472
 20
1.466866759213676
 30
0.0
 11
9.775566796519472
 21
1.466866759213676
 31
0.0
  0
LINE
  5
2EE
330
2B
100
AcDbEntity
  8
0
 62
     0
100
AcDbLine
 10
10.09134198486703
 20
1.508439351435763
 30
0.0
 11
10.09134198486703
 21
1.508439351435763
 31
0.0
  0
LINE
  5
2EF
330
2B
100
AcDbEntity
  8
0
 62
     0
100
AcDbLine
 10
9.276790494622145
 20
1.581090588450959
 30
0.0
 11
9.276790494622145
 21
1.581090588450959
 31
0.0
  0
LINE
  5
2F0
330
2B
100
AcDbEntity
  8
0
 62
     0
100
AcDbLine
 10
9.592565682969704
 20
1.622663180673045
 30
0.0
 11
9.592565682969704
 21
1.622663180673045
 31
0.0
  0
LINE
  5
2F1
330
2B
100
AcDbEntity
  8
0
 62
     0
100
AcDbLine
 10
9.717735596718148
 20
1.639142112440827
 30
0.0
 11
9.717735596718148
 21
1.639142112440827
 31
0.0
  0
LINE
  5
2F2
330
2B
100
AcDbEntity
  8
0
 62
     0
100
AcDbLine
 10
9.907101565240544
 20
1.664072615154857
 30
0.0
 11
9.907101565240544
 21
1.664072615154857
 31
0.0
  0
LINE
  5
2F3
330
2B
100
AcDbEntity
  8
0
 62
     0
100
AcDbLine
 10
9.40832526334322
 20
1.778296444392139
 30
0.0
 11
9.40832526334322
 21
1.778296444392139
 31
0.0
  0
LINE
  5
2F4
330
2B
100
AcDbEntity
  8
0
 62
     0
100
AcDbLine
 10
9.724100451690778
 20
1.819869036614225
 30
0.0
 11
9.724100451690778
 21
1.819869036614225
 31
0.0
  0
LINE
  5
2F5
330
2B
100
AcDbEntity
  8
0
 62
     0
100
AcDbLine
 10
9.849270365439222
 20
1.836347968382007
 30
0.0
 11
9.849270365439222
 21
1.836347968382007
 31
0.0
  0
LINE
  5
2F6
330
2B
100
AcDbEntity
  8
0
 62
     0
100
AcDbLine
 10
10.03863633396161
 20
1.861278471096037
 30
0.0
 11
10.03863633396161
 21
1.861278471096037
 31
0.0
  0
LINE
  5
2F7
330
2B
100
AcDbEntity
  8
0
 62
     0
100
AcDbLine
 10
9.323131290554925
 20
1.047524544617286
 30
0.0
 11
9.323131290554925
 21
1.047524544617286
 31
0.0
  0
LINE
  5
2F8
330
2B
100
AcDbEntity
  8
0
 62
     0
100
AcDbLine
 10
9.512497259077322
 20
1.072455047331316
 30
0.0
 11
9.512497259077322
 21
1.072455047331316
 31
0.0
  0
LINE
  5
2F9
330
2B
100
AcDbEntity
  8
0
 62
     0
100
AcDbLine
 10
9.828272447424881
 20
1.114027639553403
 30
0.0
 11
9.828272447424881
 21
1.114027639553403
 31
0.0
  0
LINE
  5
2FA
330
2B
100
AcDbEntity
  8
0
 62
     0
100
AcDbLine
 10
9.953442361173324
 20
1.130506571321184
 30
0.0
 11
9.953442361173324
 21
1.130506571321184
 31
0.0
  0
LINE
  5
2FB
330
2B
100
AcDbEntity
  8
0
 62
     0
100
AcDbLine
 10
9.380962490356248
 20
0.8752491913901364
 30
0.0
 11
9.380962490356248
 21
0.8752491913901364
 31
0.0
  0
LINE
  5
2FC
330
2B
100
AcDbEntity
  8
0
 62
     0
100
AcDbLine
 10
9.696737678703806
 20
0.9168217836122229
 30
0.0
 11
9.696737678703806
 21
0.9168217836122229
 31
0.0
  0
LINE
  5
2FD
330
2B
100
AcDbEntity
  8
0
 62
     0
100
AcDbLine
 10
9.82190759245225
 20
0.9333007153800043
 30
0.0
 11
9.82190759245225
 21
0.9333007153800043
 31
0.0
  0
LINE
  5
2FE
330
2B
100
AcDbEntity
  8
0
 62
     0
100
AcDbLine
 10
10.01127356097464
 20
0.9582312180940341
 30
0.0
 11
10.01127356097464
 21
0.9582312180940341
 31
0.0
  0
LINE
  5
2FF
330
2B
100
AcDbEntity
  8
0
 62
     0
100
AcDbLine
 10
9.249427721635175
 20
0.6780433354489565
 30
0.0
 11
9.249427721635175
 21
0.6780433354489565
 31
0.0
  0
LINE
  5
300
330
2B
100
AcDbEntity
  8
0
 62
     0
100
AcDbLine
 10
9.565202909982733
 20
0.7196159276710429
 30
0.0
 11
9.565202909982733
 21
0.7196159276710429
 31
0.0
  0
LINE
  5
301
330
2B
100
AcDbEntity
  8
0
 62
     0
100
AcDbLine
 10
9.690372823731177
 20
0.7360948594388244
 30
0.0
 11
9.690372823731177
 21
0.7360948594388244
 31
0.0
  0
LINE
  5
302
330
2B
100
AcDbEntity
  8
0
 62
     0
100
AcDbLine
 10
9.879738792253574
 20
0.7610253621528543
 30
0.0
 11
9.879738792253574
 21
0.7610253621528543
 31
0.0
  0
LINE
  5
303
330
2B
100
AcDbEntity
  8
0
 62
     0
100
AcDbLine
 10
10.06397921188006
 20
0.6053920984337604
 30
0.0
 11
10.06397921188006
 21
0.6053920984337604
 31
0.0
  0
LINE
  5
304
330
2B
100
AcDbEntity
  8
0
 62
     0
100
AcDbLine
 10
9.554011028559992
 20
1.145523486963552
 30
0.0
 11
9.554011028559992
 21
1.145523486963552
 31
0.0
  0
LINE
  5
305
330
2B
100
AcDbEntity
  8
0
 62
     0
100
AcDbLine
 10
9.659434959286603
 20
1.078361035920199
 30
0.0
 11
9.659434959286603
 21
1.078361035920199
 31
0.0
  0
LINE
  5
306
330
2B
100
AcDbEntity
  8
0
 62
     0
100
AcDbLine
 10
9.988357623153628
 20
0.8688141886649377
 30
0.0
 11
9.988357623153628
 21
0.8688141886649377
 31
0.0
  0
LINE
  5
307
330
2B
100
AcDbEntity
  8
0
 62
     0
100
AcDbLine
 10
9.38446717343803
 20
1.412298598415842
 30
0.0
 11
9.38446717343803
 21
1.412298598415842
 31
0.0
  0
LINE
  5
308
330
2B
100
AcDbEntity
  8
0
 62
     0
100
AcDbLine
 10
9.820922246646199
 20
1.134246051096361
 30
0.0
 11
9.820922246646199
 21
1.134246051096361
 31
0.0
  0
LINE
  5
309
330
2B
100
AcDbEntity
  8
0
 62
     0
100
AcDbLine
 10
9.92634617737281
 20
1.067083600053008
 30
0.0
 11
9.92634617737281
 21
1.067083600053008
 31
0.0
  0
LINE
  5
30A
330
2B
100
AcDbEntity
  8
0
 62
     0
100
AcDbLine
 10
9.322455727657208
 20
1.610568009803914
 30
0.0
 11
9.322455727657208
 21
1.610568009803914
 31
0.0
  0
LINE
  5
30B
330
2B
100
AcDbEntity
  8
0
 62
     0
100
AcDbLine
 10
9.651378391524234
 20
1.401021162548653
 30
0.0
 11
9.651378391524234
 21
1.401021162548653
 31
0.0
  0
LINE
  5
30C
330
2B
100
AcDbEntity
  8
0
 62
     0
100
AcDbLine
 10
10.0878334647324
 20
1.122968615229171
 30
0.0
 11
10.0878334647324
 21
1.122968615229171
 31
0.0
  0
LINE
  5
30D
330
2B
100
AcDbEntity
  8
0
 62
     0
100
AcDbLine
 10
9.483943015016803
 20
1.666453024980077
 30
0.0
 11
9.483943015016803
 21
1.666453024980077
 31
0.0
  0
LINE
  5
30E
330
2B
100
AcDbEntity
  8
0
 62
     0
100
AcDbLine
 10
9.589366945743414
 20
1.599290573936723
 30
0.0
 11
9.589366945743414
 21
1.599290573936723
 31
0.0
  0
LINE
  5
30F
330
2B
100
AcDbEntity
  8
0
 62
     0
100
AcDbLine
 10
9.91828960961044
 20
1.389743726681462
 30
0.0
 11
9.91828960961044
 21
1.389743726681462
 31
0.0
  0
LINE
  5
310
330
2B
100
AcDbEntity
  8
0
 62
     0
100
AcDbLine
 10
9.750854233103007
 20
1.655175589112888
 30
0.0
 11
9.750854233103007
 21
1.655175589112888
 31
0.0
  0
LINE
  5
311
330
2B
100
AcDbEntity
  8
0
 62
     0
100
AcDbLine
 10
9.856278163829617
 20
1.588013138069535
 30
0.0
 11
9.856278163829617
 21
1.588013138069535
 31
0.0
  0
LINE
  5
312
330
2B
100
AcDbEntity
  8
0
 62
     0
100
AcDbLine
 10
10.01776545118921
 20
1.643898153245698
 30
0.0
 11
10.01776545118921
 21
1.643898153245698
 31
0.0
  0
LINE
  5
313
330
2B
100
AcDbEntity
  8
0
 62
     0
100
AcDbLine
 10
9.287099810473788
 20
1.156800922830741
 30
0.0
 11
9.287099810473788
 21
1.156800922830741
 31
0.0
  0
LINE
  5
314
330
2B
100
AcDbEntity
  8
0
 62
     0
100
AcDbLine
 10
9.392523741200399
 20
1.089638471787388
 30
0.0
 11
9.392523741200399
 21
1.089638471787388
 31
0.0
  0
LINE
  5
315
330
2B
100
AcDbEntity
  8
0
 62
     0
100
AcDbLine
 10
9.721446405067425
 20
0.8800916245321271
 30
0.0
 11
9.721446405067425
 21
0.8800916245321271
 31
0.0
  0
LINE
  5
316
330
2B
100
AcDbEntity
  8
0
 62
     0
100
AcDbLine
 10
9.454535186981219
 20
0.891369060399317
 30
0.0
 11
9.454535186981219
 21
0.891369060399317
 31
0.0
  0
LINE
  5
317
330
2B
100
AcDbEntity
  8
0
 62
     0
100
AcDbLine
 10
9.890990260189388
 20
0.6133165130798357
 30
0.0
 11
9.890990260189388
 21
0.6133165130798357
 31
0.0
  0
LINE
  5
318
330
2B
100
AcDbEntity
  8
0
 62
     0
100
AcDbLine
 10
9.624079042103184
 20
0.6245939489470254
 30
0.0
 11
9.624079042103184
 21
0.6245939489470254
 31
0.0
  0
LINE
  5
319
330
2B
100
AcDbEntity
  8
0
 62
     0
100
AcDbLine
 10
9.357167824016979
 20
0.6358713848142159
 30
0.0
 11
9.357167824016979
 21
0.6358713848142159
 31
0.0
  0
LINE
  5
31A
330
2B
100
AcDbEntity
  8
0
 62
     0
100
AcDbLine
 10
9.289286276709823
 20
1.491896308579538
 30
0.0
 11
9.289286276709823
 21
1.491896308579538
 31
0.0
  0
LINE
  5
31B
330
2B
100
AcDbEntity
  8
0
 62
     0
100
AcDbLine
 10
9.480241106943646
 20
1.316918444807082
 30
0.0
 11
9.480241106943646
 21
1.316918444807082
 31
0.0
  0
LINE
  5
31C
330
2B
100
AcDbEntity
  8
0
 62
     0
100
AcDbLine
 10
9.751190528221366
 20
1.068639043508327
 30
0.0
 11
9.751190528221366
 21
1.068639043508327
 31
0.0
  0
LINE
  5
31D
330
2B
100
AcDbEntity
  8
0
 62
     0
100
AcDbLine
 10
9.87099809545301
 20
0.9588556347707831
 30
0.0
 11
9.87099809545301
 21
0.9588556347707831
 31
0.0
  0
LINE
  5
31E
330
2B
100
AcDbEntity
  8
0
 62
     0
100
AcDbLine
 10
10.06195292568683
 20
0.7838777709983271
 30
0.0
 11
10.06195292568683
 21
0.7838777709983271
 31
0.0
  0
LINE
  5
31F
330
2B
100
AcDbEntity
  8
0
 62
     0
100
AcDbLine
 10
9.461071794149372
 20
1.651732208483242
 30
0.0
 11
9.461071794149372
 21
1.651732208483242
 31
0.0
  0
LINE
  5
320
330
2B
100
AcDbEntity
  8
0
 62
     0
100
AcDbLine
 10
9.580879361381017
 20
1.541948799745697
 30
0.0
 11
9.580879361381017
 21
1.541948799745697
 31
0.0
  0
LINE
  5
321
330
2B
100
AcDbEntity
  8
0
 62
     0
100
AcDbLine
 10
9.771834191614839
 20
1.366970935973241
 30
0.0
 11
9.771834191614839
 21
1.366970935973241
 31
0.0
  0
LINE
  5
322
330
2B
100
AcDbEntity
  8
0
 62
     0
100
AcDbLine
 10
10.04278361289256
 20
1.118691534674486
 30
0.0
 11
10.04278361289256
 21
1.118691534674486
 31
0.0
  0
LINE
  5
323
330
2B
100
AcDbEntity
  8
0
 62
     0
100
AcDbLine
 10
9.752664878820565
 20
1.7017846996494
 30
0.0
 11
9.752664878820565
 21
1.7017846996494
 31
0.0
  0
LINE
  5
324
330
2B
100
AcDbEntity
  8
0
 62
     0
100
AcDbLine
 10
9.87247244605221
 20
1.592001290911855
 30
0.0
 11
9.87247244605221
 21
1.592001290911855
 31
0.0
  0
LINE
  5
325
330
2B
100
AcDbEntity
  8
0
 62
     0
100
AcDbLine
 10
10.06342727628603
 20
1.417023427139399
 30
0.0
 11
10.06342727628603
 21
1.417023427139399
 31
0.0
  0
LINE
  5
326
330
2B
100
AcDbEntity
  8
0
 62
     0
100
AcDbLine
 10
10.04425796349175
 20
1.751837190815558
 30
0.0
 11
10.04425796349175
 21
1.751837190815558
 31
0.0
  0
LINE
  5
327
330
2B
100
AcDbEntity
  8
0
 62
     0
100
AcDbLine
 10
9.459597443550173
 20
1.018586552342168
 30
0.0
 11
9.459597443550173
 21
1.018586552342168
 31
0.0
  0
LINE
  5
328
330
2B
100
AcDbEntity
  8
0
 62
     0
100
AcDbLine
 10
9.579405010781817
 20
0.9088031436046236
 30
0.0
 11
9.579405010781817
 21
0.9088031436046236
 31
0.0
  0
LINE
  5
329
330
2B
100
AcDbEntity
  8
0
 62
     0
100
AcDbLine
 10
9.77035984101564
 20
0.7338252798321676
 30
0.0
 11
9.77035984101564
 21
0.7338252798321676
 31
0.0
  0
LINE
  5
32A
330
2B
100
AcDbEntity
  8
0
 62
     0
100
AcDbLine
 10
9.287811926110626
 20
0.8587506524384659
 30
0.0
 11
9.287811926110626
 21
0.8587506524384659
 31
0.0
  0
LINE
  5
32B
330
2B
100
AcDbEntity
  8
0
 62
     0
100
AcDbLine
 10
9.478766756344448
 20
0.68377278866601
 30
0.0
 11
9.478766756344448
 21
0.68377278866601
 31
0.0
  0
ENDBLK
  5
32C
330
2B
100
AcDbEntity
  8
0
100
AcDbBlockEnd
  0
BLOCK
  5
32D
330
2F
100
AcDbEntity
  8
0
100
AcDbBlockBegin
  2
*D16
 70
     1
 10
0.0
 20
0.0
 30
0.0
  3
*D16
  1

  0
LINE
  5
32E
330
2F
100
AcDbEntity
  8
0
  6
ByBlock
 62
     0
100
AcDbLine
 10
11.64266452507234
 20
4.013360477953818
 30
0.0
 11
11.64266452507234
 21
2.920177046668417
 31
0.0
  0
LINE
  5
32F
330
2F
100
AcDbEntity
  8
0
  6
ByBlock
 62
     0
100
AcDbLine
 10
16.69392096524386
 20
4.013360477953818
 30
0.0
 11
16.69392096524386
 21
2.920177046668417
 31
0.0
  0
LINE
  5
330
330
2F
100
AcDbEntity
  8
0
  6
ByBlock
 62
     0
100
AcDbLine
 10
11.74266452507234
 20
3.100177046668417
 30
0.0
 11
13.61400703087239
 21
3.100177046668417
 31
0.0
  0
LINE
  5
331
330
2F
100
AcDbEntity
  8
0
  6
ByBlock
 62
     0
100
AcDbLine
 10
16.59392096524385
 20
3.100177046668417
 30
0.0
 11
14.72257845944381
 21
3.100177046668417
 31
0.0
  0
SOLID
  5
332
330
2F
100
AcDbEntity
  8
0
  6
ByBlock
 62
     0
100
AcDbTrace
 10
11.74266452507234
 20
3.116843713335084
 30
0.0
 11
11.74266452507234
 21
3.08351038000175
 31
0.0
 12
11.64266452507234
 22
3.100177046668417
 32
0.0
 13
11.64266452507234
 23
3.100177046668417
 33
0.0
  0
SOLID
  5
333
330
2F
100
AcDbEntity
  8
0
  6
ByBlock
 62
     0
100
AcDbTrace
 10
16.59392096524385
 20
3.116843713335084
 30
0.0
 11
16.59392096524385
 21
3.08351038000175
 31
0.0
 12
16.69392096524386
 22
3.100177046668417
 32
0.0
 13
16.69392096524386
 23
3.100177046668417
 33
0.0
  0
TEXT
  5
334
330
2F
100
AcDbEntity
  8
0
  6
ByBlock
 62
     0
100
AcDbText
 10
13.66114988801524
 20
2.950177046668417
 30
0.0
 40
0.3
  1
0.60
  7
ROMANT
 72
     1
 11
14.1682927451581
 21
3.100177046668417
 31
0.0
100
AcDbText
 73
     2
  0
POINT
  5
336
330
2F
100
AcDbEntity
  8
DEFPOINTS
  6
ByBlock
 62
     0
100
AcDbPoint
 10
11.64266452507234
 20
4.075860477953818
 30
0.0
  0
POINT
  5
337
330
2F
100
AcDbEntity
  8
DEFPOINTS
  6
ByBlock
 62
     0
100
AcDbPoint
 10
16.69392096524386
 20
4.075860477953818
 30
0.0
  0
POINT
  5
338
330
2F
100
AcDbEntity
  8
DEFPOINTS
  6
ByBlock
 62
     0
100
AcDbPoint
 10
16.69392096524386
 20
3.100177046668417
 30
0.0
  0
ENDBLK
  5
339
330
2F
100
AcDbEntity
  8
0
100
AcDbBlockEnd
  0
ENDSEC
  0
SECTION
  2
ENTITIES
  0
LINE
  5
33A
330
17
100
AcDbEntity
  8
BLOQUE
100
AcDbLine
 10
2.542602074914315
 20
6.589805824142085
 30
0.0
 11
2.542602074914315
 21
9.489805824142084
 31
0.0
  0
LINE
  5
33B
330
17
100
AcDbEntity
  8
BLOQUE
100
AcDbLine
 10
2.542602074914315
 20
9.489805824142084
 30
0.0
 11
7.942602074914315
 21
9.489805824142084
 31
0.0
  0
LINE
  5
33C
330
17
100
AcDbEntity
  8
BLOQUE
100
AcDbLine
 10
7.942602074914315
 20
9.489805824142084
 30
0.0
 11
7.942602074914314
 21
5.939805824142085
 31
0.0
  0
LINE
  5
33D
330
17
100
AcDbEntity
  8
0
100
AcDbLine
 10
2.542602074914315
 20
6.589805824142085
 30
0.0
 11
2.542602074914315
 21
6.189805824142085
 31
0.0
  0
LINE
  5
33E
330
17
100
AcDbEntity
  8
0
100
AcDbLine
 10
2.542602074914315
 20
6.189805824142085
 30
0.0
 11
2.542602074914315
 21
5.939805824142085
 31
0.0
  0
LINE
  5
33F
330
17
100
AcDbEntity
  8
0
100
AcDbLine
 10
2.542602074914315
 20
5.939805824142085
 30
0.0
 11
7.942602074914314
 21
5.939805824142085
 31
0.0
  0
LINE
  5
340
330
17
100
AcDbEntity
  8
0
100
AcDbLine
 10
2.542602074914315
 20
6.189805824142085
 30
0.0
 11
7.942602074914314
 21
6.189805824142083
 31
0.0
  0
LWPOLYLINE
  5
341
330
17
100
AcDbEntity
  8
PARED
100
AcDbPolyline
 90
        5
 70
     0
 43
0.0
 10
2.542602074914315
 20
9.489805824142084
 10
7.942602074914315
 20
9.489805824142084
 10
7.942602074914314
 20
6.189805824142083
 10
2.542602074914315
 20
6.189805824142085
 10
2.542602074914315
 20
9.489805824142084
  0
LWPOLYLINE
  5
348
330
17
100
AcDbEntity
  8
PARED
100
AcDbPolyline
 90
        5
 70
     0
 43
0.0
 10
2.542602074914315
 20
6.189805824142085
 10
7.942602074914314
 20
6.189805824142083
 10
7.942602074914314
 20
5.939805824142085
 10
2.542602074914315
 20
5.939805824142085
 10
2.542602074914315
 20
6.189805824142085
  0
INSERT
  5
34F
330
17
100
AcDbEntity
  8
BLOQUE
100
AcDbBlockReference
  2
*X0
 10
0.0
 20
0.0
 30
0.0
1001
ACAD
1000
HATCH
1002
{
1070
    16
1000
BRICK
1040
0.85
1040
0.0
1002
}
  0
LINE
  5
350
330
17
100
AcDbEntity
  8
REFUERZO
100
AcDbLine
 10
2.641439148441249
 20
6.076635550451763
 30
0.0
 11
2.641439148441249
 21
9.419584108213561
 31
0.0
  0
LINE
  5
351
330
17
100
AcDbEntity
  8
REFUERZO
100
AcDbLine
 10
2.641439148441249
 20
9.419584108213561
 30
0.0
 11
2.893437908694538
 21
9.419584108213561
 31
0.0
  0
LINE
  5
352
330
17
100
AcDbEntity
  8
REFUERZO
100
AcDbLine
 10
2.641439148441249
 20
6.076635550451763
 30
0.0
 11
2.881983434247626
 21
6.076635550451763
 31
0.0
  0
LINE
  5
353
330
17
100
AcDbEntity
  8
REFUERZO
100
AcDbLine
 10
3.241439148441249
 20
6.076635550451763
 30
0.0
 11
3.241439148441249
 21
9.419584108213561
 31
0.0
  0
LINE
  5
354
330
17
100
AcDbEntity
  8
REFUERZO
100
AcDbLine
 10
3.241439148441249
 20
9.419584108213561
 30
0.0
 11
3.493437908694538
 21
9.419584108213561
 31
0.0
  0
LINE
  5
355
330
17
100
AcDbEntity
  8
REFUERZO
100
AcDbLine
 10
3.241439148441249
 20
6.076635550451763
 30
0.0
 11
3.481983434247626
 21
6.076635550451763
 31
0.0
  0
LINE
  5
356
330
17
100
AcDbEntity
  8
REFUERZO
100
AcDbLine
 10
3.841439148441248
 20
6.076635550451763
 30
0.0
 11
3.841439148441248
 21
9.419584108213561
 31
0.0
  0
LINE
  5
357
330
17
100
AcDbEntity
  8
REFUERZO
100
AcDbLine
 10
3.841439148441248
 20
9.419584108213561
 30
0.0
 11
4.093437908694538
 21
9.419584108213561
 31
0.0
  0
LINE
  5
358
330
17
100
AcDbEntity
  8
REFUERZO
100
AcDbLine
 10
3.841439148441248
 20
6.076635550451763
 30
0.0
 11
4.081983434247626
 21
6.076635550451763
 31
0.0
  0
LINE
  5
359
330
17
100
AcDbEntity
  8
REFUERZO
100
AcDbLine
 10
4.441439148441249
 20
6.076635550451763
 30
0.0
 11
4.441439148441249
 21
9.419584108213561
 31
0.0
  0
LINE
  5
35A
330
17
100
AcDbEntity
  8
REFUERZO
100
AcDbLine
 10
4.441439148441249
 20
9.419584108213561
 30
0.0
 11
4.693437908694537
 21
9.419584108213561
 31
0.0
  0
LINE
  5
35B
330
17
100
AcDbEntity
  8
REFUERZO
100
AcDbLine
 10
4.441439148441249
 20
6.076635550451763
 30
0.0
 11
4.681983434247626
 21
6.076635550451763
 31
0.0
  0
LINE
  5
35C
330
17
100
AcDbEntity
  8
REFUERZO
100
AcDbLine
 10
5.041439148441249
 20
6.076635550451763
 30
0.0
 11
5.041439148441249
 21
9.419584108213561
 31
0.0
  0
LINE
  5
35D
330
17
100
AcDbEntity
  8
REFUERZO
100
AcDbLine
 10
5.041439148441249
 20
9.419584108213561
 30
0.0
 11
5.293437908694538
 21
9.419584108213561
 31
0.0
  0
LINE
  5
35E
330
17
100
AcDbEntity
  8
REFUERZO
100
AcDbLine
 10
5.041439148441249
 20
6.076635550451763
 30
0.0
 11
5.281983434247626
 21
6.076635550451763
 31
0.0
  0
LINE
  5
35F
330
17
100
AcDbEntity
  8
REFUERZO
100
AcDbLine
 10
5.641439148441248
 20
6.076635550451763
 30
0.0
 11
5.641439148441248
 21
9.419584108213561
 31
0.0
  0
LINE
  5
360
330
17
100
AcDbEntity
  8
REFUERZO
100
AcDbLine
 10
5.641439148441248
 20
9.419584108213561
 30
0.0
 11
5.893437908694538
 21
9.419584108213561
 31
0.0
  0
LINE
  5
361
330
17
100
AcDbEntity
  8
REFUERZO
100
AcDbLine
 10
5.641439148441248
 20
6.076635550451763
 30
0.0
 11
5.881983434247626
 21
6.076635550451763
 31
0.0
  0
LINE
  5
362
330
17
100
AcDbEntity
  8
REFUERZO
100
AcDbLine
 10
6.241439148441248
 20
6.076635550451763
 30
0.0
 11
6.241439148441248
 21
9.419584108213561
 31
0.0
  0
LINE
  5
363
330
17
100
AcDbEntity
  8
REFUERZO
100
AcDbLine
 10
6.241439148441248
 20
9.419584108213561
 30
0.0
 11
6.493437908694538
 21
9.419584108213561
 31
0.0
  0
LINE
  5
364
330
17
100
AcDbEntity
  8
REFUERZO
100
AcDbLine
 10
6.241439148441248
 20
6.076635550451763
 30
0.0
 11
6.481983434247625
 21
6.076635550451763
 31
0.0
  0
LINE
  5
365
330
17
100
AcDbEntity
  8
REFUERZO
100
AcDbLine
 10
6.841439148441249
 20
6.076635550451763
 30
0.0
 11
6.841439148441249
 21
9.419584108213561
 31
0.0
  0
LINE
  5
366
330
17
100
AcDbEntity
  8
REFUERZO
100
AcDbLine
 10
6.841439148441249
 20
9.419584108213561
 30
0.0
 11
7.093437908694538
 21
9.419584108213561
 31
0.0
  0
LINE
  5
367
330
17
100
AcDbEntity
  8
REFUERZO
100
AcDbLine
 10
6.841439148441249
 20
6.076635550451763
 30
0.0
 11
7.081983434247626
 21
6.076635550451763
 31
0.0
  0
LINE
  5
368
330
17
100
AcDbEntity
  8
REFUERZO
100
AcDbLine
 10
7.441439148441249
 20
6.076635550451763
 30
0.0
 11
7.441439148441249
 21
9.419584108213561
 31
0.0
  0
LINE
  5
369
330
17
100
AcDbEntity
  8
REFUERZO
100
AcDbLine
 10
7.441439148441249
 20
9.419584108213561
 30
0.0
 11
7.693437908694537
 21
9.419584108213561
 31
0.0
  0
LINE
  5
36A
330
17
100
AcDbEntity
  8
REFUERZO
100
AcDbLine
 10
7.441439148441249
 20
6.076635550451763
 30
0.0
 11
7.681983434247626
 21
6.076635550451763
 31
0.0
  0
LINE
  5
36B
330
17
100
AcDbEntity
  8
REFUERZO
100
AcDbLine
 10
7.830891850865323
 20
6.076635550451763
 30
0.0
 11
7.830891850865323
 21
9.419584108213561
 31
0.0
  0
INSERT
  5
36C
330
17
100
AcDbEntity
  8
SOLERA
100
AcDbBlockReference
  2
*X1
 10
0.0
 20
0.0
 30
0.0
1001
ACAD
1000
HATCH
1002
{
1070
    16
1000
AR-CONC
1040
0.05
1040
0.0
1002
}
  0
LINE
  5
36D
330
17
100
AcDbEntity
  8
SUELO
100
AcDbLine
 10
2.542602074914315
 20
6.589805824142085
 30
0.0
 11
1.278354758906711
 21
6.589805824142085
 31
0.0
  0
LINE
  5
36E
330
17
100
AcDbEntity
  8
SUELO
100
AcDbLine
 10
10.73748150395681
 20
6.589805824142086
 30
0.0
 11
7.956322719715005
 21
6.589805824142085
 31
0.0
  0
DIMENSION
  5
36F
330
17
100
AcDbEntity
  8
COTAS
100
AcDbDimension
  2
*D2
 10
7.942602074914314
 20
5.58435202122053
 30
0.0
 11
5.242602074914315
 21
5.58435202122053
 31
0.0
 71
     5
 42
-1.0
100
AcDbAlignedDimension
 13
2.542602074914315
 23
5.939805824142085
 33
0.0
 14
7.942602074914314
 24
5.939805824142085
 34
0.0
100
AcDbRotatedDimension
  0
DIMENSION
  5
370
330
17
100
AcDbEntity
  8
COTAS
100
AcDbDimension
  2
*D3
 10
3.241439148441249
 20
9.854625364476778
 30
0.0
 11
3.748105815107916
 21
9.854625364476778
 31
0.0
 71
     5
 42
-1.0
100
AcDbAlignedDimension
 13
2.641439148441249
 23
9.419584108213561
 33
0.0
 14
3.241439148441249
 24
9.419584108213561
 34
0.0
100
AcDbRotatedDimension
  0
DIMENSION
  5
371
330
17
100
AcDbEntity
  8
COTAS
100
AcDbDimension
  2
*D4
 10
7.441439148441249
 20
9.843176907920485
 30
0.0
 11
6.909772481774582
 21
9.843176907920485
 31
0.0
 71
     5
 42
-1.0
100
AcDbAlignedDimension
 13
7.830891850865323
 23
9.419584108213561
 33
0.0
 14
7.441439148441249
 24
9.419584108213561
 34
0.0
100
AcDbRotatedDimension
  0
DIMENSION
  5
372
330
17
100
AcDbEntity
  8
COTAS
100
AcDbDimension
  2
*D5
 10
5.641439148441248
 20
9.877522253172919
 30
0.0
 11
6.148105815107915
 21
9.877522253172919
 31
0.0
 71
     5
 42
-1.0
100
AcDbAlignedDimension
 13
5.041439148441249
 23
9.419584108213561
 33
0.0
 14
5.641439148441248
 24
9.419584108213561
 34
0.0
100
AcDbRotatedDimension
  0
DIMENSION
  5
373
330
17
100
AcDbEntity
  8
COTAS
100
AcDbDimension
  2
*D6
 10
1.553262516903862
 20
6.189805824142085
 30
0.0
 11
1.968262516903863
 21
6.389805824142085
 31
0.0
 71
     5
 42
-1.0
100
AcDbAlignedDimension
 13
2.542602074914315
 23
5.939805824142085
 33
0.0
 14
2.542602074914315
 24
6.189805824142085
 34
0.0
 50
90.0
100
AcDbRotatedDimension
  0
DIMENSION
  5
374
330
17
100
AcDbEntity
  8
COTAS
100
AcDbDimension
  2
*D7
 10
8.151049070927042
 20
6.589805824142085
 30
0.0
 11
8.557715737593708
 21
6.789805824142085
 31
0.0
 12
0.1947263512120365
 22
0.0
 32
0.0
 71
     5
 42
-1.0
100
AcDbAlignedDimension
 13
8.137328426126352
 23
6.189805824142083
 33
0.0
 14
8.151049070927042
 24
6.589805824142085
 34
0.0
 50
90.0
100
AcDbRotatedDimension
  0
DIMENSION
  5
375
330
17
100
AcDbEntity
  8
COTAS
100
AcDbDimension
  2
*D8
 10
1.999987673436821
 20
9.489805824142084
 30
0.0
 11
1.999987673436821
 21
8.039805824142085
 31
0.0
 71
     5
 42
-1.0
100
AcDbAlignedDimension
 13
2.542602074914315
 23
6.589805824142085
 33
0.0
 14
2.542602074914315
 24
9.489805824142084
 34
0.0
 50
90.0
100
AcDbRotatedDimension
  0
LINE
  5
376
330
17
100
AcDbEntity
  8
PARED
100
AcDbLine
 10
10.6456537772878
 20
5.939805824142085
 30
0.0
 11
11.0456537772878
 21
5.939805824142085
 31
0.0
  0
LINE
  5
377
330
17
100
AcDbEntity
  8
PARED
100
AcDbLine
 10
11.0456537772878
 20
5.939805824142085
 30
0.0
 11
11.0456537772878
 21
6.189805824142085
 31
0.0
  0
LINE
  5
378
330
17
100
AcDbEntity
  8
PARED
100
AcDbLine
 10
11.0456537772878
 20
6.189805824142085
 30
0.0
 11
10.6456537772878
 21
6.189805824142085
 31
0.0
  0
LINE
  5
379
330
17
100
AcDbEntity
  8
PARED
100
AcDbLine
 10
10.6456537772878
 20
6.189805824142085
 30
0.0
 11
10.6456537772878
 21
5.939805824142085
 31
0.0
  0
LINE
  5
37A
330
17
100
AcDbEntity
  8
SUELO
100
AcDbLine
 10
10.93748150395681
 20
6.589805824142086
 30
0.0
 11
12.96755389919732
 21
6.589805824142086
 31
0.0
  0
CIRCLE
  5
37B
330
17
100
AcDbEntity
  8
REFUERZO
100
AcDbCircle
 10
10.72517462586171
 20
6.139796213907177
 30
0.0
 40
0.0149064760779361
  0
CIRCLE
  5
37C
330
17
100
AcDbEntity
  8
REFUERZO
100
AcDbCircle
 10
10.95835404903784
 20
6.139796213907177
 30
0.0
 40
0.0149064760779361
  0
CIRCLE
  5
37D
330
17
100
AcDbEntity
  8
REFUERZO
100
AcDbCircle
 10
10.72517462586171
 20
5.983882676961739
 30
0.0
 40
0.0149064760779361
  0
CIRCLE
  5
37E
330
17
100
AcDbEntity
  8
REFUERZO
100
AcDbCircle
 10
10.95885507510801
 20
5.984425210396905
 30
0.0
 40
0.0149064760779361
  0
LINE
  5
37F
330
17
100
AcDbEntity
  8
REFUERZO
100
AcDbLine
 10
10.95835404903784
 20
6.154702689985113
 30
0.0
 11
10.72517462586171
 21
6.154702689985113
 31
0.0
  0
LINE
  5
380
330
17
100
AcDbEntity
  8
REFUERZO
100
AcDbLine
 10
10.97326052057586
 20
6.139807847830734
 30
0.0
 11
10.97338081192687
 21
5.985679312324466
 31
0.0
  0
LINE
  5
381
330
17
100
AcDbEntity
  8
REFUERZO
100
AcDbLine
 10
10.9598099467201
 20
5.969402845357014
 30
0.0
 11
10.72584818855285
 21
5.969402845357014
 31
0.0
  0
LINE
  5
382
330
17
100
AcDbEntity
  8
REFUERZO
100
AcDbLine
 10
10.71026830032841
 20
6.139863207618072
 30
0.0
 11
10.70956315754657
 21
5.982966571899298
 31
0.0
  0
LINE
  5
383
330
17
100
AcDbEntity
  8
REFUERZO
100
AcDbLine
 10
10.94721561284691
 20
6.149702689985113
 30
0.0
 11
10.73631306205264
 21
6.149702689985113
 31
0.0
  0
LINE
  5
384
330
17
100
AcDbEntity
  8
REFUERZO
100
AcDbLine
 10
10.71521819070537
 20
6.128702412573118
 30
0.0
 11
10.71461460948383
 21
5.994403564907204
 31
0.0
  0
LINE
  5
385
330
17
100
AcDbEntity
  8
REFUERZO
100
AcDbLine
 10
10.96826921521395
 20
6.128665512727015
 30
0.0
 11
10.9683728354419
 21
5.995897580129819
 31
0.0
  0
LINE
  5
386
330
17
100
AcDbEntity
  8
REFUERZO
100
AcDbLine
 10
10.94782079995877
 20
5.974402845357014
 30
0.0
 11
10.73667835663951
 21
5.974402845357014
 31
0.0
  0
LINE
  5
387
330
17
100
AcDbEntity
  8
PARED
100
AcDbLine
 10
10.93748150395681
 20
6.189810622072412
 30
0.0
 11
10.93748150395681
 21
9.489810622072411
 31
0.0
  0
LINE
  5
388
330
17
100
AcDbEntity
  8
PARED
100
AcDbLine
 10
10.73748150395681
 20
9.489810622072411
 30
0.0
 11
10.73748150395681
 21
6.189810622072412
 31
0.0
  0
LINE
  5
389
330
17
100
AcDbEntity
  8
PARED
100
AcDbLine
 10
10.73748150395681
 20
6.189810622072412
 30
0.0
 11
10.93748150395681
 21
6.189810622072412
 31
0.0
  0
LINE
  5
38A
330
17
100
AcDbEntity
  8
PARED
100
AcDbLine
 10
10.93748150395681
 20
9.289810622072412
 30
0.0
 11
10.73748150395681
 21
9.289810622072412
 31
0.0
  0
LINE
  5
38B
330
17
100
AcDbEntity
  8
PARED
100
AcDbLine
 10
10.93748150395681
 20
9.489810622072411
 30
0.0
 11
10.88748150395681
 21
9.489810622072411
 31
0.0
  0
LINE
  5
38C
330
17
100
AcDbEntity
  8
PARED
100
AcDbLine
 10
10.88748150395681
 20
9.489810622072411
 30
0.0
 11
10.88748150395681
 21
9.336572346627164
 31
0.0
  0
LINE
  5
38D
330
17
100
AcDbEntity
  8
PARED
100
AcDbLine
 10
10.88748150395681
 20
9.336572346627164
 30
0.0
 11
10.78748150395681
 21
9.336572346627164
 31
0.0
  0
LINE
  5
38E
330
17
100
AcDbEntity
  8
PARED
100
AcDbLine
 10
10.73748150395681
 20
9.489810622072411
 30
0.0
 11
10.78748150395681
 21
9.489810622072411
 31
0.0
  0
LINE
  5
38F
330
17
100
AcDbEntity
  8
PARED
100
AcDbLine
 10
10.78748150395681
 20
9.489810622072411
 30
0.0
 11
10.78748150395681
 21
9.336572346627164
 31
0.0
  0
LWPOLYLINE
  5
390
330
17
100
AcDbEntity
  8
PARED
100
AcDbPolyline
 90
        5
 70
     0
 43
0.0
 10
10.73748150395681
 20
9.289810622072412
 10
10.93748150395681
 20
9.289810622072412
 10
10.93748150395681
 20
6.189810622072412
 10
10.73748150395681
 20
6.189810622072412
 10
10.73748150395681
 20
9.289810622072412
  0
DIMENSION
  5
397
330
17
100
AcDbEntity
  8
COTAS
100
AcDbDimension
  2
*D9
 10
9.651169550091676
 20
6.189805824142085
 30
0.0
 11
10.06616955009167
 21
6.389805824142085
 31
0.0
 71
     5
 42
-1.0
100
AcDbAlignedDimension
 13
10.6456537772878
 23
5.939805824142085
 33
0.0
 14
10.6456537772878
 24
6.189805824142085
 34
0.0
 50
90.0
100
AcDbRotatedDimension
  0
DIMENSION
  5
398
330
17
100
AcDbEntity
  8
COTAS
100
AcDbDimension
  2
*D10
 10
11.40286801497834
 20
6.589805824142086
 30
0.0
 11
11.80953468164501
 21
6.789805824142086
 31
0.0
 71
     5
 42
-1.0
100
AcDbAlignedDimension
 13
10.93748150395681
 23
6.189810622072412
 33
0.0
 14
10.93748150395681
 24
6.589805824142086
 34
0.0
 50
90.0
100
AcDbRotatedDimension
  0
DIMENSION
  5
399
330
17
100
AcDbEntity
  8
COTAS
100
AcDbDimension
  2
*D11
 10
9.908137862027663
 20
9.489810622072411
 30
0.0
 11
9.908137862027663
 21
8.039808223107248
 31
0.0
 71
     5
 42
-1.0
100
AcDbAlignedDimension
 13
10.73748150395681
 23
6.589805824142086
 33
0.0
 14
10.73748150395681
 24
9.489810622072411
 34
0.0
 50
90.0
100
AcDbRotatedDimension
  0
DIMENSION
  5
39A
330
17
100
AcDbEntity
  8
COTAS
100
AcDbDimension
  2
*D12
 10
11.71553850795867
 20
9.289810622072412
 30
0.0
 11
11.308871841292
 21
9.089810622072413
 31
0.0
 71
     5
 42
-1.0
100
AcDbAlignedDimension
 13
10.93748150395681
 23
9.489810622072411
 33
0.0
 14
10.93748150395681
 24
9.289810622072412
 34
0.0
 50
90.0
100
AcDbRotatedDimension
  0
CIRCLE
  5
39B
330
17
100
AcDbEntity
  8
REFUERZO
100
AcDbCircle
 10
4.513783527607959
 20
1.693794603133372
 30
0.0
 40
0.0981250452835284
  0
CIRCLE
  5
39C
330
17
100
AcDbEntity
  8
REFUERZO
100
AcDbCircle
 10
4.51708163814508
 20
0.6710319679214912
 30
0.0
 40
0.0981250452835284
  0
LINE
  5
39D
330
17
100
AcDbEntity
  8
REFUERZO
100
AcDbLine
 10
4.52336728336977
 20
0.5721440589282421
 30
0.0
 11
2.983264311027705
 21
0.5721440589282421
 31
0.0
  0
LINE
  5
39E
330
17
100
AcDbEntity
  8
REFUERZO
100
AcDbLine
 10
4.513783527607959
 20
1.7919196484169
 30
0.0
 11
2.97883044153205
 21
1.7919196484169
 31
0.0
  0
LINE
  5
39F
330
17
100
AcDbEntity
  8
PARED
100
AcDbLine
 10
2.455367563618938
 20
0.3773153796489606
 30
0.0
 11
5.088452533413216
 21
0.3773153796489606
 31
0.0
  0
LINE
  5
3A0
330
17
100
AcDbEntity
  8
PARED
100
AcDbLine
 10
5.088452533413216
 20
2.022993485770383
 30
0.0
 11
2.455367563618938
 21
2.022993485770383
 31
0.0
  0
LINE
  5
3A1
330
17
100
AcDbEntity
  8
PARED
100
AcDbLine
 10
2.455367563618938
 20
2.022993485770383
 30
0.0
 11
2.455367563618938
 21
0.3773153796489606
 31
0.0
  0
CIRCLE
  5
3A2
330
17
100
AcDbEntity
  8
REFUERZO
100
AcDbCircle
 10
2.97883044153205
 20
0.6674606263371273
 30
0.0
 40
0.0981250452835284
  0
LINE
  5
3A3
330
17
100
AcDbEntity
  8
REFUERZO
100
AcDbLine
 10
4.440462405304598
 20
1.759006086294473
 30
0.0
 11
3.052151563835412
 21
1.759006086294473
 31
0.0
  0
LINE
  5
3A4
330
17
100
AcDbEntity
  8
REFUERZO
100
AcDbLine
 10
4.444446178024945
 20
0.60505762105067
 30
0.0
 11
3.054556193051015
 21
0.60505762105067
 31
0.0
  0
CIRCLE
  5
3A5
330
17
100
AcDbEntity
  8
REFUERZO
100
AcDbCircle
 10
2.97883044153205
 20
1.693794603133372
 30
0.0
 40
0.0981250452835284
  0
LINE
  5
3A6
330
17
100
AcDbEntity
  8
REFUERZO
100
AcDbLine
 10
2.913290092124801
 20
1.620767299256884
 30
0.0
 11
2.909316890518629
 21
0.7367166061323629
 31
0.0
  0
LINE
  5
3A7
330
17
100
AcDbEntity
  8
REFUERZO
100
AcDbLine
 10
2.880706387240559
 20
1.694235603466439
 30
0.0
 11
2.876064635089482
 21
0.6614301701604651
 31
0.0
  0
LINE
  5
3A8
330
17
100
AcDbEntity
  8
PARED
100
AcDbLine
 10
3.05984308087528
 20
2.023025069165963
 30
0.0
 11
4.376385565772427
 21
2.023025069165963
 31
0.0
  0
LINE
  5
3A9
330
17
100
AcDbEntity
  8
PARED
100
AcDbLine
 10
5.088452533413216
 20
0.3773153796489606
 30
0.0
 11
5.088452533413216
 21
2.022993485770383
 31
0.0
  0
LINE
  5
3AA
330
17
100
AcDbEntity
  8
REFUERZO
100
AcDbLine
 10
4.579052215186317
 20
1.620524398181479
 30
0.0
 11
4.579734317348261
 21
0.7465512787006432
 31
0.0
  0
LINE
  5
3AB
330
17
100
AcDbEntity
  8
REFUERZO
100
AcDbLine
 10
4.611908543006544
 20
1.693871185906516
 30
0.0
 11
4.612700386377371
 21
0.6792873602616237
 31
0.0
  0
LWPOLYLINE
  5
3AC
330
17
100
AcDbEntity
  8
PARED
100
AcDbPolyline
 90
        4
 70
     1
 43
0.0
 10
3.324718552486491
 20
2.024787840821841
 10
4.261790164413653
 20
2.024787840821841
 10
4.261790164413653
 20
4.523645472627606
 10
3.324718552486491
 20
4.523645472627606
  0
LINE
  5
3B2
330
17
100
AcDbEntity
  8
BLOQUE
100
AcDbLine
 10
4.261790164413653
 20
2.813980810209577
 30
0.0
 11
3.324718552486491
 21
2.813980810209577
 31
0.0
  0
LINE
  5
3B3
330
17
100
AcDbEntity
  8
BLOQUE
100
AcDbLine
 10
4.279830215345124
 20
3.625355233076262
 30
0.0
 11
3.342758603417961
 21
3.625355233076262
 31
0.0
  0
LINE
  5
3B4
330
17
100
AcDbEntity
  8
REFUERZO
100
AcDbLine
 10
3.766194235435579
 20
4.523645472627606
 30
0.0
 11
3.766194235435579
 21
0.7044074113476402
 31
0.0
  0
LINE
  5
3B5
330
17
100
AcDbEntity
  8
REFUERZO
100
AcDbLine
 10
3.816194235435578
 20
4.523645472627606
 30
0.0
 11
3.816194235435578
 21
0.7044074113476402
 31
0.0
  0
DIMENSION
  5
3B6
330
17
100
AcDbEntity
  8
COTAS
100
AcDbDimension
  2
*D13
 10
5.088452533413216
 20
0.0823536934368133
 30
0.0
 11
3.771910048516077
 21
0.0823536934368133
 31
0.0
  1
0.40
 71
     5
 42
-1.0
100
AcDbAlignedDimension
 13
2.455367563618938
 23
0.3773153796489606
 33
0.0
 14
5.088452533413216
 24
0.3773153796489606
 34
0.0
100
AcDbRotatedDimension
  0
DIMENSION
  5
3B7
330
17
100
AcDbEntity
  8
COTAS
100
AcDbDimension
  2
*D14
 10
5.645942975579763
 20
0.3773153796489606
 30
0.0
 11
5.645942975579763
 21
1.200154432709672
 31
0.0
  1
0.25
 71
     5
 42
-1.0
100
AcDbAlignedDimension
 13
5.088452533413216
 23
2.022993485770383
 33
0.0
 14
5.088452533413216
 24
0.3773153796489606
 34
0.0
 50
90.0
100
AcDbRotatedDimension
  0
LINE
  5
3B8
330
17
100
AcDbEntity
  8
COTAS
100
AcDbLine
 10
4.716880399226301
 20
1.488736001257873
 30
0.0
 11
6.114984206563431
 21
1.488736001257873
 31
0.0
  0
TEXT
  5
3B9
330
17
100
AcDbEntity
  8
COTAS
100
AcDbText
 10
5.781243310948507
 20
1.560858117692324
 30
0.0
 40
0.1
  1
Est. %%c1/4 @ 0.20 m
100
AcDbText
  0
LINE
  5
3BA
330
17
100
AcDbEntity
  8
COTAS
100
AcDbLine
 10
4.635700216651969
 20
1.858362091604337
 30
0.0
 11
4.635700216651969
 21
2.696782284557822
 31
0.0
  0
TEXT
  5
3BB
330
17
100
AcDbEntity
  8
COTAS
100
AcDbText
 10
4.680800390597933
 20
2.534507349688763
 30
0.0
 40
0.1
  1
4%%c3/8
100
AcDbText
  0
LINE
  5
3BC
330
17
100
AcDbEntity
  8
PARED
100
AcDbLine
 10
10.09157246419843
 20
1.877243878010099
 30
0.0
 11
10.09157246419843
 21
0.5729918512589284
 31
0.0
  0
LINE
  5
3BD
330
17
100
AcDbEntity
  8
PARED
100
AcDbLine
 10
9.240445666430984
 20
1.877243878010099
 30
0.0
 11
9.240445666430984
 21
0.5729918512589284
 31
0.0
  0
LINE
  5
3BE
330
17
100
AcDbEntity
  8
PARED
100
AcDbLine
 10
10.09157246419843
 20
0.5729918512589284
 30
0.0
 11
9.240445666430984
 21
0.5729918512589284
 31
0.0
  0
LINE
  5
3BF
330
17
100
AcDbEntity
  8
PARED
100
AcDbLine
 10
10.51713586308215
 20
0.1749902824752382
 30
0.0
 11
8.814882267547261
 21
0.1749902824752382
 31
0.0
  0
LINE
  5
3C0
330
17
100
AcDbEntity
  8
PARED
100
AcDbLine
 10
8.814882267547261
 20
1.877243878010099
 30
0.0
 11
9.240445666430984
 21
1.877243878010099
 31
0.0
  0
LINE
  5
3C1
330
17
100
AcDbEntity
  8
PARED
100
AcDbLine
 10
10.51713586308215
 20
1.877243878010099
 30
0.0
 11
10.09157246419843
 21
1.877243878010099
 31
0.0
  0
LINE
  5
3C2
330
17
100
AcDbEntity
  8
PARED
100
AcDbLine
 10
10.51713586308215
 20
0.1749902824752382
 30
0.0
 11
10.51713586308215
 21
1.877243878010099
 31
0.0
  0
LINE
  5
3C3
330
17
100
AcDbEntity
  8
PARED
100
AcDbLine
 10
8.814882267547261
 20
0.1749902824752382
 30
0.0
 11
8.814882267547261
 21
1.877243878010099
 31
0.0
  0
LWPOLYLINE
  5
3C4
330
17
100
AcDbEntity
  8
PARED
100
AcDbPolyline
 90
        5
 70
     0
 43
0.0
 10
9.240445666430984
 20
1.877243878010099
 10
10.09157246419843
 20
1.877243878010099
 10
10.09157246419843
 20
0.5729918512589284
 10
9.240445666430984
 20
0.5729918512589284
 10
9.240445666430984
 20
1.877243878010099
  0
CIRCLE
  5
3CB
330
17
100
AcDbEntity
  8
REFUERZO
100
AcDbCircle
 10
9.649652133525577
 20
1.577841462428778
 30
0.0
 40
0.0981250452835284
  0
CIRCLE
  5
3CC
330
17
100
AcDbEntity
  8
REFUERZO
100
AcDbCircle
 10
9.638050675795989
 20
0.9285038241873319
 30
0.0
 40
0.0981250452835284
  0
LINE
  5
3CD
330
17
100
AcDbEntity
  8
REFUERZO
100
AcDbLine
 10
9.551542746011151
 20
1.579594343896125
 30
0.0
 11
9.539941288281562
 21
0.9302567056546791
 31
0.0
  0
LINE
  5
3CE
330
17
100
AcDbEntity
  8
REFUERZO
100
AcDbLine
 10
9.747761106541723
 20
1.576065532922422
 30
0.0
 11
9.74320419879203
 21
1.324324944204468
 31
0.0
  0
LINE
  5
3CF
330
17
100
AcDbEntity
  8
REFUERZO
100
AcDbLine
 10
9.736171065605688
 20
0.9275479918341922
 30
0.0
 11
9.738848932143133
 21
1.202442755177802
 31
0.0
  0
LINE
  5
3D0
330
17
100
AcDbEntity
  8
REFUERZO
100
AcDbLine
 10
9.696221624223975
 20
1.491471287900841
 30
0.0
 11
9.693212388478636
 21
1.325229876019391
 31
0.0
  0
LINE
  5
3D1
330
17
100
AcDbEntity
  8
REFUERZO
100
AcDbLine
 10
9.687006418503923
 20
1.013544166189285
 30
0.0
 11
9.688851304358003
 21
1.202929803285845
 31
0.0
  0
LINE
  5
3D2
330
17
100
AcDbEntity
  8
REFUERZO
100
AcDbLine
 10
9.600007181239229
 20
1.493201618239527
 30
0.0
 11
9.591460896098706
 21
1.014863056117989
 31
0.0
  0
LINE
  5
3D3
330
17
100
AcDbEntity
  8
REFUERZO
100
AcDbLine
 10
9.693212388478636
 20
1.325229876019391
 30
0.0
 11
9.74320419879203
 21
1.324324944204468
 31
0.0
  0
LINE
  5
3D4
330
17
100
AcDbEntity
  8
REFUERZO
100
AcDbLine
 10
9.738848932143133
 20
1.202442755177802
 30
0.0
 11
9.688851304358003
 21
1.202929803285845
 31
0.0
  0
INSERT
  5
3D5
330
17
100
AcDbEntity
  8
SOLERA
100
AcDbBlockReference
  2
*X15
 10
0.0
 20
0.0
 30
0.0
1001
ACAD
1000
HATCH
1002
{
1070
    16
1000
AR-CONC
1040
0.05
1040
0.0
1002
}
  0
LINE
  5
3D6
330
17
100
AcDbEntity
  8
COTAS
100
AcDbLine
 10
9.695296638592454
 20
1.607265603193201
 30
0.0
 11
10.8842741779383
 21
1.607265603193201
 31
0.0
  0
TEXT
  5
3D7
330
17
100
AcDbEntity
  8
COTAS
100
AcDbText
 10
10.65344709670737
 20
1.642089103735006
 30
0.0
 40
0.1
  1
2%%c3/8
100
AcDbText
  0
TEXT
  5
3D8
330
17
100
AcDbEntity
  8
COTAS
100
AcDbText
 10
6.96458901586012
 20
0.8651392105951094
 30
0.0
 40
0.1
  1
Est. %%c1/4 @ 0.20 m
100
AcDbText
  0
LINE
  5
3D9
330
17
100
AcDbEntity
  8
COTAS
100
AcDbLine
 10
8.412681752023761
 20
1.09298153479447
 30
0.0
 11
9.36399895498563
 21
1.09298153479447
 31
0.0
  0
TEXT
  5
3DA
330
17
100
AcDbEntity
  8
COTAS
100
AcDbText
 10
1.565632543772517
 20
-0.7064114821138499
 30
0.0
 40
0.3
  1
SOLERA DE FUNDACION
  7
ROMANT
100
AcDbText
  0
TEXT
  5
3DB
330
17
100
AcDbEntity
  8
COTAS
100
AcDbText
 10
7.382393559715259
 20
2.273924943502193
 30
0.0
 40
0.3
  1
SOLERA DE CORONAMIENTO
  7
ROMANT
100
AcDbText
  0
LWPOLYLINE
  5
3DC
330
17
100
AcDbEntity
  8
PARED
100
AcDbPolyline
 90
        4
 70
     1
 43
0.0
 10
6.354657102997689
 20
3.866006669320522
 10
6.941388521071219
 20
3.866006669320522
 10
6.941388521071219
 20
4.452738087394049
 10
6.354657102997689
 20
4.452738087394049
  0
LINE
  5
3E2
330
17
100
AcDbEntity
  8
PARED
100
AcDbLine
 10
5.384657184380204
 20
3.662819637872475
 30
0.0
 11
9.186831129940365
 21
3.662819637872475
 31
0.0
  0
LINE
  5
3E3
330
17
100
AcDbEntity
  8
PARED
100
AcDbLine
 10
5.210953776735081
 20
4.704490645204512
 30
0.0
 11
9.592138999764278
 21
4.704490645204512
 31
0.0
  0
LWPOLYLINE
  5
3E4
330
17
100
AcDbEntity
  8
PARED
100
AcDbPolyline
 90
        4
 70
     1
 43
0.0
 10
7.396877304824309
 20
3.866006669320522
 10
7.983608722897839
 20
3.866006669320522
 10
7.983608722897839
 20
4.452738087394049
 10
7.396877304824309
 20
4.452738087394049
  0
LINE
  5
3EA
330
17
100
AcDbEntity
  8
PARED
100
AcDbLine
 10
5.867166521260038
 20
3.662819637872475
 30
0.0
 11
5.867166521260038
 21
4.704490645204512
 31
0.0
  0
LINE
  5
3EB
330
17
100
AcDbEntity
  8
PARED
100
AcDbLine
 10
8.376215329281505
 20
3.662819637872475
 30
0.0
 11
8.376215329281505
 21
4.704490645204512
 31
0.0
  0
LWPOLYLINE
  5
3EC
330
17
100
AcDbEntity
  8
PARED
100
AcDbPolyline
 90
        5
 70
     0
 43
0.0
 10
5.867166521260038
 20
4.704490645204512
 10
8.376215329281505
 20
4.704490645204512
 10
8.376215329281505
 20
3.662819637872475
 10
5.867166521260038
 20
3.662819637872475
 10
5.867166521260038
 20
4.704490645204512
  0
LWPOLYLINE
  5
3F3
330
17
100
AcDbEntity
  8
PARED
100
AcDbPolyline
 90
        5
 70
     0
 43
0.0
 10
8.376215329281505
 20
4.704490645204512
 10
10.88526413730297
 20
4.704490645204512
 10
10.88526413730297
 20
3.662819637872475
 10
8.376215329281505
 20
3.662819637872475
 10
8.376215329281505
 20
4.704490645204512
  0
LWPOLYLINE
  5
3FA
330
17
100
AcDbEntity
  8
PARED
100
AcDbPolyline
 90
        4
 70
     1
 43
0.0
 10
8.863705911019156
 20
3.866006669320522
 10
9.450437329092686
 20
3.866006669320522
 10
9.450437329092686
 20
4.452738087394049
 10
8.863705911019156
 20
4.452738087394049
  0
LWPOLYLINE
  5
400
330
17
100
AcDbEntity
  8
PARED
100
AcDbPolyline
 90
        4
 70
     1
 43
0.0
 10
9.905926112845776
 20
3.866006669320522
 10
10.4926575309193
 20
3.866006669320522
 10
10.4926575309193
 20
4.452738087394049
 10
9.905926112845776
 20
4.452738087394049
  0
LWPOLYLINE
  5
406
330
17
100
AcDbEntity
  8
PARED
100
AcDbPolyline
 90
        5
 70
     0
 43
0.0
 10
10.88526413730297
 20
4.704490645204512
 10
13.39431294532444
 20
4.704490645204512
 10
13.39431294532444
 20
3.662819637872475
 10
10.88526413730297
 20
3.662819637872475
 10
10.88526413730297
 20
4.704490645204512
  0
LWPOLYLINE
  5
40D
330
17
100
AcDbEntity
  8
PARED
100
AcDbPolyline
 90
        4
 70
     1
 43
0.0
 10
11.37275471904062
 20
3.866006669320522
 10
11.95948613711415
 20
3.866006669320522
 10
11.95948613711415
 20
4.452738087394049
 10
11.37275471904062
 20
4.452738087394049
  0
LWPOLYLINE
  5
413
330
17
100
AcDbEntity
  8
PARED
100
AcDbPolyline
 90
        4
 70
     1
 43
0.0
 10
12.41497492086724
 20
3.866006669320522
 10
13.00170633894077
 20
3.866006669320522
 10
13.00170633894077
 20
4.452738087394049
 10
12.41497492086724
 20
4.452738087394049
  0
CIRCLE
  5
419
330
17
100
AcDbEntity
  8
REFUERZO
100
AcDbCircle
 10
6.626120377418805
 20
4.166621751294768
 30
0.0
 40
0.1021064170807797
  0
CIRCLE
  5
41A
330
17
100
AcDbEntity
  8
REFUERZO
100
AcDbCircle
 10
11.67737687860134
 20
4.166621751294768
 30
0.0
 40
0.1021064170807797
  0
DIMENSION
  5
41B
330
17
100
AcDbEntity
  8
COTAS
100
AcDbDimension
  2
*D16
 10
11.66602571530651
 20
3.100177046668417
 30
0.0
 11
9.140397495220756
 21
3.100177046668417
 31
0.0
 12
-5.027895249937346
 22
0.0
 32
0.0
  1
0.60
 71
     5
 42
-1.0
100
AcDbAlignedDimension
 13
6.614769275135001
 23
4.075860477953818
 33
0.0
 14
11.66602571530651
 24
4.075860477953818
 34
0.0
100
AcDbRotatedDimension
  0
ENDSEC
  0
SECTION
  2
OBJECTS
  0
DICTIONARY
  5
C
330
0
100
AcDbDictionary
281
     1
  3
ACAD_GROUP
350
D
  3
ACAD_MLINESTYLE
350
1A
  3
ACDBVARIABLEDICTIONARY
350
3E
  3
ACAD_PLOTSTYLENAME
350
425
  3
ACAD_LAYOUT
350
427
  3
ACAD_PLOTSETTINGS
350
428
  0
DICTIONARY
  5
D
102
{ACAD_REACTORS
330
C
102
}
330
C
100
AcDbDictionary
281
     1
  0
DICTIONARY
  5
1A
102
{ACAD_REACTORS
330
C
102
}
330
C
100
AcDbDictionary
281
     1
  3
STANDARD
350
1B
  0
DICTIONARY
  5
3E
102
{ACAD_REACTORS
330
C
102
}
330
C
100
AcDbDictionary
281
     1
  3
DIMADEC
350
3F
  0
ACDBDICTIONARYWDFLT
  5
425
102
{ACAD_REACTORS
330
C
102
}
330
C
100
AcDbDictionary
281
     1
  3
Normal
350
426
100
AcDbDictionaryWithDefault
340
426
  0
DICTIONARY
  5
427
102
{ACAD_REACTORS
330
C
102
}
330
C
100
AcDbDictionary
281
     1
  3
Model
350
429
  3
Layout1
350
42A
  0
DICTIONARY
  5
428
102
{ACAD_REACTORS
330
C
102
}
330
C
100
AcDbDictionary
281
     1
  0
MLINESTYLE
  5
1B
102
{ACAD_REACTORS
330
1A
102
}
330
1A
100
AcDbMlineStyle
  2
STANDARD
 70
     0
  3

 62
   256
 51
90.0
 52
90.0
 71
     2
 49
0.5
 62
   256
  6
BYLAYER
 49
-0.5
 62
   256
  6
BYLAYER
  0
DICTIONARYVAR
  5
3F
102
{ACAD_REACTORS
330
3E
102
}
330
3E
100
DictionaryVariables
280
     0
  1
0
  0
ACDBPLACEHOLDER
  5
426
102
{ACAD_REACTORS
330
425
102
}
330
425
  0
LAYOUT
  5
429
102
{ACAD_REACTORS
330
427
102
}
330
427
100
AcDbPlotSettings
  1

  2
Symantec Fax Starter Edition
  4

  6

 40
0.0
 41
0.0
 42
0.0
 43
0.0
 44
0.0
 45
0.0
 46
0.0
 47
0.0
 48
0.0
 49
0.0
140
0.0
141
0.0
142
1.0
143
1.0
 70
  1712
 72
     0
 73
     0
 74
     0
  7

 75
     0
147
1.0
148
0.0
149
0.0
100
AcDbLayout
  1
Model
 70
     1
 71
     0
 10
0.0
 20
0.0
 11
12.0
 21
9.0
 12
0.0
 22
0.0
 32
0.0
 14
0.0
 24
0.0
 34
0.0
 15
0.0
 25
0.0
 35
0.0
146
0.0
 13
0.0
 23
0.0
 33
0.0
 16
1.0
 26
0.0
 36
0.0
 17
0.0
 27
1.0
 37
0.0
 76
     0
330
17
  0
LAYOUT
  5
42A
102
{ACAD_REACTORS
330
427
102
}
330
427
100
AcDbPlotSettings
  1

  2
Symantec Fax Starter Edition
  4

  6

 40
0.0
 41
0.0
 42
0.0
 43
0.0
 44
0.0
 45
0.0
 46
0.0
 47
0.0
 48
0.0
 49
0.0
140
0.0
141
0.0
142
1.0
143
1.0
 70
   688
 72
     0
 73
     0
 74
     5
  7

 75
    16
147
1.0
148
0.0
149
0.0
100
AcDbLayout
  1
Layout1
 70
     1
 71
     1
 10
0.0
 20
0.0
 11
12.0
 21
9.0
 12
0.0
 22
0.0
 32
0.0
 14
1.000000000000000E+20
 24
1.000000000000000E+20
 34
1.000000000000000E+20
 15
-1.000000000000000E+20
 25
-1.000000000000000E+20
 35
-1.000000000000000E+20
146
0.0
 13
0.0
 23
0.0
 33
0.0
 16
1.0
 26
0.0
 36
0.0
 17
0.0
 27
1.0
 37
0.0
 76
     0
330
14
  0
ENDSEC
  0
EOF
